<svg width="17" height="17" viewBox="0 0 17 17" fill="none" xmlns="http://www.w3.org/2000/svg">
<path d="M14.8748 8.50003C14.8748 8.64093 14.8188 8.77605 14.7192 8.87568C14.6195 8.97531 14.4844 9.03128 14.3435 9.03128H9.03101V14.3438C9.03101 14.4847 8.97504 14.6198 8.87541 14.7194C8.77578 14.8191 8.64065 14.875 8.49976 14.875C8.35886 14.875 8.22373 14.8191 8.12411 14.7194C8.02448 14.6198 7.96851 14.4847 7.96851 14.3438V9.03128H2.65601C2.51511 9.03128 2.37998 8.97531 2.28036 8.87568C2.18073 8.77605 2.12476 8.64093 2.12476 8.50003C2.12476 8.35913 2.18073 8.22401 2.28036 8.12438C2.37998 8.02475 2.51511 7.96878 2.65601 7.96878H7.96851V2.65628C7.96851 2.51538 8.02448 2.38026 8.12411 2.28063C8.22373 2.181 8.35886 2.12503 8.49976 2.12503C8.64065 2.12503 8.77578 2.181 8.87541 2.28063C8.97504 2.38026 9.03101 2.51538 9.03101 2.65628V7.96878H14.3435C14.4844 7.96878 14.6195 8.02475 14.7192 8.12438C14.8188 8.22401 14.8748 8.35913 14.8748 8.50003Z" fill="#013974"/>
</svg>
