<svg width="24" height="24" viewBox="0 0 24 24" fill="none" xmlns="http://www.w3.org/2000/svg">
<path d="M20.031 9.53031L12.531 17.0303C12.4614 17.1 12.3787 17.1554 12.2876 17.1931C12.1966 17.2308 12.099 17.2503 12.0004 17.2503C11.9019 17.2503 11.8043 17.2308 11.7132 17.1931C11.6222 17.1554 11.5394 17.1 11.4698 17.0303L3.96979 9.53031C3.82906 9.38958 3.75 9.19871 3.75 8.99968C3.75 8.80066 3.82906 8.60979 3.96979 8.46906C4.11052 8.32833 4.30139 8.24927 4.50042 8.24927C4.69944 8.24927 4.89031 8.32833 5.03104 8.46906L12.0004 15.4394L18.9698 8.46906C19.0395 8.39938 19.1222 8.3441 19.2132 8.30639C19.3043 8.26868 19.4019 8.24927 19.5004 8.24927C19.599 8.24927 19.6965 8.26868 19.7876 8.30639C19.8786 8.3441 19.9614 8.39938 20.031 8.46906C20.1007 8.53874 20.156 8.62147 20.1937 8.71251C20.2314 8.80356 20.2508 8.90114 20.2508 8.99968C20.2508 9.09823 20.2314 9.19581 20.1937 9.28686C20.156 9.3779 20.1007 9.46063 20.031 9.53031Z" fill="#013974"/>
</svg>
