<svg width="200" height="133" viewBox="0 0 200 133" fill="none" xmlns="http://www.w3.org/2000/svg">
<g clip-path="url(#clip0_4790_75347)">
<path d="M192.181 88.6403C190.737 90.218 188.946 91.3925 187.003 92.3045H187C186.818 92.3912 186.635 92.4756 186.45 92.5553H186.447L186.445 92.5577L186.443 92.5553H186.44L186.44 92.5563L186.44 92.557L186.439 92.5575L186.438 92.5577H186.435L186.433 92.5553C186.431 92.5577 186.431 92.5577 186.428 92.5553L186.426 92.5577L186.424 92.5553H186.421C186.419 92.5577 186.419 92.5577 186.417 92.5553H186.414C185.114 93.118 183.778 93.5957 182.415 93.9854C174.402 96.2587 165.98 96.6986 157.774 95.2724C157.617 95.2443 157.462 95.2162 157.305 95.188V76.1731C157.459 76.1074 157.617 76.0418 157.774 75.9785C158.798 75.5542 159.835 75.1642 160.885 74.8087C162.394 74.2929 163.925 73.8506 165.477 73.4818C170.54 72.2563 175.765 71.8338 180.959 72.2299C181.904 72.3002 182.846 72.4018 183.786 72.5347C185.753 72.809 187.816 73.2872 189.631 74.1171H189.633C189.898 74.2413 190.158 74.3703 190.416 74.5086C192.029 75.383 193.389 76.5857 194.219 78.2338C194.517 78.8257 194.731 79.456 194.856 80.1069V80.1116C194.903 80.3366 194.936 80.564 194.962 80.7891C195.257 83.5648 194.106 86.5351 192.181 88.6403Z" fill="#F2F2F2"/>
<path d="M194.962 80.7899C194.939 80.7956 194.915 80.7987 194.892 80.7992C190.876 80.9751 186.865 81.2361 182.86 81.5822H182.853C182.837 81.5846 182.823 81.5846 182.807 81.5869C178.695 81.9433 174.591 82.3895 170.496 82.9255C170.323 82.949 170.152 82.9724 169.981 82.9935C167.149 83.371 164.322 83.7898 161.501 84.2501C160.256 84.4541 159.014 84.6666 157.774 84.8878C157.617 84.9159 157.462 84.9417 157.305 84.9722V84.2618C157.462 84.2314 157.619 84.2056 157.774 84.1774C161.904 83.446 166.049 82.8076 170.208 82.2621C171.254 82.1214 172.301 81.9886 173.349 81.8636C176.378 81.4979 179.412 81.1821 182.45 80.9164C182.673 80.8977 182.893 80.8789 183.116 80.8602C187.005 80.5296 190.9 80.2788 194.8 80.1077C194.819 80.1068 194.838 80.1084 194.856 80.1123C195.232 80.1452 195.311 80.7078 194.962 80.7899Z" fill="white"/>
<path d="M186.623 91.8653C181.621 91.9021 176.692 89.7808 173.153 86.2695C172.155 85.275 171.275 84.1681 170.531 82.971C170.293 82.5885 169.735 83.0104 169.971 83.3896C172.719 87.7971 177.297 90.9368 182.344 92.0912C183.778 92.416 185.244 92.5728 186.713 92.5587C187.162 92.5554 187.069 91.8621 186.623 91.8653Z" fill="white"/>
<path d="M165.477 73.4824C165.456 73.5483 165.417 73.6075 165.366 73.6539C165.314 73.7004 165.252 73.7326 165.184 73.7473C164.037 74.0477 162.93 74.4804 161.883 75.0367C160.355 75.8439 158.967 76.8929 157.774 78.143C157.71 78.2063 157.649 78.2696 157.591 78.3352C157.492 78.4384 157.398 78.5439 157.305 78.6517V77.6296C157.455 77.4702 157.612 77.3131 157.774 77.163C158.716 76.2607 159.76 75.4709 160.885 74.8093C162.394 74.2936 163.925 73.8513 165.477 73.4824Z" fill="white"/>
<path d="M190.046 73.9327C186.863 75.3005 184.201 77.6482 182.445 80.6341C182.409 80.7196 182.409 80.8156 182.444 80.9013C182.479 80.9871 182.546 81.0557 182.631 81.0922C182.716 81.126 182.812 81.1256 182.897 81.091C182.982 81.0564 183.051 80.9903 183.089 80.9064C184.765 78.0862 187.293 75.8711 190.309 74.5805C190.722 74.4037 190.46 73.7556 190.046 73.9327Z" fill="white"/>
<path d="M199.639 54.0225C199.095 56.0903 198.052 57.9634 196.755 59.6724L196.753 59.6748C196.633 59.8342 196.509 59.9959 196.38 60.1507V60.153C195.48 61.2619 194.508 62.3105 193.471 63.2921C189.742 66.8458 185.53 69.8551 180.959 72.2311C173.769 75.9867 165.733 78.2068 157.774 78.3334C157.713 78.3357 157.652 78.3357 157.591 78.3357C157.495 78.3381 157.398 78.3381 157.305 78.3381V67.683C157.457 67.3923 157.614 67.1016 157.774 66.8133C159.842 63.0915 162.364 59.6409 165.283 56.5404C165.353 56.463 165.426 56.3856 165.498 56.3106C166.595 55.1525 167.746 54.0499 168.949 53.0028C173.579 48.9321 178.929 45.7635 184.724 43.6605C186.593 42.9901 188.642 42.4532 190.634 42.3477C190.927 42.3313 191.218 42.3243 191.511 42.3266C193.347 42.3524 195.107 42.7861 196.61 43.8598C197.148 44.2463 197.631 44.7046 198.045 45.2219C198.19 45.4024 198.324 45.5876 198.453 45.7775V45.7798C200.005 48.1007 200.366 51.2633 199.639 54.0225Z" fill="#F2F2F2"/>
<path d="M198.453 45.777V45.7793C198.435 45.7944 198.416 45.8078 198.396 45.8192C194.927 47.8376 191.501 49.9296 188.119 52.095C188.114 52.0973 188.112 52.0997 188.107 52.102C188.093 52.1114 188.079 52.1201 188.065 52.1278C184.588 54.3549 181.161 56.6571 177.783 59.0342C177.642 59.1327 177.499 59.2335 177.356 59.3343C175.023 60.9824 172.715 62.6656 170.431 64.384C166.117 67.6333 161.898 71.0029 157.774 74.4928C157.617 74.6241 157.462 74.7577 157.305 74.8914V73.9794C157.459 73.8458 157.617 73.7122 157.774 73.5809C159.354 72.2469 160.948 70.9318 162.556 69.6353C163.037 69.2485 163.519 68.8617 164.002 68.4796C168.293 65.0639 172.679 61.7755 177.161 58.6146H177.164C178.045 57.9933 178.928 57.3776 179.813 56.7672C182.326 55.0371 184.867 53.3484 187.437 51.7011C187.622 51.5816 187.809 51.462 187.997 51.3424C191.286 49.2419 194.618 47.2101 197.993 45.2471C198.01 45.2371 198.027 45.2285 198.045 45.2214C198.396 45.0807 198.727 45.5449 198.453 45.777Z" fill="white"/>
<path d="M196.215 59.4599C191.802 61.8163 186.452 62.2272 181.687 60.7616C180.341 60.3447 179.047 59.7732 177.833 59.0585C177.444 58.8306 177.146 59.4633 177.531 59.6893C182.012 62.3158 187.525 62.9697 192.53 61.6476C193.95 61.2694 195.322 60.7273 196.617 60.0321C197.012 59.8208 196.608 59.25 196.215 59.4599Z" fill="white"/>
<path d="M163.194 68.0367C162.976 66.8095 162.901 65.561 162.971 64.3164C163.129 61.4781 163.998 58.7249 165.498 56.3103C166.597 55.1526 167.747 54.0498 168.95 53.002C168.961 53.0705 168.954 53.1408 168.93 53.2059C168.906 53.2711 168.866 53.3289 168.812 53.3735C167.937 54.1722 167.157 55.0696 166.489 56.0478C164.1 59.5339 163.168 63.8151 163.891 67.9787C163.902 68.0259 163.902 68.0754 163.889 68.1223C163.876 68.1692 163.851 68.212 163.817 68.2466C163.767 68.2903 163.706 68.3201 163.641 68.333C163.576 68.346 163.508 68.3416 163.445 68.3204C163.382 68.2992 163.326 68.2618 163.282 68.212C163.238 68.1623 163.208 68.1018 163.194 68.0367Z" fill="white"/>
<path d="M190.915 41.9893C188.732 44.6788 187.465 47.9947 187.297 51.4545C187.305 51.5467 187.349 51.6319 187.42 51.6917C187.491 51.7515 187.582 51.781 187.674 51.7738C187.766 51.764 187.85 51.7193 187.909 51.6491C187.969 51.5788 187.999 51.4884 187.994 51.3965C188.167 48.1207 189.377 44.9847 191.448 42.4408C191.733 42.092 191.2 41.6398 190.915 41.9893Z" fill="white"/>
<path d="M166.638 49.6912V49.6935C166.621 49.8952 166.602 50.0944 166.581 50.2937V50.2984C166.418 51.7168 166.164 53.1232 165.819 54.5088C165.655 55.1887 165.477 55.8639 165.283 56.539C165.259 56.6258 165.233 56.7125 165.207 56.7969V56.7992C164.635 58.7629 163.951 60.6923 163.159 62.5781C161.701 66.0499 159.897 69.366 157.774 72.4759C157.621 72.7033 157.464 72.9307 157.305 73.1557V36.4433C157.462 36.4339 157.617 36.4339 157.774 36.4386C157.849 36.4386 157.924 36.441 157.999 36.4457C158.66 36.4804 159.313 36.6075 159.94 36.8231C160.16 36.8958 160.373 36.9778 160.584 37.0693C163.142 38.1899 165.151 40.6608 166.023 43.3779C166.677 45.4128 166.809 47.5532 166.638 49.6912Z" fill="#F2F2F2"/>
<path d="M160.584 37.0703C160.579 37.0933 160.57 37.1154 160.559 37.136C159.609 38.981 158.681 40.8354 157.774 42.6991C157.617 43.0203 157.459 43.3438 157.305 43.665V42.0708C157.459 41.752 157.616 41.4332 157.774 41.1143C158.475 39.6937 159.187 38.2792 159.912 36.8711C159.92 36.8546 159.929 36.8389 159.94 36.8242C160.155 36.5147 160.69 36.7257 160.584 37.0703Z" fill="white"/>
<path d="M166.713 50.0688C166.67 50.1438 166.628 50.2188 166.581 50.2938C165.893 51.4935 165.074 52.6131 164.138 53.6322C162.342 55.5808 160.179 57.1558 157.774 58.267C157.619 58.342 157.462 58.4123 157.305 58.478V57.716C157.462 57.6457 157.619 57.573 157.774 57.498C161.256 55.8369 164.149 53.1527 166.066 49.8039C166.093 49.7561 166.131 49.7147 166.176 49.6827C166.221 49.6507 166.272 49.6287 166.326 49.6183C166.381 49.6078 166.436 49.6092 166.49 49.6222C166.544 49.6352 166.594 49.6596 166.638 49.6937C166.667 49.7134 166.693 49.7387 166.712 49.7682C166.732 49.7977 166.746 49.8309 166.753 49.8657C166.76 49.9005 166.76 49.9364 166.753 49.9713C166.746 50.0061 166.732 50.0392 166.713 50.0688Z" fill="white"/>
<path d="M157.774 7.73438V25.5514H157.305V25.3615H0.468869V25.5514H0V7.73438C0.00201341 5.68319 0.817734 3.7166 2.26814 2.26619C3.71855 0.815781 5.68515 6.02847e-05 7.73633 -0.00195312H150.038C152.089 6.02847e-05 154.056 0.815781 155.506 2.26619C156.957 3.7166 157.772 5.68319 157.774 7.73438Z" fill="#013974"/>
<path d="M150.038 -0.00195312H7.73633C5.68515 6.02847e-05 3.71855 0.815781 2.26814 2.26619C0.817734 3.7166 0.00201341 5.68319 0 7.73438V109.479C0.00201341 111.53 0.817734 113.497 2.26814 114.947C3.71855 116.397 5.68515 117.213 7.73633 117.215H150.038C152.089 117.213 154.056 116.397 155.506 114.947C156.957 113.497 157.772 111.53 157.774 109.479V7.73438C157.772 5.68319 156.957 3.7166 155.506 2.26619C154.056 0.815781 152.089 6.02847e-05 150.038 -0.00195312ZM157.305 109.479C157.303 111.406 156.536 113.253 155.174 114.615C153.812 115.977 151.965 116.744 150.038 116.746H7.73633C5.80964 116.744 3.96255 115.977 2.60017 114.615C1.23779 113.253 0.471327 111.406 0.468869 109.479V7.73438C0.471327 5.80768 1.23779 3.9606 2.60017 2.59822C3.96255 1.23584 5.80964 0.469374 7.73633 0.466915H150.038C151.965 0.469374 153.812 1.23584 155.174 2.59822C156.536 3.9606 157.303 5.80768 157.305 7.73438V109.479Z" fill="#3F3D56"/>
<path d="M31.884 17.4633C34.4735 17.4633 36.5727 15.3641 36.5727 12.7746C36.5727 10.1851 34.4735 8.08594 31.884 8.08594C29.2945 8.08594 27.1953 10.1851 27.1953 12.7746C27.1953 15.3641 29.2945 17.4633 31.884 17.4633Z" fill="white"/>
<path d="M125.892 17.4633C128.481 17.4633 130.58 15.3641 130.58 12.7746C130.58 10.1851 128.481 8.08594 125.892 8.08594C123.302 8.08594 121.203 10.1851 121.203 12.7746C121.203 15.3641 123.302 17.4633 125.892 17.4633Z" fill="white"/>
<path d="M45.4291 65.0557H17.537C16.3554 65.0544 15.2225 64.5844 14.387 63.7488C13.5514 62.9133 13.0814 61.7804 13.0801 60.5988V47.4159C13.0814 46.2343 13.5514 45.1014 14.387 44.2659C15.2225 43.4303 16.3554 42.9603 17.537 42.959H45.4291C46.6108 42.9603 47.7436 43.4303 48.5792 44.2659C49.4147 45.1014 49.8847 46.2343 49.8861 47.4159V60.5988C49.8847 61.7804 49.4147 62.9133 48.5792 63.7488C47.7436 64.5844 46.6108 65.0544 45.4291 65.0557Z" fill="#013974"/>
<path d="M92.8783 65.0557H64.9862C63.8046 65.0544 62.6717 64.5844 61.8362 63.7488C61.0006 62.9133 60.5306 61.7804 60.5293 60.5988V47.4159C60.5306 46.2343 61.0006 45.1014 61.8362 44.2659C62.6717 43.4303 63.8046 42.9603 64.9862 42.959H92.8783C94.06 42.9603 95.1928 43.4303 96.0284 44.2659C96.8639 45.1014 97.3339 46.2343 97.3353 47.4159V60.5988C97.3339 61.7804 96.8639 62.9133 96.0284 63.7488C95.1928 64.5844 94.06 65.0544 92.8783 65.0557Z" fill="#013974"/>
<path d="M92.8786 99.117H64.9865C63.7691 99.1156 62.6019 98.6314 61.741 97.7705C60.8801 96.9096 60.3959 95.7424 60.3945 94.525V81.342C60.3959 80.1245 60.8801 78.9573 61.741 78.0965C62.6019 77.2356 63.7691 76.7514 64.9865 76.75H92.8786C94.0961 76.7514 95.2633 77.2356 96.1241 78.0965C96.985 78.9573 97.4692 80.1245 97.4706 81.342V94.525C97.4692 95.7424 96.985 96.9096 96.1241 97.7705C95.2633 98.6314 94.0961 99.1156 92.8786 99.117Z" fill="#F2F2F2"/>
<path d="M45.3376 99.117H17.4455C16.228 99.1156 15.0609 98.6314 14.2 97.7705C13.3391 96.9096 12.8549 95.7424 12.8535 94.525V81.342C12.8549 80.1245 13.3391 78.9573 14.2 78.0965C15.0609 77.2356 16.228 76.7514 17.4455 76.75H45.3376C46.5551 76.7514 47.7223 77.2356 48.5831 78.0965C49.444 78.9573 49.9282 80.1245 49.9296 81.342V94.525C49.9282 95.7424 49.444 96.9096 48.5831 97.7705C47.7223 98.6314 46.5551 99.1156 45.3376 99.117Z" fill="#F2F2F2"/>
<path d="M140.328 99.117H112.436C111.218 99.1156 110.051 98.6314 109.19 97.7705C108.329 96.9096 107.845 95.7424 107.844 94.525V81.342C107.845 80.1245 108.329 78.9573 109.19 78.0965C110.051 77.2356 111.218 76.7514 112.436 76.75H140.328C141.545 76.7514 142.712 77.2356 143.573 78.0965C144.434 78.9573 144.918 80.1245 144.92 81.342V94.525C144.918 95.7424 144.434 96.9096 143.573 97.7705C142.712 98.6314 141.545 99.1156 140.328 99.117Z" fill="#F2F2F2"/>
<path d="M140.328 65.0818H112.436C111.218 65.0805 110.051 64.5962 109.19 63.7353C108.329 62.8745 107.845 61.7073 107.844 60.4898V47.3068C107.845 46.0894 108.329 44.9222 109.19 44.0613C110.051 43.2005 111.218 42.7162 112.436 42.7148H140.328C141.545 42.7162 142.712 43.2005 143.573 44.0613C144.434 44.9222 144.918 46.0894 144.92 47.3068V60.4898C144.918 61.7073 144.434 62.8745 143.573 63.7353C142.712 64.5962 141.545 65.0805 140.328 65.0818Z" fill="#F2F2F2"/>
<path d="M31.4832 61.5699C35.6603 61.5699 39.0465 58.1837 39.0465 54.0066C39.0465 49.8296 35.6603 46.4434 31.4832 46.4434C27.3061 46.4434 23.9199 49.8296 23.9199 54.0066C23.9199 58.1837 27.3061 61.5699 31.4832 61.5699Z" fill="white"/>
<path d="M30.7339 56.8908C30.5637 56.8911 30.398 56.8361 30.2619 56.734L30.2535 56.7277L28.476 55.3668C28.3936 55.3038 28.3244 55.2252 28.2724 55.1354C28.2204 55.0456 28.1866 54.9464 28.1729 54.8436C28.1592 54.7407 28.166 54.6361 28.1927 54.5359C28.2195 54.4356 28.2657 54.3416 28.3289 54.2593C28.392 54.1769 28.4707 54.1078 28.5605 54.0559C28.6504 54.0039 28.7496 53.9702 28.8524 53.9567C28.9553 53.9431 29.0599 53.9499 29.1601 53.9768C29.2603 54.0037 29.3543 54.05 29.4366 54.1132L30.5879 54.996L33.3085 51.4478C33.3716 51.3656 33.4503 51.2965 33.5401 51.2446C33.6299 51.1927 33.729 51.159 33.8318 51.1455C33.9346 51.1319 34.0391 51.1387 34.1393 51.1655C34.2395 51.1923 34.3334 51.2386 34.4157 51.3017L34.3988 51.3247L34.4161 51.302C34.5821 51.4296 34.6907 51.6178 34.7181 51.8254C34.7455 52.033 34.6895 52.2429 34.5622 52.4092L31.3621 56.5826C31.2881 56.6788 31.1929 56.7566 31.084 56.8101C30.975 56.8635 30.8552 56.8912 30.7339 56.8908Z" fill="#013974"/>
<path d="M79.0672 61.4605C83.2443 61.4605 86.6305 58.0743 86.6305 53.8973C86.6305 49.7202 83.2443 46.334 79.0672 46.334C74.8901 46.334 71.5039 49.7202 71.5039 53.8973C71.5039 58.0743 74.8901 61.4605 79.0672 61.4605Z" fill="white"/>
<path d="M78.3192 56.7834C78.149 56.7837 77.9834 56.7287 77.8472 56.6266L77.8388 56.6203L76.0614 55.2594C75.8951 55.132 75.7863 54.9438 75.7588 54.7362C75.7313 54.5286 75.7874 54.3186 75.9148 54.1523C76.0422 53.9861 76.2304 53.8772 76.438 53.8498C76.6456 53.8223 76.8557 53.8784 77.0219 54.0058L78.1732 54.8886L80.8938 51.3404C80.9569 51.2581 81.0356 51.1891 81.1254 51.1372C81.2152 51.0853 81.3143 51.0516 81.4171 51.038C81.52 51.0245 81.6244 51.0313 81.7246 51.0581C81.8248 51.0849 81.9187 51.1312 82.001 51.1943L81.9841 51.2173L82.0014 51.1946C82.1674 51.3222 82.276 51.5104 82.3034 51.718C82.3308 51.9255 82.2748 52.1355 82.1476 52.3018L78.9474 56.4752C78.8734 56.5714 78.7782 56.6492 78.6693 56.7027C78.5603 56.7561 78.4405 56.7837 78.3192 56.7834Z" fill="#013974"/>
<path d="M130.184 89.5868C130.432 89.3151 130.618 88.9922 130.728 88.6409C130.839 88.2896 130.87 87.9184 130.822 87.5535C130.773 87.1885 130.645 86.8387 130.446 86.5287C130.247 86.2187 129.983 85.956 129.672 85.7591L125.45 63.2129L120.314 65.1171L126.08 86.6805C125.784 87.2251 125.698 87.8594 125.838 88.4632C125.978 89.067 126.335 89.5983 126.841 89.9566C127.347 90.3148 127.966 90.475 128.583 90.4068C129.199 90.3387 129.768 90.0469 130.184 89.5868Z" fill="#A0616A"/>
<path d="M89.2077 55.1841C89.2205 55.3241 89.2222 55.4649 89.2128 55.6052L99.1974 63.2898L102.029 62.1271L104.342 66.1709L99.5295 68.7163C99.1408 68.922 98.6958 68.996 98.2614 68.9272C97.827 68.8584 97.4266 68.6505 97.1204 68.3348L87.1403 58.0457C86.612 58.1648 86.0599 58.1203 85.5576 57.9181C85.0552 57.7158 84.6263 57.3654 84.3279 56.9134C84.0296 56.4615 83.8759 55.9294 83.8873 55.388C83.8987 54.8465 84.0747 54.3214 84.3919 53.8824C84.709 53.4434 85.1523 53.1114 85.6627 52.9305C86.1732 52.7496 86.7266 52.7284 87.2494 52.8697C87.7722 53.011 88.2396 53.3082 88.5894 53.7216C88.9392 54.135 89.1549 54.6451 89.2077 55.1841Z" fill="#A0616A"/>
<path d="M112.534 129.607H109.66L108.293 120.865L112.535 120.865L112.534 129.607Z" fill="#A0616A"/>
<path d="M113.267 132.391L104 132.39V132.273C104 131.799 104.093 131.33 104.275 130.893C104.456 130.455 104.722 130.057 105.056 129.722C105.391 129.388 105.789 129.122 106.227 128.941C106.664 128.759 107.133 128.666 107.607 128.666L113.267 128.666L113.267 132.391Z" fill="#2F2E41"/>
<path d="M123.32 129.607H120.446L119.078 120.865L123.32 120.865L123.32 129.607Z" fill="#A0616A"/>
<path d="M124.052 132.391L114.785 132.39V132.273C114.785 131.799 114.878 131.33 115.06 130.893C115.241 130.455 115.507 130.057 115.842 129.722C116.177 129.388 116.574 129.122 117.012 128.941C117.45 128.759 117.919 128.666 118.392 128.666L124.053 128.666L124.052 132.391Z" fill="#2F2E41"/>
<path d="M109.065 127.877C108.803 127.878 108.55 127.78 108.356 127.603C108.162 127.427 108.041 127.184 108.016 126.923L105.512 93.2368L105.63 93.2272L122.866 91.8105L122.871 91.933L124.241 126.829C124.246 126.97 124.223 127.112 124.172 127.244C124.121 127.377 124.045 127.498 123.946 127.6C123.848 127.702 123.73 127.783 123.599 127.839C123.469 127.894 123.328 127.923 123.186 127.923H119.807C119.555 127.924 119.31 127.834 119.119 127.67C118.927 127.506 118.801 127.278 118.764 127.029L114.175 98.839C114.17 98.8099 114.155 98.7835 114.132 98.7652C114.109 98.7468 114.08 98.7378 114.051 98.74C114.021 98.7421 113.994 98.7552 113.974 98.7767C113.953 98.7982 113.942 98.8265 113.942 98.8559L113.734 126.689C113.732 126.958 113.627 127.216 113.441 127.41C113.256 127.604 113.003 127.72 112.734 127.735L109.122 127.876C109.103 127.877 109.084 127.877 109.065 127.877Z" fill="#2F2E41"/>
<path d="M112.006 50.6663C115.186 50.6663 117.764 48.0884 117.764 44.9083C117.764 41.7283 115.186 39.1504 112.006 39.1504C108.826 39.1504 106.248 41.7283 106.248 44.9083C106.248 48.0884 108.826 50.6663 112.006 50.6663Z" fill="#A0616A"/>
<path d="M113.121 95.3857C110.605 95.3782 108.1 95.0359 105.674 94.3678C105.44 94.2998 105.237 94.1534 105.099 93.9533C104.961 93.7532 104.896 93.5116 104.915 93.2691C105.69 81.6193 105.873 72.5787 104.243 66.3235C103.548 63.6575 103.863 60.8496 105.108 58.62C106.981 55.2645 110.424 53.2223 114.096 53.2928C114.272 53.2961 114.449 53.3024 114.628 53.3116C120.201 53.5985 124.544 58.6404 124.309 64.5508L123.188 92.7224C123.184 92.9279 123.119 93.1277 123.001 93.2964C122.884 93.4651 122.719 93.5953 122.528 93.6704C119.52 94.8017 116.334 95.3827 113.121 95.3857Z" fill="#3F3D56"/>
<path d="M105.19 68.4856L100.876 63.2004C100.754 63.05 100.665 62.875 100.616 62.6872C100.567 62.4993 100.559 62.3032 100.593 62.112C100.626 61.9209 100.701 61.7392 100.811 61.5795C100.921 61.4197 101.065 61.2856 101.231 61.1862L107.074 57.7048C107.847 57.0812 108.836 56.7895 109.823 56.8938C110.811 56.9981 111.717 57.4897 112.343 58.261C112.968 59.0323 113.263 60.0203 113.161 61.0082C113.059 61.9962 112.57 62.9035 111.8 63.5311L107.234 68.5417C107.103 68.6851 106.943 68.7987 106.764 68.8746C106.586 68.9506 106.393 68.9871 106.199 68.9818C106.005 68.9765 105.814 68.9294 105.64 68.8438C105.466 68.7582 105.312 68.636 105.19 68.4856Z" fill="#3F3D56"/>
<path d="M118.757 67.824C118.579 67.7447 118.421 67.6282 118.293 67.4823C118.165 67.3364 118.07 67.1646 118.015 66.9786L116.073 60.4835C115.652 59.5842 115.604 58.5543 115.941 57.6199C116.278 56.6855 116.971 55.9228 117.87 55.4991C118.768 55.0754 119.798 55.0252 120.733 55.3597C121.668 55.6941 122.433 56.3859 122.859 57.2831L126.613 62.9537C126.721 63.1156 126.792 63.2986 126.822 63.4904C126.852 63.6821 126.84 63.8781 126.787 64.065C126.735 64.2518 126.643 64.4252 126.517 64.5732C126.392 64.7212 126.236 64.8404 126.06 64.9227L119.881 67.8147C119.706 67.8971 119.514 67.9405 119.32 67.9421C119.126 67.9438 118.934 67.9035 118.757 67.824Z" fill="#3F3D56"/>
<path d="M114.851 49.6319L110.583 48.655C110.142 48.5542 109.613 48.3619 109.552 47.9144C109.47 47.3131 110.336 46.8942 110.256 46.2925C110.178 45.7097 109.39 45.6346 108.828 45.4626C108.304 45.279 107.873 44.8988 107.625 44.4026C107.377 43.9064 107.331 43.3331 107.498 42.8041C106.89 43.6612 105.5 43.7346 104.712 43.0402C103.923 42.3458 103.771 41.0859 104.245 40.1478C104.501 39.687 104.862 39.2931 105.299 38.9982C105.736 38.7032 106.236 38.5155 106.759 38.4504C107.811 38.3311 108.874 38.5293 109.812 39.0195C109.875 38.3553 110.704 38.086 111.371 38.0801C112.757 38.0962 114.104 38.544 115.223 39.3611C116.343 40.1782 117.179 41.324 117.617 42.639C118.436 45.2768 117.888 48.1684 115.598 49.7118L114.851 49.6319Z" fill="#2F2E41"/>
<path d="M157.841 132.455H68.5215C68.4594 132.455 68.3997 132.43 68.3558 132.387C68.3118 132.343 68.2871 132.283 68.2871 132.221C68.2871 132.159 68.3118 132.099 68.3558 132.055C68.3997 132.011 68.4594 131.986 68.5215 131.986H157.841C157.903 131.986 157.963 132.011 158.007 132.055C158.051 132.099 158.075 132.159 158.075 132.221C158.075 132.283 158.051 132.343 158.007 132.387C157.963 132.43 157.903 132.455 157.841 132.455Z" fill="#3F3D56"/>
</g>
<defs>
<clipPath id="clip0_4790_75347">
<rect width="200" height="132.455" fill="white"/>
</clipPath>
</defs>
</svg>
