<svg width="24" height="25" viewBox="0 0 24 25" fill="none" xmlns="http://www.w3.org/2000/svg">
<path d="M12.5303 17.531L20.0303 10.031C20.1 9.96136 20.1553 9.87863 20.193 9.78759C20.2307 9.69654 20.2501 9.59896 20.2501 9.50042C20.2501 9.40187 20.2307 9.30429 20.193 9.21324C20.1553 9.1222 20.1 9.03947 20.0303 8.96979C19.9606 8.90011 19.8779 8.84483 19.7869 8.80712C19.6958 8.76941 19.5982 8.75 19.4997 8.75C19.4011 8.75 19.3036 8.76941 19.2125 8.80712C19.1215 8.84483 19.0387 8.90011 18.9691 8.96979L11.9997 15.9401L5.03031 8.96979C4.88958 8.82906 4.69871 8.75 4.49968 8.75C4.30066 8.75 4.10979 8.82906 3.96906 8.96979C3.82833 9.11052 3.74927 9.30139 3.74927 9.50042C3.74927 9.69944 3.82833 9.89031 3.96906 10.031L11.4691 17.531C11.5387 17.6008 11.6214 17.6561 11.7125 17.6938C11.8035 17.7316 11.9011 17.751 11.9997 17.751C12.0982 17.751 12.1958 17.7316 12.2869 17.6938C12.3779 17.6561 12.4607 17.6008 12.5303 17.531Z" fill="#013974"/>
</svg>
