<svg width="218" height="218" viewBox="0 0 218 218" fill="none" xmlns="http://www.w3.org/2000/svg">
<path d="M218 166.727H0V166.836H218V166.727Z" fill="#EBEBEB"/>
<path d="M196.156 170.878H156.524V170.987H196.156V170.878Z" fill="#EBEBEB"/>
<path d="M144.412 169.696H133.56V169.805H144.412V169.696Z" fill="#EBEBEB"/>
<path d="M169.216 174.928H152.391V175.037H169.216V174.928Z" fill="#EBEBEB"/>
<path d="M32.7436 174.195H22.8726V174.304H32.7436V174.195Z" fill="#EBEBEB"/>
<path d="M48.3481 174.195H36.624V174.304H48.3481V174.195Z" fill="#EBEBEB"/>
<path d="M98.1654 172.355H77.7432V172.464H98.1654V172.355Z" fill="#EBEBEB"/>
<path d="M103.332 147.281H19.1447C18.4852 147.28 17.8531 147.017 17.3872 146.551C16.9212 146.084 16.6595 145.451 16.6595 144.792V26.4482C16.6653 25.7925 16.9295 25.1655 17.3948 24.7035C17.8602 24.2414 18.489 23.9816 19.1447 23.9805H103.332C103.992 23.9805 104.625 24.2428 105.092 24.7096C105.559 25.1765 105.822 25.8098 105.822 26.47V144.792C105.822 145.452 105.559 146.085 105.092 146.552C104.625 147.019 103.992 147.281 103.332 147.281ZM19.1447 24.0677C18.5141 24.0688 17.9098 24.3201 17.4643 24.7665C17.0188 25.2128 16.7685 25.8176 16.7685 26.4482V144.792C16.7685 145.422 17.0188 146.027 17.4643 146.473C17.9098 146.92 18.5141 147.171 19.1447 147.172H103.332C103.963 147.171 104.568 146.92 105.014 146.474C105.46 146.028 105.711 145.423 105.713 144.792V26.4482C105.711 25.8172 105.46 25.2124 105.014 24.7662C104.568 24.32 103.963 24.0688 103.332 24.0677H19.1447Z" fill="#EBEBEB"/>
<path d="M197.643 147.281H113.452C112.792 147.28 112.159 147.017 111.692 146.551C111.226 146.084 110.963 145.452 110.962 144.792V26.4482C110.969 25.7921 111.234 25.1651 111.7 24.7032C112.166 24.2412 112.795 23.9816 113.452 23.9805H197.643C198.298 23.9827 198.926 24.243 199.39 24.705C199.855 25.1669 200.118 25.7932 200.124 26.4482V144.792C200.124 145.45 199.863 146.082 199.398 146.549C198.933 147.016 198.302 147.279 197.643 147.281ZM113.452 24.0677C112.821 24.0688 112.216 24.32 111.77 24.7662C111.323 25.2124 111.072 25.8172 111.071 26.4482V144.792C111.072 145.423 111.323 146.028 111.77 146.474C112.216 146.92 112.821 147.171 113.452 147.172H197.643C198.274 147.171 198.879 146.92 199.325 146.474C199.771 146.028 200.023 145.423 200.024 144.792V26.4482C200.023 25.8172 199.771 25.2124 199.325 24.7662C198.879 24.32 198.274 24.0688 197.643 24.0677H113.452Z" fill="#EBEBEB"/>
<path d="M22.8682 166.723H74.9963L74.9963 51.4399H22.8682L22.8682 166.723Z" fill="#F0F0F0"/>
<path d="M22.8725 166.723H72.5286L72.5286 51.4399H22.8725L22.8725 166.723Z" fill="#F5F5F5"/>
<path d="M69.9126 164.111V54.0605H25.4886L25.4886 164.111H69.9126Z" fill="#F0F0F0"/>
<path d="M39.8417 105.948H30.7859C30.4776 105.947 30.1821 105.824 29.9641 105.606C29.746 105.388 29.623 105.093 29.6218 104.784C29.623 104.476 29.746 104.18 29.9641 103.962C30.1821 103.744 30.4776 103.621 30.7859 103.62H39.8417C40.1501 103.621 40.4455 103.744 40.6636 103.962C40.8816 104.18 41.0046 104.476 41.0058 104.784C41.0046 105.093 40.8816 105.388 40.6636 105.606C40.4455 105.824 40.1501 105.947 39.8417 105.948Z" fill="white"/>
<path d="M26.1687 164.111L26.1687 54.0605H25.4885L25.4885 164.111H26.1687Z" fill="#F0F0F0"/>
<path d="M99.4211 164.538H107.182V130.879H99.4211V164.538Z" fill="#F0F0F0"/>
<path d="M67.4187 166.675H105.691V164.543H67.4187V166.675Z" fill="#F0F0F0"/>
<path d="M99.4211 130.884H65.9276V164.543H99.4211V130.884Z" fill="#F5F5F5"/>
<path d="M96.3647 135.025H68.9752V146.065H96.3647V135.025Z" fill="#F0F0F0"/>
<path d="M96.3647 149.356H68.9752V160.396H96.3647V149.356Z" fill="#F0F0F0"/>
<path d="M79.5962 135.954H85.7482C85.9479 135.953 86.139 135.873 86.2803 135.732C86.4215 135.591 86.5013 135.4 86.5024 135.2C86.5024 135 86.4231 134.807 86.2818 134.665C86.1405 134.523 85.9486 134.443 85.7482 134.441H79.5962C79.3957 134.443 79.2039 134.523 79.0626 134.665C78.9212 134.807 78.8419 135 78.8419 135.2C78.8431 135.4 78.9229 135.591 79.0641 135.732C79.2053 135.873 79.3965 135.953 79.5962 135.954Z" fill="#F5F5F5"/>
<path d="M79.5962 150.289H85.7482C85.9456 150.288 86.1349 150.21 86.2757 150.072C86.4166 149.934 86.4979 149.746 86.5024 149.548C86.5013 149.349 86.4215 149.157 86.2803 149.016C86.139 148.875 85.9479 148.795 85.7482 148.794H79.5962C79.3965 148.795 79.2053 148.875 79.0641 149.016C78.9229 149.157 78.8431 149.349 78.8419 149.548C78.8465 149.746 78.9278 149.934 79.0686 150.072C79.2095 150.21 79.3987 150.288 79.5962 150.289Z" fill="#F5F5F5"/>
<path d="M85.2249 130.221C85.0727 130.22 84.9269 130.159 84.8192 130.051C84.7116 129.944 84.6506 129.798 84.6494 129.646V112.158C84.6494 112.005 84.7101 111.859 84.818 111.751C84.9259 111.643 85.0723 111.582 85.2249 111.582C85.3772 111.583 85.5229 111.644 85.6306 111.752C85.7383 111.86 85.7993 112.005 85.8005 112.158V129.646C85.7993 129.798 85.7383 129.944 85.6306 130.051C85.5229 130.159 85.3772 130.22 85.2249 130.221Z" fill="#F5F5F5"/>
<path d="M90.6095 129.54H79.8403V130.896H90.6095V129.54Z" fill="#F0F0F0"/>
<path d="M88.2072 119.757C88.1316 119.757 88.0591 119.727 88.0052 119.674C87.9514 119.621 87.9206 119.549 87.9194 119.474V110.745C87.9206 110.669 87.9512 110.596 88.005 110.543C88.0587 110.489 88.1312 110.458 88.2072 110.457C88.2832 110.458 88.3557 110.489 88.4094 110.543C88.4632 110.596 88.4938 110.669 88.495 110.745V119.465C88.4955 119.503 88.4885 119.541 88.4743 119.576C88.4601 119.612 88.439 119.644 88.4122 119.671C88.3855 119.698 88.3535 119.72 88.3183 119.735C88.2831 119.749 88.2454 119.757 88.2072 119.757Z" fill="#F0F0F0"/>
<path d="M76.8494 113.753C76.8494 113.753 77.063 105.513 85.2249 105.513C93.3868 105.513 93.5961 113.744 93.5961 113.744L76.8494 113.753Z" fill="#F0F0F0"/>
<path d="M147.503 125.395C147.734 125.395 147.97 125.395 148.205 125.416C150.617 125.591 152.884 126.63 154.59 128.344C156.296 130.058 157.325 132.33 157.488 134.742C157.556 135.838 157.448 136.938 157.165 137.999C156.072 142.256 155.544 146.637 155.595 151.031V163.824C155.596 164.045 155.553 164.265 155.468 164.469C155.383 164.674 155.259 164.86 155.102 165.016C154.945 165.173 154.759 165.297 154.554 165.381C154.349 165.465 154.13 165.508 153.908 165.507H113.303V125.395H147.503Z" fill="#F0F0F0"/>
<path d="M103.297 135.4C103.301 133.978 103.609 132.573 104.199 131.279C104.79 129.985 105.649 128.832 106.721 127.896C107.792 126.961 109.051 126.265 110.413 125.854C111.774 125.444 113.208 125.328 114.618 125.516C116.028 125.704 117.381 126.19 118.589 126.942C119.796 127.694 120.829 128.695 121.618 129.878C122.408 131.061 122.936 132.399 123.167 133.802C123.399 135.206 123.328 136.642 122.961 138.016C121.871 142.273 121.345 146.655 121.395 151.048V163.841C121.395 164.061 121.352 164.28 121.267 164.484C121.183 164.688 121.059 164.873 120.902 165.029C120.746 165.185 120.56 165.309 120.356 165.393C120.152 165.477 119.933 165.52 119.713 165.519H106.89C106.669 165.519 106.451 165.476 106.247 165.391C106.044 165.307 105.859 165.183 105.703 165.028C105.547 164.872 105.423 164.687 105.339 164.483C105.255 164.279 105.211 164.061 105.211 163.841V150.281C105.248 146.16 104.726 142.053 103.659 138.073C103.419 137.202 103.297 136.303 103.297 135.4Z" fill="#F5F5F5"/>
<path d="M127.09 165.506H163.544V141.151H127.09V165.506Z" fill="#F0F0F0"/>
<path d="M193.671 146.662H144.878V109.31C144.878 107.303 145.676 105.377 147.095 103.958C148.515 102.538 150.44 101.741 152.447 101.741H186.102C188.11 101.741 190.035 102.538 191.454 103.958C192.874 105.377 193.671 107.303 193.671 109.31V146.662Z" fill="#E0E0E0"/>
<path d="M184.136 146.662H135.343V108.944C135.343 107.032 136.102 105.199 137.454 103.848C138.806 102.496 140.639 101.737 142.55 101.737H176.911C178.823 101.737 180.656 102.496 182.008 103.848C183.359 105.199 184.118 107.032 184.118 108.944V146.662H184.136Z" fill="#F5F5F5"/>
<path d="M161.163 148.847H127.561C126.982 148.847 126.428 148.617 126.019 148.208C125.61 147.799 125.381 147.245 125.381 146.667V141.143C125.381 140.564 125.61 140.01 126.019 139.601C126.428 139.192 126.982 138.963 127.561 138.963H161.163C161.338 138.963 161.505 139.032 161.629 139.155C161.752 139.279 161.821 139.446 161.821 139.621V148.193C161.82 148.367 161.75 148.533 161.627 148.655C161.504 148.778 161.337 148.847 161.163 148.847Z" fill="#E0E0E0"/>
<path d="M197.268 125.395C197.499 125.395 197.73 125.395 197.97 125.416C200.381 125.592 202.647 126.632 204.352 128.345C206.057 130.059 207.085 132.331 207.248 134.742C207.321 135.838 207.212 136.939 206.926 137.999C205.832 142.257 205.304 146.64 205.356 151.036V163.828C205.356 164.049 205.312 164.267 205.228 164.471C205.143 164.675 205.019 164.86 204.863 165.016C204.706 165.172 204.521 165.296 204.317 165.38C204.113 165.464 203.894 165.507 203.673 165.507H163.064V125.395H197.268Z" fill="#F0F0F0"/>
<path d="M153.062 135.4C153.045 132.793 154.046 130.281 155.853 128.401C157.66 126.521 160.13 125.422 162.737 125.336C165.343 125.251 167.879 126.187 169.806 127.945C171.732 129.703 172.895 132.143 173.048 134.746C173.117 135.842 173.008 136.942 172.726 138.003C171.633 142.26 171.105 146.641 171.156 151.035V163.828C171.156 164.273 170.979 164.7 170.664 165.015C170.35 165.329 169.923 165.506 169.478 165.506H156.65C156.43 165.506 156.212 165.463 156.008 165.378C155.804 165.294 155.619 165.17 155.463 165.015C155.308 164.859 155.184 164.674 155.1 164.47C155.015 164.266 154.972 164.048 154.972 163.828V150.281C155.008 146.161 154.488 142.054 153.424 138.073C153.184 137.203 153.062 136.303 153.062 135.4Z" fill="#F5F5F5"/>
<path d="M114.014 166.727H196.553C196.713 166.727 196.872 166.695 197.02 166.634C197.168 166.572 197.302 166.482 197.415 166.369C197.528 166.255 197.617 166.121 197.678 165.973C197.739 165.825 197.77 165.666 197.77 165.506H112.798C112.797 165.666 112.828 165.825 112.889 165.973C112.95 166.121 113.039 166.255 113.152 166.369C113.265 166.482 113.4 166.572 113.548 166.634C113.695 166.695 113.854 166.727 114.014 166.727Z" fill="#E0E0E0"/>
<path d="M162.898 73.1914H189.446V44.2366H162.898V73.1914Z" fill="#E0E0E0"/>
<path d="M161.316 73.1914H188.552V44.2366H161.316V73.1914Z" fill="#F5F5F5"/>
<path d="M186.268 70.9118V46.5176H163.592V70.9118H186.268Z" fill="white"/>
<path d="M174.932 52.5469L181.132 63.2899H168.732L174.932 52.5469Z" fill="#F5F5F5"/>
<path d="M125.655 90.0957H152.203V61.1409H125.655V90.0957Z" fill="#E0E0E0"/>
<path d="M124.073 90.0957H151.309V61.1409H124.073V90.0957Z" fill="#F5F5F5"/>
<path d="M149.025 87.8151V63.4209H126.348V87.8151H149.025Z" fill="white"/>
<path d="M134.916 79.9676L132.226 75.3067C131.946 74.8202 131.799 74.2687 131.799 73.7075C131.8 73.1462 131.948 72.595 132.229 72.1091C132.51 71.6233 132.914 71.2198 133.4 70.9393C133.886 70.6587 134.437 70.5109 134.999 70.5107H140.392C140.953 70.5115 141.504 70.6595 141.99 70.9401C142.476 71.2206 142.88 71.6239 143.161 72.1094C143.442 72.595 143.591 73.1459 143.592 73.707C143.594 74.2681 143.448 74.8197 143.169 75.3067L140.479 79.9676C140.199 80.4578 139.794 80.8652 139.305 81.1485C138.817 81.4318 138.262 81.581 137.697 81.581C137.133 81.581 136.578 81.4318 136.09 81.1485C135.601 80.8652 135.196 80.4578 134.916 79.9676Z" fill="#F5F5F5"/>
<path d="M109 186.416C155.688 186.416 193.536 184.206 193.536 181.48C193.536 178.755 155.688 176.545 109 176.545C62.3121 176.545 24.464 178.755 24.464 181.48C24.464 184.206 62.3121 186.416 109 186.416Z" fill="#F5F5F5"/>
<path d="M137.994 43.2949H37.4873L44.1014 180.173H144.608L137.994 43.2949Z" fill="#407BFF"/>
<path opacity="0.2" d="M137.994 43.2949H37.4873L44.1014 180.173H144.608L137.994 43.2949Z" fill="black"/>
<path d="M138.923 43.2949H38.416L45.0345 180.173H145.541L138.923 43.2949Z" fill="#407BFF"/>
<path opacity="0.2" d="M133.617 47.8984H43.0115L49.3422 173.985L128.127 173.881L141.22 162.274L133.617 47.8984Z" fill="black"/>
<path d="M134.31 47.8945C135.276 85.6549 138.325 123.333 143.444 160.757C136.265 165.699 129.121 170.64 122.015 175.581H54.2516C47.8556 133.294 44.1016 90.649 43.0115 47.8945H134.31Z" fill="white"/>
<path d="M143.444 160.758C136.265 165.699 129.121 170.641 122.015 175.582C123.567 169.042 125.184 162.502 126.867 155.962L143.444 160.758Z" fill="#EBEBEB"/>
<path d="M67.58 59.4313C67.7515 64.0471 67.952 68.6658 68.1817 73.2874H54.3299C54.0974 68.6658 53.8968 64.0471 53.7283 59.4313H67.58ZM68.9926 57.9707H52.2153C52.4101 63.5602 52.6528 69.1526 52.9435 74.748H69.7251C69.4344 69.1556 69.1917 63.5631 68.997 57.9707H68.9926Z" fill="#407BFF"/>
<path d="M124.181 64.6324H76.736C76.6924 63.5904 76.6531 62.544 76.6139 61.502H124.055C124.094 62.544 124.138 63.5904 124.181 64.6324Z" fill="#E0E0E0"/>
<path d="M114.158 71.2164H77.0282C76.9802 70.17 76.9279 69.128 76.8843 68.0859H114.01C114.059 69.1294 114.108 70.1729 114.158 71.2164Z" fill="#E0E0E0"/>
<path d="M68.9403 86.568C69.231 91.1896 69.5551 95.8112 69.9126 100.433H56.0565C55.699 95.8112 55.3749 91.1896 55.0843 86.568H68.9403ZM70.3094 85.1074H53.5321C53.8751 90.7028 54.266 96.2981 54.7049 101.893H71.504C71.068 96.301 70.6756 90.7057 70.3268 85.1074H70.3094Z" fill="#407BFF"/>
<path d="M95.6584 91.7735H78.2184C78.1487 90.7271 78.0746 89.6851 78.0092 88.6387H95.4492C95.5146 89.6851 95.5843 90.7271 95.6584 91.7735Z" fill="#E0E0E0"/>
<path d="M112.17 91.7735H99.347C99.2772 90.7271 99.2031 89.6851 99.1377 88.6387H111.96C112.026 89.6851 112.096 90.7271 112.17 91.7735Z" fill="#E0E0E0"/>
<path d="M120.218 98.3614H78.698C78.6195 97.315 78.5454 96.273 78.4669 95.2266H119.987C120.066 96.273 120.14 97.315 120.218 98.3614Z" fill="#E0E0E0"/>
<path d="M71.0201 113.717C71.4358 118.339 71.8834 122.961 72.363 127.582H58.5069C58.0273 122.961 57.5797 118.339 57.164 113.717H71.0201ZM72.3543 112.257H55.5726C56.0668 117.855 56.6074 123.452 57.1945 129.047H73.9762C73.3949 123.449 72.8542 117.852 72.3543 112.257Z" fill="#407BFF"/>
<path d="M128.228 122.381H80.7777L81.0916 125.511H128.542L128.228 122.381Z" fill="#E0E0E0"/>
<path d="M117.284 115.793H80.1543C80.2502 116.835 80.3461 117.881 80.4464 118.923H117.572C117.476 117.881 117.376 116.848 117.284 115.793Z" fill="#E0E0E0"/>
<path d="M73.8235 140.867C74.3642 145.488 74.9353 150.109 75.537 154.727H61.6809C61.0792 150.112 60.5081 145.491 59.9674 140.867H73.8235ZM75.1315 139.406H58.3368C58.9763 145.004 59.6666 150.598 60.4078 156.188H77.172C76.4366 150.598 75.7463 145.004 75.101 139.406H75.1315Z" fill="#407BFF"/>
<path d="M130.839 146.06H83.3894C83.2629 145.013 83.1365 143.971 83.0144 142.925H130.46C130.586 143.984 130.708 145.026 130.839 146.06Z" fill="#E0E0E0"/>
<path d="M105.813 152.657H84.2134C84.0782 151.615 83.9475 150.568 83.8167 149.526H105.416C105.547 150.568 105.678 151.615 105.813 152.657Z" fill="#E0E0E0"/>
<path d="M118.71 152.657H109.384C109.249 151.615 109.118 150.568 108.987 149.526H118.313C118.444 150.568 118.592 151.615 118.71 152.657Z" fill="#E0E0E0"/>
<path d="M61.4761 71.3077L60.8613 70.331C59.5184 68.1946 56.7803 66.2893 55.8342 65.7312L56.5405 64.4799C58.3967 65.6071 60.0553 67.0314 61.4499 68.696C63.5602 65.8228 66.6819 62.8536 70.9547 59.6621L71.8572 60.8393C67.2967 64.2532 64.1052 67.3793 62.0908 70.3877L61.4761 71.3077Z" fill="#407BFF"/>
<path d="M63.1328 98.4531L62.4918 97.4765C61.0966 95.3401 58.3062 93.4304 57.347 92.8723L58.0141 91.621C59.9057 92.7486 61.6032 94.1737 63.0412 95.8415C65.073 92.9639 68.1119 89.9947 72.3018 86.7988C72.6114 87.1912 72.9253 87.5836 73.2349 87.9804C68.7659 91.3986 65.6572 94.5204 63.7257 97.5331C63.5252 97.8383 63.329 98.1479 63.1328 98.4531Z" fill="#407BFF"/>
<path d="M65.5395 125.673L64.8724 124.696C63.4162 122.56 60.5735 120.65 59.6012 120.096C59.8105 119.66 60.0372 119.259 60.2378 118.845C62.1588 119.974 63.8917 121.397 65.3738 123.061C67.3315 120.184 70.2919 117.219 74.3903 114.019L75.3582 115.2C70.9982 118.618 67.9462 121.74 66.102 124.753L65.5395 125.673Z" fill="#407BFF"/>
<path d="M109.493 168.06C106.92 168.06 105.438 167.11 104.13 166.273C102.822 165.435 101.697 164.712 99.5257 164.712C97.3545 164.712 96.3866 165.47 95.3619 166.273C94.3373 167.075 93.0817 168.06 90.5093 168.06C87.9369 168.06 86.4545 167.11 85.1508 166.273C83.8472 165.435 82.7223 164.712 80.5467 164.712C78.371 164.712 77.4075 165.47 76.3829 166.273C75.3583 167.075 74.1026 168.06 71.5346 168.06C68.9665 168.06 67.4798 167.11 66.1718 166.273C64.8638 165.435 63.7432 164.712 61.5676 164.712C61.5109 164.276 61.4499 163.875 61.3932 163.456C63.9656 163.456 65.4436 164.407 66.7516 165.244C68.0596 166.081 69.1801 166.805 71.3514 166.805C73.5227 166.805 74.4906 166.046 75.5152 165.244C76.5398 164.441 77.7999 163.456 80.3723 163.456C82.9447 163.456 84.4183 164.407 85.7263 165.244C87.0343 166.081 88.1592 166.805 90.3305 166.805C92.5018 166.805 93.4697 166.046 94.4943 165.244C95.5189 164.441 96.7789 163.456 99.3513 163.456C101.924 163.456 103.402 164.407 104.71 165.244C106.018 166.081 107.138 166.805 109.314 166.805C109.371 167.223 109.436 167.642 109.493 168.06Z" fill="#EBEBEB"/>
<path d="M113.181 46.6825C111.708 42.7585 108.302 40.1817 104.64 40.1817H97.1757C96.62 40.1769 96.078 40.009 95.6168 39.699C95.1557 39.389 94.7957 38.9504 94.5814 38.4377C94.0538 37.1845 93.1714 36.1129 92.0428 35.3546C90.9142 34.5962 89.5886 34.1842 88.2289 34.1693C86.9136 34.1559 85.6284 34.5627 84.5604 35.3304C83.4923 36.0982 82.6971 37.1867 82.2906 38.4377C82.125 38.9495 81.7999 39.3949 81.3629 39.7088C80.926 40.0226 80.4 40.1883 79.8621 40.1817H72.4021C68.7354 40.1817 65.5787 42.7715 64.4887 46.6825L64.0527 48.239H113.757L113.181 46.6825Z" fill="#263238"/>
<path d="M113.447 49.7741H64.5281C64.1155 49.7693 63.7201 49.6083 63.4215 49.3235C63.123 49.0387 62.9435 48.6513 62.9192 48.2394C62.9085 48.0415 62.9384 47.8435 63.0071 47.6576C63.0758 47.4717 63.1819 47.3018 63.3187 47.1585C63.4555 47.0151 63.6203 46.9012 63.8028 46.8239C63.9853 46.7467 64.1817 46.7075 64.3798 46.709H113.299C113.711 46.7138 114.106 46.8742 114.404 47.1581C114.703 47.442 114.883 47.8283 114.908 48.2394C114.919 48.4376 114.89 48.6361 114.821 48.8225C114.753 49.0089 114.647 49.1793 114.51 49.3232C114.373 49.467 114.208 49.5813 114.025 49.6588C113.843 49.7364 113.646 49.7756 113.447 49.7741Z" fill="#407BFF"/>
<path opacity="0.2" d="M113.447 49.7741H64.5281C64.1155 49.7693 63.7201 49.6083 63.4215 49.3235C63.123 49.0387 62.9435 48.6513 62.9192 48.2394C62.9085 48.0415 62.9384 47.8435 63.0071 47.6576C63.0758 47.4717 63.1819 47.3018 63.3187 47.1585C63.4555 47.0151 63.6203 46.9012 63.8028 46.8239C63.9853 46.7467 64.1817 46.7075 64.3798 46.709H113.299C113.711 46.7138 114.106 46.8742 114.404 47.1581C114.703 47.442 114.883 47.8283 114.908 48.2394C114.919 48.4376 114.89 48.6361 114.821 48.8225C114.753 49.0089 114.647 49.1793 114.51 49.3232C114.373 49.467 114.208 49.5813 114.025 49.6588C113.843 49.7364 113.646 49.7756 113.447 49.7741Z" fill="black"/>
<path d="M157.361 178.86H154.165L153.847 171.461H157.043L157.361 178.86Z" fill="#FFC3BD"/>
<path d="M176.541 178.86H173.345L171.74 171.461H174.932L176.541 178.86Z" fill="#FFC3BD"/>
<path d="M173.118 178.489H176.706C176.77 178.489 176.831 178.51 176.88 178.55C176.93 178.59 176.964 178.645 176.977 178.707L177.609 181.55C177.623 181.619 177.622 181.69 177.605 181.759C177.588 181.827 177.556 181.891 177.512 181.945C177.467 182 177.41 182.043 177.347 182.073C177.283 182.103 177.213 182.118 177.142 182.117C175.891 182.095 175.281 182.021 173.702 182.021C172.73 182.021 170.729 182.121 169.39 182.121C168.052 182.121 167.873 180.813 168.422 180.678C170.886 180.137 171.81 179.396 172.599 178.685C172.743 178.559 172.927 178.489 173.118 178.489Z" fill="#263238"/>
<path d="M154.187 178.489H157.675C157.738 178.489 157.8 178.51 157.849 178.55C157.898 178.59 157.932 178.645 157.945 178.707L158.578 181.55C158.593 181.617 158.594 181.686 158.579 181.753C158.565 181.82 158.535 181.882 158.494 181.937C158.452 181.991 158.399 182.035 158.338 182.066C158.277 182.097 158.21 182.115 158.142 182.117C156.882 182.095 155.063 182.021 153.481 182.021C151.632 182.021 150.036 182.121 147.865 182.121C146.557 182.121 146.191 180.813 146.74 180.678C149.238 180.129 151.279 180.072 153.437 178.738C153.66 178.589 153.919 178.504 154.187 178.489Z" fill="#263238"/>
<path d="M160.448 62.3135C160.012 64.6504 159.759 67.5455 161.394 69.1064C161.394 69.1064 160.457 71.4782 156.114 71.4782C152.147 71.4782 154.135 69.1064 154.135 69.1064C156.751 68.4829 156.602 65.2608 156.149 63.4384L160.448 62.3135Z" fill="#FFC3BD"/>
<path d="M152.888 69.4326C152.975 68.8528 153.995 68.177 155.155 67.9241C156.315 67.6712 160.771 67.1088 162.131 67.6712C163.491 68.2336 161.895 69.8992 161.895 69.8992L152.888 69.4326Z" fill="#407BFF"/>
<path opacity="0.4" d="M152.888 69.4326C152.975 68.8528 153.995 68.177 155.155 67.9241C156.315 67.6712 160.771 67.1088 162.131 67.6712C163.491 68.2336 161.895 69.8992 161.895 69.8992L152.888 69.4326Z" fill="white"/>
<path opacity="0.2" d="M153.847 171.466L154.013 175.276H157.208L157.043 171.466H153.847Z" fill="black"/>
<path opacity="0.2" d="M174.936 171.466H171.74L172.569 175.276H175.765L174.936 171.466Z" fill="black"/>
<path d="M168.013 71.9834L164.163 74.5558C164.163 74.5558 169.691 84.3876 169.229 85.9616C168.597 88.1067 167.716 92.7937 166.517 95.1742C166.674 95.6887 167.472 96.8616 167.917 97.0621C170.969 94.7426 174.051 87.4701 173.938 85.434C173.672 80.8168 168.013 71.9834 168.013 71.9834Z" fill="#FFC3BD"/>
<path d="M166.517 95.1827L163.465 94.9473L165.065 98.3088C165.065 98.3088 167.729 98.4265 168.174 96.3904L166.517 95.1827Z" fill="#B55B52"/>
<path d="M181.603 111.577L181.345 112.061L179.619 115.326L118.326 82.9185L120.305 79.1689L181.603 111.577Z" fill="#407BFF"/>
<path d="M185.566 104.09L184.302 106.48L183.587 107.831L122.289 75.4234L124.269 71.6738L185.566 104.09Z" fill="#407BFF"/>
<path d="M122.31 75.4123L120.326 79.1572L181.598 111.613L183.582 107.868L122.31 75.4123Z" fill="#407BFF"/>
<path opacity="0.2" d="M122.31 75.4123L120.326 79.1572L181.598 111.613L183.582 107.868L122.31 75.4123Z" fill="black"/>
<path d="M115.684 72.1714L113.901 75.546L118.326 82.9188L124.269 71.6787L115.684 72.1714Z" fill="#407BFF"/>
<path opacity="0.8" d="M115.684 72.1714L113.901 75.546L118.326 82.9188L124.269 71.6787L115.684 72.1714Z" fill="white"/>
<path d="M112.004 72.3845L113.901 75.5455L115.684 72.1709L112.004 72.3845Z" fill="#407BFF"/>
<path d="M161.01 96.4776L162.606 99.4511L165.078 98.3088L163.478 94.9473L161.01 96.4776Z" fill="#B55B52"/>
<path d="M167.097 69.83C170.119 70.266 173.58 80.73 173.58 80.73L167.232 84.3139C167.232 84.3139 164.437 79.3522 163.064 75.6462C161.617 71.7702 163.858 69.3591 167.097 69.83Z" fill="#263238"/>
<path opacity="0.2" d="M165.34 73.4178C163.966 72.1621 164.808 77.538 165.462 80.978C165.798 81.6495 166.116 82.2599 166.386 82.77C167.917 80.0668 167.232 75.1487 165.34 73.4178Z" fill="black"/>
<path d="M149.203 69.9951C149.203 69.9951 145.432 79.6395 149.012 97.6027H166.116C166.234 94.9867 164.586 82.1857 167.114 69.8295C165.225 69.4647 163.314 69.223 161.394 69.1057C158.976 68.9661 156.552 68.9661 154.135 69.1057C152.47 69.2721 150.821 69.5695 149.203 69.9951Z" fill="#263238"/>
<path d="M151.833 74.4772L147.525 72.7725C147.525 72.7725 142.563 82.9007 140.985 83.4109C138.862 84.1085 134.502 86.0269 131.859 86.4018C131.528 86.8378 131.014 88.1458 131.096 88.6254C134.737 89.8157 142.485 88.2374 144.089 86.9904C147.769 84.1477 151.833 74.4772 151.833 74.4772Z" fill="#FFC3BD"/>
<path opacity="0.2" d="M152.317 73.326C151.606 71.6866 150.246 71.0021 148.829 71.2419C148.279 73.2519 147.351 77.6685 147.521 84.3219L148.536 84.8102C148.536 84.8102 153.533 76.1295 152.317 73.326Z" fill="black"/>
<path d="M152.997 72.1798C154.069 75.04 148.637 83.4548 148.637 83.4548L142.245 79.9668C143.205 77.3495 144.443 74.8428 145.938 72.4894C148.183 69.1366 151.815 69.045 152.997 72.1798Z" fill="#263238"/>
<path d="M132.016 86.3936L128.214 87.2002L130.142 90.7187C131.204 90.1901 132.17 89.4854 132.997 88.6346L132.016 86.3936Z" fill="#FFC3BD"/>
<path d="M126.418 87.9982L127.935 90.0997L130.142 90.7363L128.215 87.2178L126.418 87.9982Z" fill="#FFC3BD"/>
<path d="M153.202 58.9517C153.202 59.209 153.04 59.3877 152.87 59.3877C152.7 59.3877 152.578 59.161 152.596 58.9038C152.613 58.6465 152.757 58.4678 152.927 58.4678C153.097 58.4678 153.219 58.6945 153.202 58.9517Z" fill="#263238"/>
<path d="M153.428 58.9736C153.076 59.7418 152.62 60.4578 152.072 61.1013C152.241 61.2375 152.437 61.335 152.647 61.387C152.857 61.439 153.076 61.4442 153.289 61.4022L153.428 58.9736Z" fill="#ED847E"/>
<path d="M152.875 58.0618C152.851 58.0569 152.829 58.0481 152.809 58.0356C152.792 58.025 152.778 58.0111 152.766 57.9947C152.755 57.9784 152.747 57.9598 152.743 57.9403C152.739 57.9207 152.739 57.9006 152.743 57.881C152.747 57.8614 152.754 57.8428 152.766 57.8264C152.892 57.6222 153.065 57.4509 153.27 57.3266C153.476 57.2023 153.708 57.1285 153.947 57.1113C153.987 57.1134 154.025 57.1302 154.053 57.1584C154.081 57.1865 154.098 57.2241 154.1 57.2639C154.1 57.3044 154.084 57.3432 154.055 57.3718C154.026 57.4005 153.988 57.4165 153.947 57.4165C153.761 57.4339 153.582 57.4946 153.424 57.5938C153.265 57.693 153.133 57.8279 153.036 57.9877C153.02 58.0153 152.996 58.0373 152.967 58.0506C152.938 58.0639 152.906 58.0678 152.875 58.0618Z" fill="#263238"/>
<path d="M161.869 58.7293C161.494 61.8772 161.433 63.7345 159.746 65.2693C157.204 67.5713 153.389 65.9015 152.814 62.7012C152.299 59.8236 153.001 55.1628 156.166 54.0815C156.863 53.8405 157.61 53.7815 158.335 53.9101C159.061 54.0387 159.742 54.3506 160.313 54.8162C160.884 55.2818 161.327 55.8857 161.6 56.5705C161.872 57.2554 161.965 57.9984 161.869 58.7293Z" fill="#FFC3BD"/>
<path d="M155.526 59.3439C154.422 59.5619 152.661 57.1116 154.1 55.0318C153.372 54.67 150.996 56.1 150.102 54.7659C149.208 53.4317 151.689 52.721 151.214 51.5918C152.896 51.9362 150.124 54.0378 151.724 53.8328C153.324 53.6279 155.168 50.6718 156.956 51.8839C160.117 54.0072 164.424 50.4669 162.667 54.901C164.821 54.465 166.295 57.0113 164.241 58.7771C160.147 62.2869 162.667 62.749 160.073 62.9278C158.774 63.0237 155.752 61.4759 155.526 59.3439Z" fill="#263238"/>
<path d="M157.161 60.1677C157.01 60.4824 156.797 60.7637 156.536 60.9951C156.275 61.2265 155.97 61.4032 155.639 61.5149C154.767 61.8157 154.266 61.0353 154.47 60.1764C154.654 59.4003 155.342 58.3103 156.245 58.3888C156.443 58.4081 156.633 58.4768 156.798 58.5886C156.962 58.7004 157.097 58.8517 157.188 59.0287C157.279 59.2057 157.324 59.4026 157.319 59.6016C157.314 59.8006 157.26 59.9952 157.161 60.1677Z" fill="#FFC3BD"/>
<path d="M155.072 97.6025C155.072 97.6025 158.7 122.019 160.688 131.175C162.868 141.203 171.078 174.552 171.078 174.552H176.929C176.929 174.552 171.518 142 170.271 132.081C168.924 121.321 166.099 97.6156 166.099 97.6156L155.072 97.6025Z" fill="#407BFF"/>
<path opacity="0.2" d="M155.072 97.6025C155.072 97.6025 158.7 122.019 160.688 131.175C162.868 141.203 171.078 174.552 171.078 174.552H176.929C176.929 174.552 171.518 142 170.271 132.081C168.924 121.321 166.099 97.6156 166.099 97.6156L155.072 97.6025Z" fill="white"/>
<path opacity="0.2" d="M159.38 106.139C159.109 105.756 158.865 105.625 158.639 105.703H158.591C158.539 105.726 158.491 105.755 158.447 105.791C158.4 105.828 158.358 105.871 158.32 105.917L158.25 106.004L158.159 106.148C158.083 106.275 158.018 106.408 157.963 106.545C157.928 106.628 157.893 106.715 157.862 106.802C157.832 106.889 157.784 107.025 157.749 107.147C157.714 107.269 157.649 107.478 157.601 107.657C157.601 107.705 157.579 107.748 157.566 107.796C157.553 107.844 157.518 107.997 157.496 108.097C157.474 108.197 157.457 108.271 157.44 108.359C157.4 108.529 157.365 108.707 157.331 108.891C157.296 109.074 157.256 109.287 157.222 109.492C157.222 109.562 157.2 109.632 157.187 109.706C157.143 109.968 157.104 110.233 157.065 110.508C158.032 116.586 159.184 123.553 160.117 128.415C160.16 128.258 160.208 128.092 160.247 127.913C160.438 127.102 160.583 126.281 160.683 125.454C161.507 119.189 161.128 108.638 159.38 106.139Z" fill="black"/>
<path d="M149.012 97.6025C149.012 97.6025 148.576 121.487 148.92 131.231C149.282 141.364 152.822 174.539 152.822 174.539H158.233C158.233 174.539 158.429 141.952 158.669 132.003C158.931 121.155 160.239 97.6025 160.239 97.6025H149.012Z" fill="#407BFF"/>
<path opacity="0.2" d="M149.012 97.6025C149.012 97.6025 148.576 121.487 148.92 131.231C149.282 141.364 152.822 174.539 152.822 174.539H158.233C158.233 174.539 158.429 141.952 158.669 132.003C158.931 121.155 160.239 97.6025 160.239 97.6025H149.012Z" fill="white"/>
<path d="M158.591 172.883C158.612 172.883 158.591 174.649 158.591 174.649H152.351L152.09 172.665L158.591 172.883Z" fill="#263238"/>
<path d="M176.929 173.013C176.955 173.013 177.221 174.648 177.221 174.648H170.79L170.223 172.773L176.929 173.013Z" fill="#263238"/>
<path d="M172.063 179.048C171.846 179.065 171.629 179.009 171.448 178.886C171.39 178.839 171.344 178.777 171.317 178.707C171.289 178.636 171.281 178.56 171.291 178.485C171.292 178.442 171.304 178.399 171.326 178.362C171.348 178.324 171.38 178.293 171.418 178.272C171.771 178.093 172.804 178.708 172.922 178.795C172.934 178.804 172.943 178.816 172.949 178.83C172.954 178.844 172.955 178.859 172.953 178.873C172.95 178.888 172.944 178.902 172.934 178.913C172.923 178.923 172.91 178.931 172.896 178.934C172.623 179.002 172.344 179.041 172.063 179.048ZM171.588 178.389C171.555 178.382 171.521 178.382 171.488 178.389C171.472 178.398 171.46 178.411 171.451 178.426C171.443 178.442 171.439 178.459 171.44 178.477C171.433 178.527 171.439 178.579 171.457 178.627C171.476 178.675 171.505 178.718 171.544 178.751C171.9 178.917 172.306 178.939 172.678 178.812C172.345 178.602 171.975 178.459 171.588 178.389Z" fill="#407BFF"/>
<path d="M172.878 178.938C172.867 178.942 172.855 178.942 172.843 178.938C172.512 178.76 171.876 178.066 171.941 177.705C171.952 177.649 171.982 177.599 172.026 177.564C172.069 177.528 172.124 177.508 172.181 177.508C172.238 177.5 172.297 177.504 172.353 177.52C172.409 177.537 172.46 177.566 172.503 177.604C172.874 177.905 172.939 178.829 172.939 178.869C172.939 178.882 172.936 178.895 172.93 178.907C172.924 178.919 172.915 178.93 172.905 178.938C172.896 178.94 172.887 178.94 172.878 178.938ZM172.233 177.63H172.22C172.12 177.63 172.111 177.687 172.107 177.709C172.067 177.918 172.473 178.446 172.804 178.694C172.781 178.331 172.649 177.983 172.425 177.696C172.397 177.672 172.364 177.654 172.329 177.644C172.293 177.635 172.256 177.633 172.22 177.639L172.233 177.63Z" fill="#407BFF"/>
<path d="M152.857 179.048C152.584 179.073 152.31 179.004 152.081 178.851C152.031 178.805 151.992 178.748 151.968 178.685C151.944 178.621 151.935 178.553 151.942 178.485C151.942 178.444 151.953 178.403 151.975 178.368C151.996 178.332 152.027 178.304 152.064 178.285C152.452 178.067 153.738 178.721 153.882 178.795C153.896 178.801 153.908 178.813 153.915 178.827C153.922 178.841 153.924 178.858 153.921 178.873C153.919 178.889 153.912 178.903 153.901 178.914C153.89 178.925 153.876 178.932 153.86 178.934C153.53 179.005 153.194 179.043 152.857 179.048ZM152.277 178.389C152.229 178.387 152.182 178.396 152.138 178.415C152.123 178.424 152.111 178.436 152.103 178.45C152.094 178.465 152.09 178.481 152.09 178.498C152.084 178.543 152.089 178.588 152.105 178.63C152.121 178.672 152.147 178.709 152.181 178.738C152.378 178.912 152.905 178.943 153.611 178.825C153.194 178.606 152.743 178.459 152.277 178.389Z" fill="#407BFF"/>
<path d="M153.847 178.938H153.816C153.428 178.764 152.665 178.066 152.726 177.713C152.726 177.63 152.801 177.521 153.006 177.504C153.083 177.492 153.162 177.498 153.237 177.52C153.313 177.541 153.382 177.579 153.442 177.63C153.847 177.966 153.93 178.825 153.934 178.864C153.936 178.877 153.934 178.89 153.929 178.902C153.923 178.913 153.915 178.923 153.904 178.93C153.887 178.94 153.866 178.943 153.847 178.938ZM153.067 177.63H153.036C152.901 177.63 152.892 177.696 152.888 177.718C152.853 177.931 153.372 178.476 153.76 178.712C153.722 178.345 153.569 178.001 153.324 177.726C153.25 177.671 153.159 177.64 153.067 177.639V177.63Z" fill="#407BFF"/>
</svg>
