<svg width="20" height="20" viewBox="0 0 20 20" fill="none" xmlns="http://www.w3.org/2000/svg">
<path d="M18.0156 3.86955C17.9194 3.64729 17.76 3.45822 17.5572 3.32584C17.3544 3.19347 17.1172 3.12363 16.875 3.12502H3.12501C2.88308 3.1255 2.64649 3.19617 2.44394 3.32846C2.24138 3.46076 2.08157 3.64899 1.98389 3.87032C1.88621 4.09165 1.85486 4.33658 1.89363 4.57538C1.93241 4.81418 2.03966 5.03659 2.20235 5.21565L2.2086 5.22268L7.50001 10.8727V16.875C7.49996 17.1013 7.5613 17.3233 7.67751 17.5174C7.79371 17.7115 7.96041 17.8704 8.15984 17.9772C8.35927 18.084 8.58395 18.1347 8.80993 18.1239C9.0359 18.113 9.25469 18.0411 9.44298 17.9156L11.943 16.2485C12.1144 16.1343 12.2549 15.9796 12.3521 15.798C12.4492 15.6165 12.5001 15.4137 12.5 15.2078V10.8727L17.7922 5.22268L17.7984 5.21565C17.9629 5.03741 18.0711 4.8147 18.1098 4.57531C18.1484 4.33592 18.1157 4.09045 18.0156 3.86955ZM11.4203 10.2016C11.3122 10.3162 11.2514 10.4675 11.25 10.625V15.2078L8.75001 16.875V10.625C8.75006 10.4663 8.68973 10.3135 8.58126 10.1977L3.12501 4.37502H16.875L11.4203 10.2016Z" fill="#013974"/>
</svg>
