<svg width="56" height="56" viewBox="0 0 56 56" fill="none" xmlns="http://www.w3.org/2000/svg">
<rect width="56" height="56" rx="4" fill="#013974" fill-opacity="0.1"/>
<path d="M40 31C40 31.2652 39.8946 31.5196 39.7071 31.7071C39.5196 31.8946 39.2652 32 39 32H36V34H38C38.2652 34 38.5196 34.1054 38.7071 34.2929C38.8946 34.4804 39 34.7348 39 35C39 35.2652 38.8946 35.5196 38.7071 35.7071C38.5196 35.8946 38.2652 36 38 36H36V38C36 38.2652 35.8946 38.5196 35.7071 38.7071C35.5196 38.8946 35.2652 39 35 39C34.7348 39 34.4804 38.8946 34.2929 38.7071C34.1054 38.5196 34 38.2652 34 38V31C34 30.7348 34.1054 30.4804 34.2929 30.2929C34.4804 30.1054 34.7348 30 35 30H39C39.2652 30 39.5196 30.1054 39.7071 30.2929C39.8946 30.4804 40 30.7348 40 31ZM23.5 33.5C23.5 34.4283 23.1313 35.3185 22.4749 35.9749C21.8185 36.6313 20.9283 37 20 37H19V38C19 38.2652 18.8946 38.5196 18.7071 38.7071C18.5196 38.8946 18.2652 39 18 39C17.7348 39 17.4804 38.8946 17.2929 38.7071C17.1054 38.5196 17 38.2652 17 38V31C17 30.7348 17.1054 30.4804 17.2929 30.2929C17.4804 30.1054 17.7348 30 18 30H20C20.9283 30 21.8185 30.3687 22.4749 31.0251C23.1313 31.6815 23.5 32.5717 23.5 33.5ZM21.5 33.5C21.5 33.1022 21.342 32.7206 21.0607 32.4393C20.7794 32.158 20.3978 32 20 32H19V35H20C20.3978 35 20.7794 34.842 21.0607 34.5607C21.342 34.2794 21.5 33.8978 21.5 33.5ZM32.5 34.5C32.5 35.6935 32.0259 36.8381 31.182 37.682C30.3381 38.5259 29.1935 39 28 39H26C25.7348 39 25.4804 38.8946 25.2929 38.7071C25.1054 38.5196 25 38.2652 25 38V31C25 30.7348 25.1054 30.4804 25.2929 30.2929C25.4804 30.1054 25.7348 30 26 30H28C29.1935 30 30.3381 30.4741 31.182 31.318C32.0259 32.1619 32.5 33.3065 32.5 34.5ZM30.5 34.5C30.5 33.837 30.2366 33.2011 29.7678 32.7322C29.2989 32.2634 28.663 32 28 32H27V37H28C28.663 37 29.2989 36.7366 29.7678 36.2678C30.2366 35.7989 30.5 35.163 30.5 34.5ZM17 26V17C17 16.4696 17.2107 15.9609 17.5858 15.5858C17.9609 15.2107 18.4696 15 19 15H31C31.1314 14.9999 31.2615 15.0257 31.3829 15.0759C31.5042 15.1261 31.6146 15.1997 31.7075 15.2925L38.7075 22.2925C38.8003 22.3854 38.8739 22.4958 38.9241 22.6172C38.9743 22.7385 39.0001 22.8686 39 23V26C39 26.2652 38.8946 26.5196 38.7071 26.7071C38.5196 26.8946 38.2652 27 38 27C37.7348 27 37.4804 26.8946 37.2929 26.7071C37.1054 26.5196 37 26.2652 37 26V24H31C30.7348 24 30.4804 23.8946 30.2929 23.7071C30.1054 23.5196 30 23.2652 30 23V17H19V26C19 26.2652 18.8946 26.5196 18.7071 26.7071C18.5196 26.8946 18.2652 27 18 27C17.7348 27 17.4804 26.8946 17.2929 26.7071C17.1054 26.5196 17 26.2652 17 26ZM32 22H35.5863L32 18.4138V22Z" fill="#013974"/>
</svg>
