<svg width="38" height="38" viewBox="0 0 38 38" fill="none" xmlns="http://www.w3.org/2000/svg">
<circle cx="15.2" cy="15.2" r="14.6375" transform="matrix(1 0 0 -1 3.80078 34.1992)" fill="#013974" stroke="#013974" stroke-width="1.125"/>
<g clip-path="url(#clip0_3698_49710)">
<path d="M24.4583 11.4167H23.75V10.7083C23.75 10.5205 23.6754 10.3403 23.5425 10.2075C23.4097 10.0746 23.2295 10 23.0417 10C22.8538 10 22.6736 10.0746 22.5408 10.2075C22.408 10.3403 22.3333 10.5205 22.3333 10.7083V11.4167H16.6667V10.7083C16.6667 10.5205 16.592 10.3403 16.4592 10.2075C16.3264 10.0746 16.1462 10 15.9583 10C15.7705 10 15.5903 10.0746 15.4575 10.2075C15.3246 10.3403 15.25 10.5205 15.25 10.7083V11.4167H14.5417C13.6027 11.4178 12.7025 11.7913 12.0386 12.4552C11.3746 13.1192 11.0011 14.0194 11 14.9583L11 23.4583C11.0011 24.3973 11.3746 25.2975 12.0386 25.9614C12.7025 26.6254 13.6027 26.9989 14.5417 27H24.4583C25.3973 26.9989 26.2975 26.6254 26.9614 25.9614C27.6254 25.2975 27.9989 24.3973 28 23.4583V14.9583C27.9989 14.0194 27.6254 13.1192 26.9614 12.4552C26.2975 11.7913 25.3973 11.4178 24.4583 11.4167ZM12.4167 14.9583C12.4167 14.3947 12.6405 13.8542 13.0391 13.4557C13.4376 13.0572 13.9781 12.8333 14.5417 12.8333H24.4583C25.0219 12.8333 25.5624 13.0572 25.9609 13.4557C26.3594 13.8542 26.5833 14.3947 26.5833 14.9583V15.6667H12.4167V14.9583ZM24.4583 25.5833H14.5417C13.9781 25.5833 13.4376 25.3594 13.0391 24.9609C12.6405 24.5624 12.4167 24.0219 12.4167 23.4583V17.0833H26.5833V23.4583C26.5833 24.0219 26.3594 24.5624 25.9609 24.9609C25.5624 25.3594 25.0219 25.5833 24.4583 25.5833Z" fill="white"/>
<path d="M19.5 21.6875C20.0868 21.6875 20.5625 21.2118 20.5625 20.625C20.5625 20.0382 20.0868 19.5625 19.5 19.5625C18.9132 19.5625 18.4375 20.0382 18.4375 20.625C18.4375 21.2118 18.9132 21.6875 19.5 21.6875Z" fill="white"/>
<path d="M15.957 21.6875C16.5438 21.6875 17.0195 21.2118 17.0195 20.625C17.0195 20.0382 16.5438 19.5625 15.957 19.5625C15.3702 19.5625 14.8945 20.0382 14.8945 20.625C14.8945 21.2118 15.3702 21.6875 15.957 21.6875Z" fill="white"/>
<path d="M23.043 21.6875C23.6298 21.6875 24.1055 21.2118 24.1055 20.625C24.1055 20.0382 23.6298 19.5625 23.043 19.5625C22.4562 19.5625 21.9805 20.0382 21.9805 20.625C21.9805 21.2118 22.4562 21.6875 23.043 21.6875Z" fill="white"/>
</g>
<defs>
<clipPath id="clip0_3698_49710">
<rect x="11" y="10" width="17" height="17" rx="4" fill="white"/>
</clipPath>
</defs>
</svg>
