<svg width="9" height="11" viewBox="0 0 9 11" fill="none" xmlns="http://www.w3.org/2000/svg">
<path d="M6.3 7.33333C6.3 7.58633 6.0984 7.79167 5.85 7.79167H4.95V8.70833C4.95 8.96133 4.7484 9.16667 4.5 9.16667C4.2516 9.16667 4.05 8.96133 4.05 8.70833V7.79167H3.15C2.9016 7.79167 2.7 7.58633 2.7 7.33333C2.7 7.08033 2.9016 6.875 3.15 6.875H4.05V5.95833C4.05 5.70533 4.2516 5.5 4.5 5.5C4.7484 5.5 4.95 5.70533 4.95 5.95833V6.875H5.85C6.0984 6.875 6.3 7.08033 6.3 7.33333ZM9 4.80562V8.70833C9 9.97196 7.99065 11 6.75 11H2.25C1.00935 11 0 9.97196 0 8.70833V2.29167C0 1.02804 1.00935 0 2.25 0H4.28175C5.12325 0 5.9139 0.333667 6.50925 0.939583L8.0775 2.53688C8.6724 3.14279 9 3.94854 9 4.80562ZM5.8725 1.58767C5.7294 1.44192 5.57055 1.31862 5.4 1.21871V3.20833C5.4 3.46088 5.60205 3.66667 5.85 3.66667H7.80345C7.70535 3.49296 7.5843 3.33071 7.4412 3.18542L5.87295 1.58812L5.8725 1.58767ZM8.1 4.80562C8.1 4.73092 8.0964 4.65667 8.08965 4.58333H5.85C5.1057 4.58333 4.5 3.96642 4.5 3.20833V0.927208C4.428 0.920333 4.3551 0.916667 4.28175 0.916667H2.25C1.5057 0.916667 0.9 1.53358 0.9 2.29167V8.70833C0.9 9.46642 1.5057 10.0833 2.25 10.0833H6.75C7.4943 10.0833 8.1 9.46642 8.1 8.70833V4.80562Z" fill="#013974"/>
</svg>
