<svg width="38" height="38" viewBox="0 0 38 38" fill="none" xmlns="http://www.w3.org/2000/svg">
<circle cx="15.2" cy="15.2" r="14.6375" transform="matrix(1 0 0 -1 3.80078 34.1992)" fill="#013974" stroke="#013974" stroke-width="1.125"/>
<g clip-path="url(#clip0_3697_49699)">
<path d="M18.5 18.5C19.3406 18.5 20.1623 18.2507 20.8612 17.7837C21.5601 17.3168 22.1048 16.653 22.4265 15.8764C22.7482 15.0998 22.8323 14.2453 22.6683 13.4209C22.5044 12.5964 22.0996 11.8392 21.5052 11.2448C20.9108 10.6504 20.1536 10.2457 19.3291 10.0817C18.5047 9.91768 17.6502 10.0018 16.8736 10.3235C16.097 10.6452 15.4333 11.1899 14.9663 11.8888C14.4993 12.5877 14.25 13.4094 14.25 14.25C14.2511 15.3768 14.6993 16.4572 15.496 17.254C16.2928 18.0507 17.3732 18.4989 18.5 18.5ZM18.5 11.4167C19.0604 11.4167 19.6082 11.5828 20.0741 11.8942C20.5401 12.2055 20.9032 12.648 21.1177 13.1657C21.3321 13.6835 21.3882 14.2531 21.2789 14.8028C21.1696 15.3524 20.8997 15.8572 20.5035 16.2535C20.1072 16.6497 19.6024 16.9196 19.0528 17.0289C18.5031 17.1382 17.9335 17.0821 17.4157 16.8677C16.898 16.6532 16.4555 16.2901 16.1442 15.8241C15.8328 15.3582 15.6667 14.8104 15.6667 14.25C15.6667 13.4986 15.9652 12.7779 16.4965 12.2465C17.0279 11.7152 17.7486 11.4167 18.5 11.4167Z" fill="white"/>
<path d="M18.5 19.918C16.8098 19.9198 15.1894 20.5921 13.9943 21.7872C12.7991 22.9824 12.1269 24.6028 12.125 26.293C12.125 26.4808 12.1996 26.661 12.3325 26.7938C12.4653 26.9267 12.6455 27.0013 12.8333 27.0013C13.0212 27.0013 13.2014 26.9267 13.3342 26.7938C13.467 26.661 13.5417 26.4808 13.5417 26.293C13.5417 24.9779 14.0641 23.7168 14.9939 22.7869C15.9238 21.857 17.185 21.3346 18.5 21.3346C19.815 21.3346 21.0762 21.857 22.0061 22.7869C22.9359 23.7168 23.4583 24.9779 23.4583 26.293C23.4583 26.4808 23.533 26.661 23.6658 26.7938C23.7986 26.9267 23.9788 27.0013 24.1667 27.0013C24.3545 27.0013 24.5347 26.9267 24.6675 26.7938C24.8004 26.661 24.875 26.4808 24.875 26.293C24.8731 24.6028 24.2009 22.9824 23.0057 21.7872C21.8106 20.5921 20.1902 19.9198 18.5 19.918Z" fill="white"/>
</g>
<defs>
<clipPath id="clip0_3697_49699">
<rect x="10" y="10" width="17" height="17" rx="4" fill="white"/>
</clipPath>
</defs>
</svg>
