<svg width="291" height="291" viewBox="0 0 291 291" fill="none" xmlns="http://www.w3.org/2000/svg">
<g clip-path="url(#clip0_2957_26958)">
<path d="M291 222.557H0V222.702H291V222.557Z" fill="#E6E6E6"/>
<path d="M61.6864 229.459H30.0605V229.604H61.6864V229.459Z" fill="#E6E6E6"/>
<path d="M146.082 226.299H134.174V226.444H146.082V226.299Z" fill="#E6E6E6"/>
<path d="M105.505 226.299H88.0801V226.444H105.505V226.299Z" fill="#E6E6E6"/>
<path d="M249.626 227.975H212.762V228.121H249.626V227.975Z" fill="#E6E6E6"/>
<path d="M139.226 227.975H130.909V228.121H139.226V227.975Z" fill="#E6E6E6"/>
<path d="M75.0784 229.459H67.3203V229.604H75.0784V229.459Z" fill="#E6E6E6"/>
<path d="M259.334 227.975H254.381V228.121H259.334V227.975Z" fill="#E6E6E6"/>
<path d="M137.934 196.599H25.5557C24.6753 196.598 23.8315 196.247 23.2096 195.624C22.5876 195.001 22.2383 194.157 22.2383 193.276V35.3039C22.2459 34.4286 22.5987 33.5916 23.2198 32.9748C23.8409 32.3581 24.6803 32.0113 25.5557 32.0098H137.934C138.815 32.0098 139.661 32.3599 140.284 32.9831C140.907 33.6063 141.257 34.4516 141.257 35.333V193.276C141.257 194.158 140.907 195.003 140.284 195.626C139.661 196.249 138.815 196.599 137.934 196.599ZM25.5557 32.1262C24.7139 32.1277 23.9071 32.4632 23.3125 33.059C22.7178 33.6547 22.3838 34.4621 22.3838 35.3039V193.276C22.3838 194.118 22.7178 194.925 23.3125 195.521C23.9071 196.117 24.7139 196.452 25.5557 196.454H137.934C138.776 196.452 139.584 196.117 140.179 195.521C140.775 194.926 141.11 194.118 141.112 193.276V35.3039C141.11 34.4616 140.775 33.6542 140.179 33.0586C139.584 32.463 138.776 32.1277 137.934 32.1262H25.5557Z" fill="#E6E6E6"/>
<path d="M263.827 196.599H151.442C150.561 196.598 149.717 196.247 149.094 195.624C148.471 195.001 148.121 194.157 148.119 193.276V35.3039C148.128 34.428 148.482 33.5911 149.104 32.9745C149.726 32.3579 150.566 32.0112 151.442 32.0098H263.827C264.701 32.0128 265.539 32.3603 266.159 32.9769C266.779 33.5935 267.13 34.4296 267.138 35.3039V193.276C267.138 194.156 266.79 194.999 266.169 195.622C265.548 196.245 264.706 196.596 263.827 196.599ZM151.442 32.1262C150.6 32.1277 149.793 32.463 149.197 33.0586C148.601 33.6542 148.266 34.4616 148.265 35.3039V193.276C148.266 194.118 148.601 194.926 149.197 195.521C149.793 196.117 150.6 196.452 151.442 196.454H263.827C264.669 196.452 265.476 196.117 266.072 195.521C266.667 194.926 267.003 194.118 267.004 193.276V35.3039C267.003 34.4616 266.667 33.6542 266.072 33.0586C265.476 32.463 264.669 32.1277 263.827 32.1262H151.442Z" fill="#E6E6E6"/>
<path d="M239.877 49.7959H110.155V125.2H239.877V49.7959Z" fill="#E6E6E6"/>
<path d="M241.629 49.7959H111.907V125.2H241.629V49.7959Z" fill="#F5F5F5"/>
<path d="M238.48 121.661V53.3345L115.056 53.3345V121.661L238.48 121.661Z" fill="white"/>
<path d="M238.486 121.661V53.3345H237.159V121.661H238.486Z" fill="#E6E6E6"/>
<path d="M240.331 100.424H113.211V105.173H240.331V100.424Z" fill="#F5F5F5"/>
<path d="M147.246 172.336H125.944V219.565H147.246V172.336Z" fill="#E6E6E6"/>
<path d="M223.802 219.565H130.03V222.556H223.802V219.565Z" fill="#E6E6E6"/>
<path d="M147.24 219.565H227.894V172.336H147.24V219.565Z" fill="#F5F5F5"/>
<path d="M155.621 193.637H219.524V178.15H155.621V193.637Z" fill="#E6E6E6"/>
<path d="M155.621 213.745H219.524V198.258H155.621V213.745Z" fill="#E6E6E6"/>
<path d="M197.152 184.832H177.993C177.475 184.832 177.056 185.251 177.056 185.769V186.019C177.056 186.536 177.475 186.956 177.993 186.956H197.152C197.67 186.956 198.089 186.536 198.089 186.019V185.769C198.089 185.251 197.67 184.832 197.152 184.832Z" fill="#F5F5F5"/>
<path d="M197.152 204.945H177.993C177.475 204.945 177.056 205.365 177.056 205.882V206.133C177.056 206.65 177.475 207.07 177.993 207.07H197.152C197.67 207.07 198.089 206.65 198.089 206.133V205.882C198.089 205.365 197.67 204.945 197.152 204.945Z" fill="#F5F5F5"/>
<path d="M83.4475 222.557H38.069L31.8125 72.0107H77.191L83.4475 222.557Z" fill="#E6E6E6"/>
<path d="M90.0184 222.557H39.2331L32.9766 72.0107H83.7619L90.0184 222.557Z" fill="#F5F5F5"/>
<path d="M44.2497 217.318L38.4297 77.2485H78.739L84.5648 217.318H44.2497Z" fill="white"/>
<path d="M165.83 165.049C166.412 149.149 166.994 127.12 165.766 119.147L163.758 117.593C163.758 117.593 164.194 119.077 164.427 143.439C164.66 167.802 164.945 161.429 164.701 165.049H165.83Z" fill="#E0E0E0"/>
<path d="M169.566 112.378C173.279 107.344 181.095 103.764 189.191 103.782C192.368 103.782 179.727 109.637 174.611 116.091C170.636 121.102 166.254 129.535 164.822 134.215C165.509 124.367 165.87 117.406 169.566 112.378Z" fill="#E0E0E0"/>
<path d="M162.116 125.491C158.706 120.253 151.111 116.219 143.032 115.765C139.861 115.585 152.135 122.167 156.867 128.901C160.539 134.139 164.433 142.811 165.597 147.572C165.469 137.701 165.533 130.734 162.116 125.491Z" fill="#E0E0E0"/>
<path d="M163.641 103.974C160.533 97.8632 153.281 91.9675 145.395 89.5697C142.293 88.6268 155.138 99.3822 158.81 107.612C161.662 114.014 165.119 122.057 166.027 127.138C166.364 117.116 166.743 110.091 163.641 103.974Z" fill="#E0E0E0"/>
<path d="M165.078 172.336C166.968 172.336 168.786 171.612 170.159 170.313C171.531 169.014 172.354 167.239 172.458 165.352L173.11 154.003H157.047L157.705 165.352C157.807 167.238 158.629 169.014 160 170.313C161.372 171.612 163.189 172.336 165.078 172.336Z" fill="#F0F0F0"/>
<path d="M156.011 156.593H174.152L174.67 151.884H155.487L156.011 156.593Z" fill="#EBEBEB"/>
<path d="M233.132 78.6631H245.145V46.0711H233.132V78.6631Z" fill="#E6E6E6"/>
<path d="M233.132 46.0767H227.178V76.0497H233.132V46.0767Z" fill="#F5F5F5"/>
<path d="M215.165 78.6631H227.178V46.0711H215.165V78.6631Z" fill="#E6E6E6"/>
<path d="M215.166 46.0767H209.212V76.0497H215.166V46.0767Z" fill="#F5F5F5"/>
<path d="M197.199 78.6631H209.212V46.0711H197.199V78.6631Z" fill="#E6E6E6"/>
<path d="M197.199 46.0767H191.245V76.0497H197.199V46.0767Z" fill="#F5F5F5"/>
<path d="M179.227 78.6631H191.239V46.0711H179.227V78.6631Z" fill="#E6E6E6"/>
<path d="M179.227 46.0767H173.273V76.0497H179.227V46.0767Z" fill="#F5F5F5"/>
<path d="M161.267 78.6631H173.279V46.0711H161.267V78.6631Z" fill="#E6E6E6"/>
<path d="M161.26 46.0767H155.307V76.0497H161.26V46.0767Z" fill="#F5F5F5"/>
<path d="M143.294 78.6631H155.307V46.0711H143.294V78.6631Z" fill="#E6E6E6"/>
<path d="M143.295 46.0767H137.341V76.0497H143.295V46.0767Z" fill="#F5F5F5"/>
<path d="M125.328 78.6631H137.341V46.0711H125.328V78.6631Z" fill="#E6E6E6"/>
<path d="M125.328 46.0767H119.374V76.0497H125.328V46.0767Z" fill="#F5F5F5"/>
<path d="M107.362 78.6631H119.374V46.0711H107.362V78.6631Z" fill="#E6E6E6"/>
<path d="M145.5 248.84C207.822 248.84 258.344 245.89 258.344 242.252C258.344 238.613 207.822 235.664 145.5 235.664C83.1782 235.664 32.6562 238.613 32.6562 242.252C32.6562 245.89 83.1782 248.84 145.5 248.84Z" fill="#F5F5F5"/>
<path d="M205.108 127.766L207.582 131.549L211.26 130.787L208.484 126.084L205.108 127.766Z" fill="#9F5B53"/>
<path d="M212.122 95.3433C212.646 95.9776 213.082 96.5422 213.53 97.1591C213.979 97.776 214.409 98.3697 214.834 98.9866C215.684 100.215 216.493 101.478 217.249 102.775C218.006 104.073 218.739 105.4 219.38 106.791C219.723 107.472 220.014 108.194 220.328 108.898C220.642 109.602 220.91 110.341 221.137 111.104L221.323 111.686L221.417 111.971C221.469 112.14 221.521 112.32 221.556 112.489C221.684 113.093 221.727 113.712 221.684 114.328C221.607 115.293 221.398 116.243 221.062 117.151C220.492 118.664 219.762 120.111 218.885 121.469C217.25 123.99 215.354 126.331 213.228 128.453L210.684 126.463C212.083 124.076 213.361 121.621 214.514 119.106C215.044 117.958 215.466 116.764 215.777 115.539C215.893 115.078 215.946 114.605 215.934 114.13C215.934 114.03 215.912 113.931 215.87 113.839L215.777 113.618L215.585 113.176C214.495 110.727 213.211 108.37 211.744 106.128C211.01 104.964 210.236 103.84 209.456 102.706C208.677 101.571 207.827 100.436 207.059 99.4056L212.122 95.3433Z" fill="#9F5B53"/>
<path d="M210.684 92.4798C214.694 93.3993 219.292 104.323 219.292 104.323L211.266 109.841C209.263 106.97 207.484 103.948 205.947 100.802C203.566 95.803 206.61 91.5428 210.684 92.4798Z" fill="#407BFF"/>
<path opacity="0.8" d="M210.684 92.4798C214.694 93.3993 219.292 104.323 219.292 104.323L211.266 109.841C209.263 106.97 207.484 103.948 205.947 100.802C203.566 95.803 206.61 91.5428 210.684 92.4798Z" fill="white"/>
<path d="M207.832 99.4463L211.638 109.579L211.26 109.841C211.26 109.841 209.613 107.513 207.832 104.411V99.4463Z" fill="#407BFF"/>
<path opacity="0.6" d="M207.832 99.4463L211.638 109.579L211.26 109.841C211.26 109.841 209.613 107.513 207.832 104.411V99.4463Z" fill="white"/>
<path d="M197.67 238.41H193.393L192.968 228.51H197.245L197.67 238.41Z" fill="#9F5B53"/>
<path d="M223.342 238.41H219.065L216.917 228.51H221.189L223.342 238.41Z" fill="#9F5B53"/>
<path d="M192.968 228.516L193.189 233.614H197.467L197.245 228.516H192.968Z" fill="#8A4743"/>
<path d="M221.195 228.516H216.917L218.023 233.614H222.3L221.195 228.516Z" fill="#8A4743"/>
<path d="M194.609 129.658C194.609 129.658 199.463 162.331 202.123 174.57C205.033 187.956 216.033 232.631 216.033 232.631H223.867C223.867 232.631 216.615 189.056 214.95 175.764C213.146 161.359 209.369 129.634 209.369 129.634L194.609 129.658Z" fill="#407BFF"/>
<path opacity="0.5" d="M194.609 129.658C194.609 129.658 199.463 162.331 202.123 174.57C205.033 187.956 216.033 232.631 216.033 232.631H223.867C223.867 232.631 216.615 189.056 214.95 175.764C213.146 161.359 209.369 129.634 209.369 129.634L194.609 129.658Z" fill="black"/>
<path opacity="0.4" d="M197.676 141.298C203.286 142.398 202.693 163.321 202.018 174.082C200.4 166.475 198.031 151.838 196.413 141.449C196.805 141.256 197.25 141.203 197.676 141.298Z" fill="black"/>
<path d="M186.496 129.658C186.496 129.658 185.914 161.621 186.374 174.664C186.857 188.224 191.612 232.631 191.612 232.631H198.852C198.852 232.631 199.12 189.016 199.434 175.7C199.783 161.179 201.535 129.658 201.535 129.658H186.496Z" fill="#407BFF"/>
<path opacity="0.5" d="M186.496 129.658C186.496 129.658 185.914 161.621 186.374 174.664C186.857 188.224 191.612 232.631 191.612 232.631H198.852C198.852 232.631 199.12 189.016 199.434 175.7C199.783 161.179 201.535 129.658 201.535 129.658H186.496Z" fill="black"/>
<path d="M211.61 125.549L208.484 126.084L211.261 130.787C211.261 130.787 213.437 129.739 213.833 127.708L211.61 125.549Z" fill="#9F5B53"/>
<path d="M190.954 76.591C190.954 76.9344 190.774 77.2137 190.547 77.2137C190.32 77.2137 190.14 76.9344 190.14 76.591C190.14 76.2476 190.32 75.9683 190.547 75.9683C190.774 75.9683 190.954 76.2418 190.954 76.591Z" fill="#263238"/>
<path d="M190.803 77.2139C190.391 78.2679 189.837 79.2607 189.156 80.1646C189.392 80.333 189.661 80.4479 189.946 80.5012C190.23 80.5545 190.523 80.5449 190.803 80.4731V77.2139Z" fill="#892B29"/>
<path d="M192.176 74.6819C192.134 74.6824 192.093 74.668 192.06 74.6411C191.858 74.4856 191.621 74.3806 191.37 74.3351C191.119 74.2895 190.861 74.3047 190.617 74.3792C190.592 74.3885 190.566 74.3929 190.54 74.3921C190.514 74.3913 190.488 74.3853 190.464 74.3744C190.44 74.3636 190.419 74.3482 190.401 74.329C190.383 74.3099 190.37 74.2874 190.36 74.2628C190.35 74.2384 190.345 74.2122 190.345 74.1857C190.345 74.1591 190.35 74.1329 190.36 74.1085C190.371 74.084 190.386 74.0619 190.405 74.0434C190.424 74.025 190.446 74.0105 190.471 74.0009C190.777 73.9021 191.103 73.879 191.421 73.9338C191.738 73.9885 192.037 74.1194 192.293 74.3152C192.315 74.3297 192.334 74.3487 192.349 74.371C192.363 74.3933 192.373 74.4184 192.377 74.4446C192.382 74.4709 192.381 74.4978 192.374 74.5236C192.368 74.5494 192.356 74.5736 192.339 74.5946C192.322 74.622 192.298 74.6446 192.269 74.6599C192.241 74.6752 192.209 74.6828 192.176 74.6819Z" fill="#263238"/>
<path d="M202.088 80.5659C201.472 83.6971 200.86 89.424 203.049 91.5133C203.049 91.5133 202.193 94.6852 196.379 94.6852C189.977 94.6852 193.329 91.5133 193.329 91.5133C196.821 90.6811 196.728 88.0912 196.117 85.6642L202.088 80.5659Z" fill="#9F5B53"/>
<path d="M203.886 92.6016C204.346 91.6005 204.847 90.4482 203.805 90.0873C202.641 89.6916 196.373 89.29 194.208 90.0291C193.922 90.1083 193.655 90.2433 193.422 90.4264C193.189 90.6095 192.994 90.837 192.85 91.0957C192.705 91.3545 192.614 91.6393 192.58 91.9337C192.546 92.2282 192.571 92.5264 192.654 92.8111L203.886 92.6016Z" fill="#407BFF"/>
<path d="M217.348 238.62C217.167 238.644 216.983 238.632 216.807 238.584C216.631 238.536 216.467 238.453 216.323 238.341C216.272 238.271 216.244 238.186 216.244 238.099C216.244 238.012 216.272 237.927 216.323 237.857C216.355 237.797 216.4 237.745 216.454 237.704C216.509 237.662 216.571 237.634 216.638 237.619C217.266 237.479 218.442 238.282 218.494 238.317C218.51 238.329 218.523 238.345 218.53 238.364C218.537 238.382 218.539 238.402 218.535 238.422C218.532 238.441 218.523 238.458 218.509 238.472C218.496 238.485 218.478 238.494 218.459 238.498C218.094 238.577 217.722 238.617 217.348 238.62ZM216.818 237.805H216.69C216.651 237.813 216.614 237.83 216.581 237.854C216.549 237.878 216.523 237.909 216.504 237.945C216.411 238.108 216.469 238.178 216.504 238.201C216.684 238.445 217.557 238.445 218.198 238.341C217.783 238.065 217.311 237.886 216.818 237.817V237.805Z" fill="#407BFF"/>
<path d="M218.442 238.515H218.395C217.953 238.271 217.098 237.351 217.185 236.862C217.2 236.787 217.24 236.719 217.3 236.67C217.359 236.621 217.434 236.595 217.511 236.595C217.588 236.586 217.665 236.593 217.739 236.615C217.813 236.637 217.882 236.674 217.942 236.723C218.436 237.13 218.524 238.364 218.524 238.416C218.526 238.435 218.523 238.453 218.514 238.47C218.506 238.487 218.493 238.5 218.477 238.509C218.466 238.514 218.454 238.516 218.442 238.515ZM217.581 236.769H217.534C217.4 236.769 217.389 236.851 217.383 236.874C217.33 237.159 217.877 237.863 218.314 238.195C218.284 237.709 218.109 237.243 217.813 236.857C217.747 236.806 217.665 236.779 217.581 236.781V236.769Z" fill="#407BFF"/>
<path d="M191.676 238.62C191.129 238.62 190.6 238.544 190.419 238.3C190.375 238.234 190.351 238.157 190.351 238.078C190.351 237.999 190.375 237.922 190.419 237.857C190.453 237.797 190.499 237.745 190.554 237.704C190.609 237.663 190.672 237.634 190.739 237.619C191.444 237.426 192.945 238.276 193.009 238.311C193.026 238.322 193.04 238.338 193.048 238.357C193.056 238.375 193.059 238.396 193.056 238.416C193.053 238.437 193.044 238.456 193.029 238.471C193.014 238.486 192.995 238.495 192.974 238.497C192.546 238.578 192.112 238.619 191.676 238.62ZM190.996 237.793C190.932 237.784 190.867 237.784 190.803 237.793C190.763 237.801 190.724 237.818 190.69 237.842C190.656 237.866 190.627 237.897 190.606 237.933C190.536 238.061 190.559 238.119 190.606 238.154C190.803 238.422 191.88 238.439 192.683 238.329C192.16 238.046 191.587 237.868 190.996 237.805V237.793Z" fill="#407BFF"/>
<path d="M192.968 238.515H192.928C192.41 238.288 191.391 237.351 191.467 236.88C191.467 236.763 191.566 236.624 191.845 236.594C191.949 236.579 192.055 236.586 192.156 236.616C192.256 236.647 192.349 236.699 192.427 236.769C192.974 237.211 193.085 238.364 193.091 238.416C193.093 238.434 193.09 238.452 193.083 238.468C193.076 238.485 193.065 238.499 193.05 238.509C193.038 238.516 193.024 238.52 193.01 238.521C192.996 238.522 192.982 238.52 192.968 238.515ZM191.927 236.769H191.863C191.682 236.769 191.671 236.862 191.665 236.885C191.618 237.176 192.317 237.904 192.829 238.218C192.778 237.729 192.575 237.269 192.247 236.903C192.158 236.826 192.044 236.783 191.927 236.781V236.769Z" fill="#407BFF"/>
<path d="M218.763 237.916H223.564C223.65 237.916 223.733 237.946 223.799 238C223.866 238.054 223.912 238.129 223.931 238.212L224.775 242.013C224.794 242.105 224.792 242.201 224.769 242.293C224.746 242.385 224.703 242.47 224.643 242.543C224.582 242.615 224.506 242.674 224.42 242.713C224.334 242.752 224.241 242.771 224.146 242.769C222.47 242.74 221.655 242.641 219.542 242.641C218.245 242.641 215.567 242.781 213.769 242.781C211.971 242.781 211.744 241.035 212.477 240.843C215.771 240.121 217.011 239.126 218.07 238.183C218.259 238.01 218.506 237.914 218.763 237.916Z" fill="#263238"/>
<path d="M193.422 237.916H198.078C198.164 237.916 198.247 237.946 198.313 238C198.38 238.054 198.426 238.129 198.445 238.212L199.289 242.013C199.309 242.104 199.308 242.2 199.286 242.291C199.265 242.382 199.223 242.467 199.163 242.54C199.104 242.613 199.029 242.671 198.944 242.711C198.859 242.751 198.766 242.771 198.672 242.769C196.99 242.74 194.557 242.641 192.439 242.641C189.965 242.641 187.823 242.781 184.919 242.781C183.173 242.781 182.678 241.035 183.412 240.843C186.758 240.11 189.488 240.034 192.38 238.253C192.688 238.044 193.05 237.927 193.422 237.916Z" fill="#263238"/>
<path d="M187.317 101.227C185.623 103.73 183.871 106.063 181.98 108.38C180.091 110.72 178.07 112.951 175.927 115.061L175.089 115.853L174.874 116.051L174.728 116.184L174.513 116.371C174.236 116.588 173.942 116.783 173.634 116.953C172.652 117.469 171.57 117.771 170.462 117.837C168.771 117.943 167.073 117.803 165.422 117.424C162.43 116.761 159.528 115.741 156.779 114.386L157.844 111.36C160.572 111.902 163.33 112.277 166.103 112.483C167.321 112.582 168.546 112.531 169.752 112.332C170.098 112.282 170.428 112.154 170.718 111.959V111.918L170.759 111.872L170.934 111.68L171.62 110.923C173.442 108.845 175.205 106.64 176.917 104.376C178.628 102.112 180.339 99.8069 181.974 97.543L187.317 101.227Z" fill="#9F5B53"/>
<path d="M189.29 101.896C188.694 105.507 187.134 108.89 184.773 111.686C184.68 109.637 184.645 107.798 184.651 106.151L189.29 101.896Z" fill="#BED3FC"/>
<path d="M202.455 75.8574C202.199 80.0944 202.263 82.5853 200.127 84.762C196.908 88.0329 191.682 86.089 190.669 81.852C189.761 78.0457 190.338 71.7601 194.487 70.0723C195.4 69.6973 196.393 69.5619 197.373 69.6791C198.353 69.7964 199.287 70.1622 200.085 70.742C200.884 71.3218 201.52 72.0961 201.935 72.9915C202.35 73.8869 202.529 74.8734 202.455 75.8574Z" fill="#9F5B53"/>
<path d="M194.225 73.0408C194.26 78.0227 195.878 84.1337 200.697 83.7088C203.898 83.4295 206.331 77.592 206.663 75.1185C207.169 71.3355 207.245 70.6138 205.115 70.1773C206.046 69.671 206.383 67.2673 204.207 66.6853C201.18 65.888 195.477 65.1081 197.269 63.2632C193.696 63.9092 192.8 65.3409 193.451 67.0811C191.362 66.9181 190.076 65.824 190.14 64.1711C186.677 65.5737 184.43 73.5064 194.225 73.0408Z" fill="#263238"/>
<path d="M196.716 77.0913C196.48 78.1187 195.911 79.0394 195.098 79.7103C194.021 80.5833 193.16 79.8034 193.183 78.5463C193.183 77.4114 193.8 75.5897 195.011 75.2056C196.221 74.8215 197.013 75.8516 196.716 77.0913Z" fill="#9F5B53"/>
<path d="M208.356 71.0444C207.786 70.6817 207.135 70.4662 206.462 70.4175C205.788 70.3687 205.113 70.4881 204.497 70.765C204.497 70.765 206.918 67.5117 208.356 71.0444Z" fill="#263238"/>
<path d="M214.758 229.744C214.723 229.744 215.567 232.753 215.567 232.753H224.378L224.215 230.07L214.758 229.744Z" fill="#407BFF"/>
<path d="M190.203 229.744C190.168 229.744 190.611 232.753 190.611 232.753H199.422L199.661 230.07L190.203 229.744Z" fill="#407BFF"/>
<path d="M193.102 227.428C193.085 227.428 193.068 227.421 193.055 227.41C193.042 227.398 193.034 227.381 193.032 227.364C191.752 215.072 188.743 185.332 188.376 174.664C187.986 163.775 188.341 139.342 188.458 132.114C188.458 132.073 188.493 132.05 188.533 132.044C188.552 132.045 188.569 132.053 188.581 132.066C188.594 132.079 188.602 132.096 188.603 132.114C188.487 139.342 188.132 163.775 188.522 174.658C188.9 185.326 191.909 215.055 193.178 227.346C193.178 227.366 193.171 227.385 193.158 227.4C193.145 227.415 193.127 227.425 193.108 227.428H193.102Z" fill="#407BFF"/>
<path opacity="0.3" d="M193.102 227.428C193.085 227.428 193.068 227.421 193.055 227.41C193.042 227.398 193.034 227.381 193.032 227.364C191.752 215.072 188.743 185.332 188.376 174.664C187.986 163.775 188.341 139.342 188.458 132.114C188.458 132.073 188.493 132.05 188.533 132.044C188.552 132.045 188.569 132.053 188.581 132.066C188.594 132.079 188.602 132.096 188.603 132.114C188.487 139.342 188.132 163.775 188.522 174.658C188.9 185.326 191.909 215.055 193.178 227.346C193.178 227.366 193.171 227.385 193.158 227.4C193.145 227.415 193.127 227.425 193.108 227.428H193.102Z" fill="black"/>
<path d="M191.263 96.1636C191.845 100.238 183.848 110.556 183.848 110.556L175.834 105.039C175.834 105.039 178.057 99.3413 181.799 95.6049C186.071 91.3737 190.646 91.7578 191.263 96.1636Z" fill="#407BFF"/>
<path opacity="0.8" d="M191.263 96.1636C191.845 100.238 183.848 110.556 183.848 110.556L175.834 105.039C175.834 105.039 178.057 99.3413 181.799 95.6049C186.071 91.3737 190.646 91.7578 191.263 96.1636Z" fill="white"/>
<path d="M186.752 92.7006C186.752 92.7006 182.201 97.8397 186.496 129.658H209.369C209.526 126.166 207.32 109.02 210.702 92.4794C208.174 91.9927 205.617 91.67 203.048 91.5133C199.811 91.3269 196.566 91.3269 193.329 91.5133C191.109 91.737 188.91 92.1339 186.752 92.7006Z" fill="#407BFF"/>
<path opacity="0.8" d="M186.752 92.7006C186.752 92.7006 182.201 97.8397 186.496 129.658H209.369C209.526 126.166 207.32 109.02 210.702 92.4794C208.174 91.9927 205.617 91.67 203.048 91.5133C199.811 91.3269 196.566 91.3269 193.329 91.5133C191.109 91.737 188.91 92.1339 186.752 92.7006Z" fill="white"/>
<path d="M119.461 69.3419C121.287 61.2955 116.245 53.2919 108.199 51.4653C100.152 49.6387 92.1486 54.6808 90.322 62.7271C88.4954 70.7735 93.5375 78.7772 101.584 80.6038C109.63 82.4304 117.634 77.3883 119.461 69.3419Z" fill="#407BFF"/>
<path opacity="0.2" d="M119.461 69.3419C121.287 61.2955 116.245 53.2919 108.199 51.4653C100.152 49.6387 92.1486 54.6808 90.322 62.7271C88.4954 70.7735 93.5375 78.7772 101.584 80.6038C109.63 82.4304 117.634 77.3883 119.461 69.3419Z" fill="white"/>
<path d="M103.358 85.4085C99.4934 85.1101 95.8079 83.6578 92.7788 81.2399C89.7497 78.822 87.5166 75.55 86.3691 71.8479L86.922 71.6733C88.0359 75.2644 90.2026 78.4382 93.1414 80.7834C96.0802 83.1286 99.6556 84.5372 103.404 84.8265L103.358 85.4085Z" fill="#407BFF"/>
<path opacity="0.2" d="M103.358 85.4085C99.4934 85.1101 95.8079 83.6578 92.7788 81.2399C89.7497 78.822 87.5166 75.55 86.3691 71.8479L86.922 71.6733C88.0359 75.2644 90.2026 78.4382 93.1414 80.7834C96.0802 83.1286 99.6556 84.5372 103.404 84.8265L103.358 85.4085Z" fill="white"/>
<path d="M86.8408 60.6559L86.2588 60.4929C87.009 57.9862 88.2579 55.6568 89.9305 53.6446C91.603 51.6324 93.6649 49.9788 95.9923 48.783C98.3197 47.5872 100.865 46.874 103.475 46.686C106.084 46.498 108.705 46.8391 111.18 47.6889L110.994 48.2418C108.592 47.4183 106.048 47.0885 103.515 47.2721C100.982 47.4558 98.5124 48.1492 96.2541 49.3107C93.9958 50.4722 91.9953 52.0778 90.3728 54.0314C88.7502 55.9849 87.539 58.2461 86.8117 60.6792L86.8408 60.6559Z" fill="#407BFF"/>
<path opacity="0.2" d="M86.8408 60.6559L86.2588 60.4929C87.009 57.9862 88.2579 55.6568 89.9305 53.6446C91.603 51.6324 93.6649 49.9788 95.9923 48.783C98.3197 47.5872 100.865 46.874 103.475 46.686C106.084 46.498 108.705 46.8391 111.18 47.6889L110.994 48.2418C108.592 47.4183 106.048 47.0885 103.515 47.2721C100.982 47.4558 98.5124 48.1492 96.2541 49.3107C93.9958 50.4722 91.9953 52.0778 90.3728 54.0314C88.7502 55.9849 87.539 58.2461 86.8117 60.6792L86.8408 60.6559Z" fill="white"/>
<path d="M122.883 60.4055C121.523 56.0541 118.627 52.3455 114.735 49.9702L115.038 49.4697C119.046 51.9227 122.028 55.7462 123.43 60.2309L122.883 60.4055Z" fill="#407BFF"/>
<path opacity="0.2" d="M122.883 60.4055C121.523 56.0541 118.627 52.3455 114.735 49.9702L115.038 49.4697C119.046 51.9227 122.028 55.7462 123.43 60.2309L122.883 60.4055Z" fill="white"/>
<path d="M119.467 110.582C121.294 102.536 116.252 94.5321 108.205 92.7055C100.159 90.8789 92.1555 95.921 90.3289 103.967C88.5022 112.014 93.5444 120.017 101.591 121.844C109.637 123.671 117.641 118.629 119.467 110.582Z" fill="#407BFF"/>
<path opacity="0.6" d="M119.467 110.582C121.294 102.536 116.252 94.5321 108.205 92.7055C100.159 90.8789 92.1555 95.921 90.3289 103.967C88.5022 112.014 93.5444 120.017 101.591 121.844C109.637 123.671 117.641 118.629 119.467 110.582Z" fill="white"/>
<path d="M119.462 151.821C121.289 143.775 116.247 135.771 108.201 133.944C100.154 132.118 92.1506 137.16 90.324 145.206C88.4974 153.253 93.5395 161.256 101.586 163.083C109.632 164.909 117.636 159.867 119.462 151.821Z" fill="#407BFF"/>
<path opacity="0.6" d="M119.462 151.821C121.289 143.775 116.247 135.771 108.201 133.944C100.154 132.118 92.1506 137.16 90.324 145.206C88.4974 153.253 93.5395 161.256 101.586 163.083C109.632 164.909 117.636 159.867 119.462 151.821Z" fill="white"/>
<path d="M119.463 193.067C121.29 185.02 116.248 177.016 108.202 175.19C100.155 173.363 92.1516 178.405 90.325 186.452C88.4983 194.498 93.5405 202.502 101.587 204.328C109.633 206.155 117.637 201.113 119.463 193.067Z" fill="#407BFF"/>
<path opacity="0.6" d="M119.463 193.067C121.29 185.02 116.248 177.016 108.202 175.19C100.155 173.363 92.1516 178.405 90.325 186.452C88.4983 194.498 93.5405 202.502 101.587 204.328C109.633 206.155 117.637 201.113 119.463 193.067Z" fill="white"/>
<path d="M78.2222 69.3375C80.0489 61.2911 75.0067 53.2875 66.9604 51.4609C58.914 49.6343 50.9104 54.6764 49.0837 62.7227C47.2571 70.7691 52.2992 78.7728 60.3456 80.5994C68.392 82.426 76.3956 77.3839 78.2222 69.3375Z" fill="#407BFF"/>
<path opacity="0.6" d="M78.2222 69.3375C80.0489 61.2911 75.0067 53.2875 66.9604 51.4609C58.914 49.6343 50.9104 54.6764 49.0837 62.7227C47.2571 70.7691 52.2992 78.7728 60.3456 80.5994C68.392 82.426 76.3956 77.3839 78.2222 69.3375Z" fill="white"/>
<path d="M78.2291 110.583C80.0557 102.537 75.0136 94.5331 66.9672 92.7065C58.9208 90.8799 50.9172 95.922 49.0906 103.968C47.264 112.015 52.3061 120.018 60.3525 121.845C68.3988 123.672 76.4025 118.629 78.2291 110.583Z" fill="#407BFF"/>
<path opacity="0.6" d="M78.2291 110.583C80.0557 102.537 75.0136 94.5331 66.9672 92.7065C58.9208 90.8799 50.9172 95.922 49.0906 103.968C47.264 112.015 52.3061 120.018 60.3525 121.845C68.3988 123.672 76.4025 118.629 78.2291 110.583Z" fill="white"/>
<path d="M78.2242 151.822C80.0508 143.775 75.0087 135.772 66.9623 133.945C58.916 132.119 50.9123 137.161 49.0857 145.207C47.2591 153.253 52.3012 161.257 60.3476 163.084C68.3939 164.91 76.3976 159.868 78.2242 151.822Z" fill="#407BFF"/>
<path opacity="0.6" d="M78.2242 151.822C80.0508 143.775 75.0087 135.772 66.9623 133.945C58.916 132.119 50.9123 137.161 49.0857 145.207C47.2591 153.253 52.3012 161.257 60.3476 163.084C68.3939 164.91 76.3976 159.868 78.2242 151.822Z" fill="white"/>
<path d="M78.2252 193.062C80.0518 185.015 75.0097 177.012 66.9633 175.185C58.9169 173.358 50.9133 178.4 49.0867 186.447C47.2601 194.493 52.3022 202.497 60.3486 204.323C68.3949 206.15 76.3986 201.108 78.2252 193.062Z" fill="#407BFF"/>
<path opacity="0.6" d="M78.2252 193.062C80.0518 185.015 75.0097 177.012 66.9633 175.185C58.9169 173.358 50.9133 178.4 49.0867 186.447C47.2601 194.493 52.3022 202.497 60.3486 204.323C68.3949 206.15 76.3986 201.108 78.2252 193.062Z" fill="white"/>
<path d="M158.42 111.674L155.283 108.427L151.937 112.745C151.937 112.745 154.486 115.201 157.518 114.491L158.42 111.674Z" fill="#9F5B53"/>
<path d="M150.971 106.646L149.539 111.174L151.937 112.745L155.283 108.427L150.971 106.646Z" fill="#9F5B53"/>
<path d="M108.252 106.89C108.511 106.119 108.935 105.414 109.493 104.822C110.051 104.23 110.73 103.767 111.484 103.462C112.239 103.158 113.05 103.021 113.862 103.06C114.674 103.099 115.469 103.314 116.19 103.689L112.698 101.873C111.406 101.22 110.406 100.104 109.899 98.7472C109.392 97.3904 109.415 95.8925 109.963 94.5517C110.273 93.8448 110.724 93.2091 111.29 92.6836C111.855 92.1582 112.522 91.7543 113.25 91.4968C113.978 91.2394 114.75 91.1339 115.52 91.1868C116.29 91.2397 117.041 91.45 117.727 91.8046L114.235 89.9946C112.941 89.3413 111.94 88.2243 111.433 86.8661C110.926 85.508 110.95 84.0087 111.499 82.6672C111.809 81.9542 112.262 81.3127 112.831 80.7832C113.4 80.2536 114.072 79.8474 114.806 79.59C115.539 79.3326 116.318 79.2295 117.093 79.2874C117.868 79.3452 118.623 79.5626 119.31 79.926L102.729 71.2542C101.509 70.6445 100.546 69.6201 100.012 68.3649C99.4792 67.1096 99.4105 65.7054 99.8186 64.4041C100.08 63.6337 100.504 62.9288 101.063 62.3377C101.621 61.7466 102.301 61.2831 103.056 60.9792C103.81 60.6752 104.621 60.5378 105.434 60.5764C106.246 60.6151 107.041 60.8288 107.763 61.2031L142.683 79.4604L139.098 64.7475C138.745 63.2693 138.965 61.7123 139.716 60.3907C140.466 59.069 141.69 58.0813 143.14 57.627C144.59 57.1726 146.159 57.2855 147.529 57.9428C148.899 58.6 149.969 59.7527 150.522 61.1682L161.976 90.92C162.957 93.4629 164.829 95.5624 167.243 96.8273L169.24 97.8691C169.545 98.0286 169.817 98.2469 170.038 98.5116C170.259 98.7763 170.426 99.0821 170.529 99.4115C170.632 99.7408 170.668 100.087 170.637 100.431C170.605 100.774 170.506 101.108 170.345 101.413L156.377 128.098C156.054 128.715 155.499 129.178 154.835 129.386C154.17 129.595 153.451 129.531 152.833 129.21L147.933 126.649C146.076 125.696 143.996 125.266 141.915 125.403C136.881 125.685 131.866 124.599 127.4 122.261L111.104 113.74C109.894 113.121 108.944 112.092 108.422 110.838C107.899 109.584 107.839 108.185 108.252 106.89Z" fill="#407BFF"/>
<path d="M154.079 130.368C153.515 130.369 152.96 130.233 152.461 129.972L147.56 127.412C145.843 126.532 143.922 126.13 141.996 126.248C136.806 126.539 131.634 125.421 127.027 123.012L110.731 114.491C109.335 113.777 108.238 112.591 107.634 111.144C107.029 109.697 106.958 108.083 107.431 106.588C107.73 105.696 108.22 104.88 108.866 104.196C109.513 103.513 110.3 102.978 111.174 102.63C111.41 102.532 111.653 102.45 111.901 102.386C110.541 101.57 109.518 100.293 109.02 98.7864C108.523 97.2802 108.582 95.6452 109.189 94.1794C109.541 93.3579 110.061 92.6192 110.715 92.0108C111.37 91.4023 112.145 90.9377 112.99 90.6467C113.147 90.5943 113.304 90.5419 113.461 90.5012C112.099 89.6864 111.076 88.4092 110.578 86.9026C110.08 85.396 110.141 83.7606 110.749 82.295C111.101 81.4746 111.622 80.737 112.276 80.1296C112.931 79.5222 113.705 79.0584 114.549 78.7681C114.695 78.7157 114.846 78.6691 114.992 78.6284L102.327 72.0052C100.931 71.291 99.8337 70.105 99.2296 68.6579C98.6254 67.2109 98.5537 65.5965 99.0274 64.1017C99.3287 63.2122 99.8188 62.3985 100.464 61.716C101.109 61.0335 101.894 60.4985 102.765 60.1476C103.636 59.7966 104.573 59.638 105.511 59.6826C106.449 59.7272 107.366 59.9739 108.2 60.406L141.426 77.7961L138.289 64.9514C137.887 63.2585 138.142 61.476 139.003 59.9641C139.864 58.4521 141.267 57.3235 142.929 56.8062C144.59 56.2888 146.386 56.4214 147.953 57.1771C149.521 57.9329 150.743 59.2553 151.372 60.8774L162.826 90.6292C163.731 92.9748 165.458 94.9111 167.686 96.0767L169.676 97.1185C170.084 97.3308 170.445 97.6215 170.74 97.9738C171.035 98.3261 171.258 98.7332 171.395 99.1717C171.533 99.6102 171.582 100.071 171.541 100.529C171.499 100.987 171.368 101.432 171.155 101.839L157.187 128.529C156.885 129.09 156.437 129.557 155.889 129.882C155.341 130.206 154.715 130.374 154.079 130.368ZM142.654 124.496C144.641 124.485 146.602 124.954 148.369 125.863L153.27 128.424C153.474 128.532 153.697 128.599 153.927 128.62C154.156 128.642 154.388 128.617 154.608 128.549C154.829 128.48 155.033 128.368 155.21 128.22C155.387 128.072 155.532 127.89 155.639 127.685L169.607 100.995C169.714 100.791 169.779 100.568 169.8 100.338C169.82 100.109 169.795 99.8778 169.726 99.6581C169.657 99.4385 169.545 99.2348 169.396 99.0586C169.248 98.8824 169.066 98.7374 168.862 98.6317L166.871 97.5899C164.276 96.2292 162.265 93.9699 161.214 91.2345L149.754 61.4827C149.294 60.2573 148.383 59.2547 147.206 58.6806C146.03 58.1065 144.679 58.0044 143.43 58.3955C142.181 58.7865 141.129 59.6409 140.49 60.7833C139.851 61.9256 139.674 63.2692 139.994 64.5382L143.591 79.2569C143.631 79.4193 143.623 79.5897 143.568 79.7477C143.514 79.9057 143.414 80.0445 143.283 80.1474C143.151 80.2525 142.992 80.3167 142.824 80.3322C142.657 80.3477 142.488 80.3138 142.34 80.2347L107.42 61.9774C106.811 61.6609 106.141 61.4799 105.456 61.4468C104.771 61.4136 104.087 61.5291 103.451 61.7853C102.806 62.0363 102.226 62.4278 101.752 62.9311C101.278 63.4345 100.921 64.0371 100.709 64.6953C100.362 65.7991 100.418 66.9905 100.868 68.0567C101.318 69.1228 102.132 69.9943 103.165 70.5153L119.752 79.1871C119.958 79.2944 120.112 79.4788 120.181 79.6998C120.251 79.9209 120.229 80.1604 120.122 80.3657C120.069 80.4673 119.996 80.5575 119.908 80.6311C119.82 80.7047 119.719 80.7602 119.609 80.7945C119.388 80.8638 119.149 80.8425 118.943 80.7352C118.364 80.4347 117.73 80.2564 117.079 80.2114C116.428 80.1663 115.775 80.2555 115.16 80.4733C114.543 80.686 113.977 81.0252 113.498 81.4691C113.019 81.9131 112.637 82.452 112.378 83.0516C111.915 84.189 111.898 85.4591 112.329 86.609C112.76 87.7588 113.609 88.7038 114.706 89.2557L118.198 91.0715C118.386 91.1877 118.523 91.3708 118.581 91.5837C118.639 91.7967 118.615 92.0239 118.512 92.2194C118.41 92.4149 118.237 92.5643 118.028 92.6375C117.82 92.7107 117.592 92.7023 117.389 92.6138C116.811 92.3145 116.178 92.1368 115.528 92.0918C114.878 92.0467 114.226 92.1353 113.612 92.3519C112.995 92.5659 112.428 92.9062 111.949 93.3511C111.47 93.796 111.089 94.3358 110.83 94.936C110.369 96.0727 110.352 97.3415 110.783 98.49C111.215 99.6385 112.063 100.583 113.158 101.134L116.65 102.95C116.856 103.057 117.01 103.242 117.079 103.463C117.149 103.684 117.127 103.923 117.02 104.129C116.913 104.334 116.728 104.488 116.507 104.558C116.286 104.627 116.047 104.606 115.841 104.498C115.232 104.184 114.562 104.005 113.877 103.973C113.192 103.941 112.508 104.056 111.872 104.312C111.23 104.566 110.652 104.958 110.179 105.461C109.706 105.964 109.35 106.566 109.137 107.222C108.788 108.326 108.843 109.518 109.293 110.584C109.744 111.651 110.559 112.522 111.593 113.042L127.889 121.563C132.207 123.795 137.045 124.826 141.897 124.548C142.154 124.548 142.404 124.507 142.654 124.507V124.496Z" fill="#407BFF"/>
<path d="M120.55 106.838C120.408 106.839 120.268 106.805 120.143 106.739L115.818 104.463C115.717 104.41 115.627 104.338 115.553 104.25C115.479 104.162 115.424 104.06 115.39 103.951C115.355 103.841 115.343 103.726 115.353 103.612C115.363 103.498 115.396 103.386 115.449 103.285C115.502 103.183 115.575 103.093 115.663 103.019C115.751 102.946 115.852 102.89 115.962 102.856C116.071 102.822 116.186 102.809 116.3 102.819C116.415 102.83 116.526 102.862 116.627 102.915L120.975 105.191C121.148 105.281 121.286 105.427 121.366 105.605C121.447 105.782 121.466 105.982 121.419 106.172C121.373 106.361 121.265 106.53 121.111 106.651C120.958 106.772 120.769 106.837 120.573 106.838H120.55Z" fill="#407BFF"/>
<path d="M122.109 94.9533C121.967 94.9551 121.827 94.9211 121.702 94.8543L117.354 92.5787C117.245 92.5307 117.146 92.4606 117.064 92.3728C116.983 92.2849 116.92 92.1812 116.88 92.0681C116.841 91.955 116.825 91.835 116.833 91.7154C116.842 91.5959 116.875 91.4794 116.931 91.3732C116.987 91.2671 117.064 91.1736 117.157 91.0984C117.25 91.0233 117.358 90.9682 117.474 90.9366C117.59 90.905 117.71 90.8976 117.829 90.9148C117.948 90.9319 118.062 90.9733 118.163 91.0364L122.511 93.3062C122.684 93.3965 122.822 93.5421 122.902 93.7199C122.983 93.8977 123.002 94.0974 122.955 94.2871C122.909 94.4767 122.801 94.6454 122.647 94.7662C122.494 94.8869 122.305 94.9528 122.109 94.9533Z" fill="#407BFF"/>
<path d="M123.663 83.0747C123.524 83.0731 123.386 83.0392 123.262 82.9758L118.914 80.7002C118.813 80.647 118.722 80.5744 118.649 80.4865C118.575 80.3985 118.52 80.2969 118.485 80.1874C118.451 80.078 118.439 79.9629 118.449 79.8486C118.459 79.7344 118.492 79.6233 118.545 79.5216C118.598 79.42 118.67 79.3298 118.758 79.2562C118.846 79.1826 118.948 79.1271 119.057 79.0927C119.167 79.0584 119.282 79.046 119.396 79.0562C119.51 79.0664 119.622 79.0989 119.723 79.152L124.071 81.4277C124.244 81.5182 124.382 81.6643 124.463 81.8427C124.543 82.0211 124.562 82.2214 124.515 82.4114C124.468 82.6013 124.358 82.77 124.204 82.8903C124.049 83.0106 123.859 83.0756 123.663 83.0747Z" fill="#407BFF"/>
<path opacity="0.3" d="M154.079 130.368C153.515 130.369 152.96 130.233 152.461 129.972L147.56 127.412C145.843 126.532 143.922 126.13 141.996 126.248C136.806 126.539 131.634 125.421 127.027 123.012L110.731 114.491C109.335 113.777 108.238 112.591 107.634 111.144C107.029 109.697 106.958 108.083 107.431 106.588C107.73 105.696 108.22 104.88 108.866 104.196C109.513 103.513 110.3 102.978 111.174 102.63C111.41 102.532 111.653 102.45 111.901 102.386C110.541 101.57 109.518 100.293 109.02 98.7864C108.523 97.2802 108.582 95.6452 109.189 94.1794C109.541 93.3579 110.061 92.6192 110.715 92.0108C111.37 91.4023 112.145 90.9377 112.99 90.6467C113.147 90.5943 113.304 90.5419 113.461 90.5012C112.099 89.6864 111.076 88.4092 110.578 86.9026C110.08 85.396 110.141 83.7606 110.749 82.295C111.101 81.4746 111.622 80.737 112.276 80.1296C112.931 79.5222 113.705 79.0584 114.549 78.7681C114.695 78.7157 114.846 78.6691 114.992 78.6284L102.327 72.0052C100.931 71.291 99.8337 70.105 99.2296 68.6579C98.6254 67.2109 98.5537 65.5965 99.0274 64.1017C99.3287 63.2122 99.8188 62.3985 100.464 61.716C101.109 61.0335 101.894 60.4985 102.765 60.1476C103.636 59.7966 104.573 59.638 105.511 59.6826C106.449 59.7272 107.366 59.9739 108.2 60.406L141.426 77.7961L138.289 64.9514C137.887 63.2585 138.142 61.476 139.003 59.9641C139.864 58.4521 141.267 57.3235 142.929 56.8062C144.59 56.2888 146.386 56.4214 147.953 57.1771C149.521 57.9329 150.743 59.2553 151.372 60.8774L162.826 90.6292C163.731 92.9748 165.458 94.9111 167.686 96.0767L169.676 97.1185C170.084 97.3308 170.445 97.6215 170.74 97.9738C171.035 98.3261 171.258 98.7332 171.395 99.1717C171.533 99.6102 171.582 100.071 171.541 100.529C171.499 100.987 171.368 101.432 171.155 101.839L157.187 128.529C156.885 129.09 156.437 129.557 155.889 129.882C155.341 130.206 154.715 130.374 154.079 130.368ZM142.654 124.496C144.641 124.485 146.602 124.954 148.369 125.863L153.27 128.424C153.474 128.532 153.697 128.599 153.927 128.62C154.156 128.642 154.388 128.617 154.608 128.549C154.829 128.48 155.033 128.368 155.21 128.22C155.387 128.072 155.532 127.89 155.639 127.685L169.607 100.995C169.714 100.791 169.779 100.568 169.8 100.338C169.82 100.109 169.795 99.8778 169.726 99.6581C169.657 99.4385 169.545 99.2348 169.396 99.0586C169.248 98.8824 169.066 98.7374 168.862 98.6317L166.871 97.5899C164.276 96.2292 162.265 93.9699 161.214 91.2345L149.754 61.4827C149.294 60.2573 148.383 59.2547 147.206 58.6806C146.03 58.1065 144.679 58.0044 143.43 58.3955C142.181 58.7865 141.129 59.6409 140.49 60.7833C139.851 61.9256 139.674 63.2692 139.994 64.5382L143.591 79.2569C143.631 79.4193 143.623 79.5897 143.568 79.7477C143.514 79.9057 143.414 80.0445 143.283 80.1474C143.151 80.2525 142.992 80.3167 142.824 80.3322C142.657 80.3477 142.488 80.3138 142.34 80.2347L107.42 61.9774C106.811 61.6609 106.141 61.4799 105.456 61.4468C104.771 61.4136 104.087 61.5291 103.451 61.7853C102.806 62.0363 102.226 62.4278 101.752 62.9311C101.278 63.4345 100.921 64.0371 100.709 64.6953C100.362 65.7991 100.418 66.9905 100.868 68.0567C101.318 69.1228 102.132 69.9943 103.165 70.5153L119.752 79.1871C119.958 79.2944 120.112 79.4788 120.181 79.6998C120.251 79.9209 120.229 80.1604 120.122 80.3657C120.069 80.4673 119.996 80.5575 119.908 80.6311C119.82 80.7047 119.719 80.7602 119.609 80.7945C119.388 80.8638 119.149 80.8425 118.943 80.7352C118.364 80.4347 117.73 80.2564 117.079 80.2114C116.428 80.1663 115.775 80.2555 115.16 80.4733C114.543 80.686 113.977 81.0252 113.498 81.4691C113.019 81.9131 112.637 82.452 112.378 83.0516C111.915 84.189 111.898 85.4591 112.329 86.609C112.76 87.7588 113.609 88.7038 114.706 89.2557L118.198 91.0715C118.386 91.1877 118.523 91.3708 118.581 91.5837C118.639 91.7967 118.615 92.0239 118.512 92.2194C118.41 92.4149 118.237 92.5643 118.028 92.6375C117.82 92.7107 117.592 92.7023 117.389 92.6138C116.811 92.3145 116.178 92.1368 115.528 92.0918C114.878 92.0467 114.226 92.1353 113.612 92.3519C112.995 92.5659 112.428 92.9062 111.949 93.3511C111.47 93.796 111.089 94.3358 110.83 94.936C110.369 96.0727 110.352 97.3415 110.783 98.49C111.215 99.6385 112.063 100.583 113.158 101.134L116.65 102.95C116.856 103.057 117.01 103.242 117.079 103.463C117.149 103.684 117.127 103.923 117.02 104.129C116.913 104.334 116.728 104.488 116.507 104.558C116.286 104.627 116.047 104.606 115.841 104.498C115.232 104.184 114.562 104.005 113.877 103.973C113.192 103.941 112.508 104.056 111.872 104.312C111.23 104.566 110.652 104.958 110.179 105.461C109.706 105.964 109.35 106.566 109.137 107.222C108.788 108.326 108.843 109.518 109.293 110.584C109.744 111.651 110.559 112.522 111.593 113.042L127.889 121.563C132.207 123.795 137.045 124.826 141.897 124.548C142.154 124.548 142.404 124.507 142.654 124.507V124.496Z" fill="black"/>
</g>
<defs>
<clipPath id="clip0_2957_26958">
<rect width="291" height="291" fill="white"/>
</clipPath>
</defs>
</svg>
