<svg width="218" height="218" viewBox="0 0 218 218" fill="none" xmlns="http://www.w3.org/2000/svg">
<path d="M218 166.726H0V166.835H218V166.726Z" fill="#EBEBEB"/>
<path d="M196.156 173.742H181.716V173.851H196.156V173.742Z" fill="#EBEBEB"/>
<path d="M144.412 174.927H140.623V175.036H144.412V174.927Z" fill="#EBEBEB"/>
<path d="M181.28 169.696H172.913V169.805H181.28V169.696Z" fill="#EBEBEB"/>
<path d="M41.7034 170.428H22.8726V170.537H41.7034V170.428Z" fill="#EBEBEB"/>
<path d="M48.348 170.428H45.5881V170.537H48.348V170.428Z" fill="#EBEBEB"/>
<path d="M98.1653 172.268H57.3208V172.377H98.1653V172.268Z" fill="#EBEBEB"/>
<path d="M103.332 147.281H19.1449C18.4854 147.28 17.8532 147.017 17.3873 146.55C16.9214 146.083 16.6597 145.451 16.6597 144.791V26.4477C16.6654 25.792 16.9296 25.165 17.395 24.703C17.8603 24.2409 18.4891 23.9811 19.1449 23.98H103.332C103.992 23.98 104.626 24.2423 105.092 24.7092C105.559 25.176 105.822 25.8093 105.822 26.4695V144.791C105.822 145.451 105.559 146.085 105.092 146.552C104.626 147.019 103.992 147.281 103.332 147.281ZM19.1449 24.0672C18.5143 24.0683 17.9099 24.3197 17.4644 24.766C17.0189 25.2123 16.7687 25.8171 16.7687 26.4477V144.791C16.7687 145.422 17.0189 146.027 17.4644 146.473C17.9099 146.919 18.5143 147.171 19.1449 147.172H103.332C103.963 147.171 104.568 146.919 105.014 146.473C105.46 146.027 105.712 145.422 105.713 144.791V26.4477C105.712 25.8167 105.46 25.2119 105.014 24.7657C104.568 24.3195 103.963 24.0683 103.332 24.0672H19.1449Z" fill="#EBEBEB"/>
<path d="M197.643 147.281H113.451C112.792 147.28 112.159 147.017 111.692 146.55C111.226 146.084 110.963 145.451 110.962 144.791V26.4477C110.969 25.7916 111.234 25.1646 111.7 24.7027C112.166 24.2408 112.795 23.9811 113.451 23.98H197.643C198.298 23.9822 198.926 24.2426 199.39 24.7045C199.855 25.1664 200.118 25.7928 200.124 26.4477V144.791C200.124 145.45 199.863 146.082 199.398 146.549C198.933 147.015 198.302 147.278 197.643 147.281ZM113.451 24.0672C112.82 24.0683 112.216 24.3195 111.769 24.7657C111.323 25.2119 111.072 25.8167 111.071 26.4477V144.791C111.072 145.422 111.323 146.027 111.769 146.473C112.216 146.919 112.82 147.171 113.451 147.172H197.643C198.274 147.171 198.879 146.919 199.325 146.473C199.771 146.027 200.022 145.422 200.024 144.791V26.4477C200.022 25.8167 199.771 25.2119 199.325 24.7657C198.879 24.3195 198.274 24.0683 197.643 24.0672H113.451Z" fill="#EBEBEB"/>
<path d="M95.5277 166.726H103.646V110.975H95.5277V166.726Z" fill="#E6E6E6"/>
<path d="M98.3877 166.726H95.5276V156.132H101.383L98.3877 166.726Z" fill="#F0F0F0"/>
<path d="M181.389 166.726H189.507V110.975H181.389V166.726Z" fill="#E6E6E6"/>
<path d="M95.532 163.831H183.883V110.971L95.532 110.971V163.831Z" fill="#F0F0F0"/>
<path d="M181.023 166.726H183.883V156.132H178.028L181.023 166.726Z" fill="#F0F0F0"/>
<path d="M154.754 115.348V159.075H180.944V115.348H154.754Z" fill="#E6E6E6"/>
<path d="M165.244 116.887H170.424C172.619 116.919 174.747 116.127 176.388 114.668H159.306C160.94 116.12 163.057 116.911 165.244 116.887Z" fill="#F0F0F0"/>
<path d="M126.61 115.348V159.075H152.801V115.348H126.61Z" fill="#E6E6E6"/>
<path d="M136.847 116.887H142.031C144.222 116.915 146.345 116.123 147.983 114.668H130.9C132.537 116.123 134.658 116.915 136.847 116.887Z" fill="#F0F0F0"/>
<path d="M98.4663 115.353V159.079H124.657V115.353H98.4663Z" fill="#E6E6E6"/>
<path d="M108.708 116.887H113.888C116.079 116.915 118.201 116.123 119.839 114.668H102.757C104.394 116.124 106.517 116.916 108.708 116.887Z" fill="#F0F0F0"/>
<path d="M32.5257 166.726H87.9238L87.9238 42.196H32.5257L32.5257 166.726Z" fill="#F0F0F0"/>
<path d="M32.5257 166.726H86.7554L86.7554 42.196H32.5257L32.5257 166.726Z" fill="#F5F5F5"/>
<path d="M83.4504 163.901L83.4504 45.0214H35.8305L35.8305 163.901H83.4504Z" fill="#F0F0F0"/>
<path d="M78.7722 67.144C78.7728 65.4391 78.4375 63.7508 77.7854 62.1755C77.1334 60.6003 76.1774 59.1689 74.9721 57.9631C73.7667 56.7574 72.3357 55.8009 70.7606 55.1483C69.1855 54.4958 67.4973 54.1599 65.7925 54.1599H53.4973C50.0537 54.1599 46.7511 55.5279 44.3161 57.9629C41.8811 60.3979 40.5132 63.7004 40.5132 67.144H78.7722Z" fill="#FAFAFA"/>
<path d="M78.7764 156.511V128.11H40.5174V156.511H78.7764Z" fill="#F5F5F5"/>
<path d="M78.7765 75.1359H61.8989V124.443H78.7765V75.1359Z" fill="#F5F5F5"/>
<path d="M57.3907 75.1359H40.5132V124.443H57.3907V75.1359Z" fill="#F5F5F5"/>
<path d="M46.6519 99.5693H39.7195C39.4351 99.5693 39.1623 99.4563 38.9611 99.2552C38.76 99.054 38.647 98.7812 38.647 98.4968C38.6481 98.2127 38.7615 97.9405 38.9624 97.7396C39.1633 97.5387 39.4354 97.4253 39.7195 97.4242H46.6519C46.936 97.4253 47.2082 97.5387 47.4091 97.7396C47.61 97.9405 47.7233 98.2127 47.7245 98.4968C47.7245 98.7812 47.6115 99.054 47.4103 99.2552C47.2092 99.4563 46.9364 99.5693 46.6519 99.5693Z" fill="#E0E0E0"/>
<path d="M36.6895 163.901L36.6895 45.0214H35.8305L35.8305 163.901H36.6895Z" fill="#F0F0F0"/>
<path d="M122.969 97.3064L181.716 97.3064V35.8958L122.969 35.8958V97.3064Z" fill="#E6E6E6"/>
<path d="M121.487 97.3064L180.234 97.3064V35.8958L121.487 35.8958V97.3064Z" fill="#F5F5F5"/>
<path d="M118.056 100.498L181.716 100.498V97.3064L118.056 97.3064V100.498Z" fill="#E6E6E6"/>
<path d="M116.386 100.498L176.768 100.498V97.3064L116.386 97.3064V100.498Z" fill="#F5F5F5"/>
<path d="M177.578 94.442V38.7648H124.147V94.442H177.578Z" fill="white"/>
<path d="M152.343 94.442V38.7648H149.382V94.442H152.343Z" fill="#F5F5F5"/>
<path d="M125.263 94.442V38.7648H124.142V94.442H125.263Z" fill="#E6E6E6"/>
<path d="M153.463 94.442V38.7648H152.343V94.442H153.463Z" fill="#E6E6E6"/>
<path d="M130.865 98.7671C129.784 87.5706 129.03 69.4068 129.614 63.329C129.626 63.2254 129.659 63.1255 129.712 63.0354C129.764 62.9454 129.835 62.8672 129.919 62.8058C130.032 62.7233 130.165 62.674 130.305 62.6637C130.444 62.6533 130.583 62.6823 130.707 62.7473C130.83 62.8122 130.933 62.9106 131.004 63.0312C131.074 63.1518 131.109 63.2897 131.105 63.4293C131.005 66.442 130.887 73.9674 131.541 86.9471C131.859 93.4086 132.317 97.8471 132.003 98.7671H130.865Z" fill="#E6E6E6"/>
<path d="M126.837 72.9646C123.759 69.5464 117.476 67.1178 111.075 67.1309C108.56 67.1309 118.723 71.1029 122.948 75.4847C126.231 78.8855 129.924 84.6102 131.192 87.7886C130.364 81.096 129.928 76.3785 126.837 72.9646Z" fill="#E6E6E6"/>
<path d="M132.937 74.0066C135.491 70.4489 141.386 67.7108 147.761 67.4012C150.263 67.2792 140.732 71.7612 137.174 76.3218C134.415 79.8752 131.581 85.7656 130.8 88.992C130.621 82.2906 130.364 77.5644 132.937 74.0066Z" fill="#E6E6E6"/>
<path d="M126.702 60.4906C124.086 57.5956 118.775 55.5376 113.351 55.5507C111.224 55.5507 119.826 58.9166 123.405 62.6226C126.187 65.5046 129.322 70.3529 130.381 73.043C129.697 67.3838 129.305 63.3813 126.702 60.4906Z" fill="#E6E6E6"/>
<path d="M131.864 64.7678C134.044 61.7551 139.019 59.4355 144.425 59.1739C146.544 59.0737 138.474 62.8538 135.461 66.7298C133.124 69.7382 130.721 74.7261 130.063 77.4598C129.928 71.7831 129.701 67.7806 131.864 64.7678Z" fill="#E6E6E6"/>
<path d="M131.297 110.975C129.673 110.975 128.111 110.355 126.931 109.24C125.75 108.125 125.041 106.601 124.949 104.98L124.386 95.2485H138.212L137.65 104.98C137.557 106.602 136.847 108.127 135.666 109.241C134.485 110.356 132.921 110.977 131.297 110.975Z" fill="#E6E6E6"/>
<path d="M139.106 97.459H123.493L123.043 93.4086H139.55L139.106 97.459Z" fill="#E6E6E6"/>
<path d="M109 186.416C155.688 186.416 193.536 184.206 193.536 181.481C193.536 178.755 155.688 176.545 109 176.545C62.3119 176.545 24.4639 178.755 24.4639 181.481C24.4639 184.206 62.3119 186.416 109 186.416Z" fill="#F5F5F5"/>
<path d="M22.8027 49.4991C22.805 48.7736 23.0942 48.0785 23.6072 47.5655C24.1202 47.0525 24.8153 46.7633 25.5408 46.761H147.717C148.442 46.7633 149.137 47.0525 149.65 47.5655C150.163 48.0785 150.453 48.7736 150.455 49.4991V58.3106H22.8027V49.4991Z" fill="#263238"/>
<path d="M44.9385 54.8444C44.4815 54.8444 44.0347 54.7089 43.6547 54.4549C43.2747 54.201 42.9785 53.8401 42.8036 53.4179C42.6287 52.9956 42.5829 52.531 42.6721 52.0828C42.7613 51.6345 42.9813 51.2228 43.3045 50.8996C43.6277 50.5764 44.0394 50.3563 44.4877 50.2672C44.9359 50.178 45.4005 50.2238 45.8228 50.3987C46.245 50.5736 46.6059 50.8698 46.8598 51.2498C47.1138 51.6298 47.2493 52.0765 47.2493 52.5336C47.2493 53.1464 47.0058 53.7342 46.5725 54.1676C46.1391 54.6009 45.5513 54.8444 44.9385 54.8444ZM44.9385 50.7067C44.5772 50.7067 44.224 50.8139 43.9235 51.0146C43.6231 51.2154 43.389 51.5007 43.2507 51.8345C43.1124 52.1683 43.0763 52.5356 43.1467 52.89C43.2172 53.2443 43.3912 53.5699 43.6467 53.8253C43.9022 54.0808 44.2277 54.2548 44.5821 54.3253C44.9365 54.3958 45.3038 54.3596 45.6376 54.2214C45.9714 54.0831 46.2567 53.8489 46.4574 53.5485C46.6582 53.2481 46.7653 52.8949 46.7653 52.5336C46.7642 52.0494 46.5713 51.5854 46.229 51.2431C45.8866 50.9007 45.4226 50.7079 44.9385 50.7067Z" fill="#F0F0F0"/>
<path d="M37.6006 54.8444C37.1438 54.8435 36.6974 54.7073 36.318 54.4528C35.9386 54.1984 35.6431 53.8372 35.4688 53.4149C35.2946 52.9925 35.2495 52.5281 35.3391 52.0801C35.4288 51.6321 35.6492 51.2208 35.9725 50.8981C36.2959 50.5753 36.7076 50.3557 37.1558 50.2669C37.6039 50.1781 38.0683 50.2241 38.4903 50.3991C38.9123 50.5741 39.2729 50.8703 39.5267 51.2502C39.7804 51.6301 39.9158 52.0767 39.9158 52.5336C39.9158 52.8374 39.8559 53.1382 39.7395 53.4189C39.6231 53.6995 39.4525 53.9545 39.2374 54.1691C39.0224 54.3837 38.7671 54.5539 38.4863 54.6697C38.2054 54.7856 37.9045 54.8449 37.6006 54.8444ZM37.6006 50.7067C37.2395 50.7076 36.8867 50.8155 36.5869 51.0167C36.287 51.218 36.0536 51.5036 35.916 51.8375C35.7784 52.1714 35.7428 52.5386 35.8138 52.8926C35.8848 53.2467 36.0591 53.5718 36.3148 53.8269C36.5704 54.0819 36.8959 54.2555 37.2502 54.3256C37.6044 54.3958 37.9715 54.3593 38.3051 54.2209C38.6387 54.0825 38.9237 53.8484 39.1243 53.5481C39.3248 53.2477 39.4318 52.8947 39.4318 52.5336C39.4307 52.0487 39.2372 51.584 38.8939 51.2415C38.5507 50.8991 38.0855 50.7067 37.6006 50.7067Z" fill="#F0F0F0"/>
<path d="M30.2671 54.8444C29.8103 54.8435 29.3639 54.7073 28.9845 54.4528C28.6051 54.1984 28.3096 53.8372 28.1353 53.4149C27.9611 52.9925 27.916 52.5281 28.0056 52.0801C28.0953 51.6321 28.3157 51.2208 28.6391 50.8981C28.9624 50.5753 29.3741 50.3557 29.8223 50.2669C30.2704 50.1781 30.7348 50.2241 31.1568 50.3991C31.5788 50.5741 31.9394 50.8703 32.1932 51.2502C32.4469 51.6301 32.5823 52.0767 32.5823 52.5336C32.5823 52.8374 32.5224 53.1382 32.406 53.4189C32.2896 53.6995 32.119 53.9545 31.9039 54.1691C31.6889 54.3837 31.4336 54.5539 31.1528 54.6697C30.8719 54.7856 30.571 54.8449 30.2671 54.8444ZM30.2671 50.7067C29.9058 50.7067 29.5526 50.8139 29.2522 51.0146C28.9518 51.2153 28.7176 51.5007 28.5794 51.8345C28.4411 52.1683 28.4049 52.5356 28.4754 52.89C28.5459 53.2443 28.7199 53.5699 28.9754 53.8253C29.2309 54.0808 29.5564 54.2548 29.9107 54.3253C30.2651 54.3958 30.6324 54.3596 30.9662 54.2214C31.3 54.0831 31.5854 53.8489 31.7861 53.5485C31.9868 53.2481 32.094 52.8949 32.094 52.5336C32.0928 52.0494 31.9 51.5854 31.5576 51.2431C31.2153 50.9007 30.7513 50.7079 30.2671 50.7067Z" fill="#F0F0F0"/>
<path d="M147.717 142.385H25.5408C24.8153 142.382 24.1202 142.093 23.6072 141.58C23.0942 141.067 22.805 140.372 22.8027 139.646V58.3107H150.455V139.646C150.453 140.372 150.163 141.067 149.65 141.58C149.137 142.093 148.442 142.382 147.717 142.385Z" fill="#407BFF"/>
<path d="M149.679 60.652H23.5789V132.736H149.679V60.652Z" fill="white"/>
<path d="M79.4521 66.8301H31.418C30.5006 66.8301 29.7568 67.5738 29.7568 68.4912V74.9048C29.7568 75.8222 30.5006 76.566 31.418 76.566H79.4521C80.3695 76.566 81.1133 75.8222 81.1133 74.9048V68.4912C81.1133 67.5738 80.3695 66.8301 79.4521 66.8301Z" fill="#407BFF"/>
<path d="M141.84 67.2661C142.165 67.2661 142.476 67.3952 142.706 67.6249C142.936 67.8547 143.065 68.1663 143.065 68.4912V74.9048C143.065 75.2297 142.936 75.5414 142.706 75.7711C142.476 76.0009 142.165 76.13 141.84 76.13H93.8054C93.4805 76.13 93.1689 76.0009 92.9391 75.7711C92.7094 75.5414 92.5803 75.2297 92.5803 74.9048V68.4912C92.5803 68.1663 92.7094 67.8547 92.9391 67.6249C93.1689 67.3952 93.4805 67.2661 93.8054 67.2661H141.84ZM141.84 66.8301H93.8054C93.3652 66.8312 92.9434 67.0066 92.6321 67.3179C92.3208 67.6292 92.1454 68.051 92.1443 68.4912V74.9048C92.1443 75.3454 92.3193 75.7679 92.6308 76.0794C92.9424 76.3909 93.3649 76.566 93.8054 76.566H141.84C142.28 76.566 142.703 76.3909 143.014 76.0794C143.326 75.7679 143.501 75.3454 143.501 74.9048V68.4912C143.5 68.051 143.324 67.6292 143.013 67.3179C142.702 67.0066 142.28 66.8312 141.84 66.8301Z" fill="#407BFF"/>
<path d="M38.2937 80.926C39.8959 80.926 41.4621 81.4011 42.7943 82.2912C44.1265 83.1814 45.1648 84.4466 45.778 85.9268C46.3911 87.407 46.5515 89.0359 46.2389 90.6073C45.9264 92.1787 45.1548 93.6221 44.0219 94.7551C42.889 95.888 41.4455 96.6595 39.8741 96.9721C38.3027 97.2847 36.6739 97.1242 35.1936 96.5111C33.7134 95.898 32.4482 94.8597 31.5581 93.5275C30.6679 92.1953 30.1928 90.6291 30.1928 89.0269C30.1951 86.8791 31.0494 84.8199 32.5681 83.3012C34.0868 81.7825 36.1459 80.9283 38.2937 80.926ZM38.2937 80.49C36.6053 80.49 34.9548 80.9907 33.5509 81.9287C32.147 82.8668 31.0528 84.2 30.4067 85.7599C29.7605 87.3199 29.5915 89.0363 29.9209 90.6923C30.2503 92.3483 31.0633 93.8695 32.2572 95.0634C33.4511 96.2573 34.9723 97.0703 36.6283 97.3997C38.2843 97.7291 40.0007 97.5601 41.5606 96.9139C43.1206 96.2678 44.4538 95.1736 45.3919 93.7697C46.3299 92.3658 46.8306 90.7153 46.8306 89.0269C46.8306 86.7627 45.9312 84.5914 44.3302 82.9904C42.7292 81.3894 40.5578 80.49 38.2937 80.49Z" fill="#407BFF"/>
<path opacity="0.4" d="M44.472 92.384C43.8671 93.4991 42.9724 94.4303 41.8823 95.0791C40.7922 95.728 39.5472 96.0705 38.2786 96.0705C37.01 96.0705 35.7649 95.728 34.6748 95.0791C33.5847 94.4303 32.69 93.4991 32.0852 92.384C33.9183 91.1586 36.0737 90.5045 38.2786 90.5045C40.4835 90.5045 42.6389 91.1586 44.472 92.384Z" fill="#407BFF"/>
<path opacity="0.4" d="M38.2937 89.755C40.0275 89.755 41.4329 88.3495 41.4329 86.6158C41.4329 84.882 40.0275 83.4766 38.2937 83.4766C36.56 83.4766 35.1545 84.882 35.1545 86.6158C35.1545 88.3495 36.56 89.755 38.2937 89.755Z" fill="#407BFF"/>
<path opacity="0.4" d="M139.11 93.4173H56.0172C54.8528 93.4173 53.736 92.9547 52.9127 92.1314C52.0893 91.308 51.6267 90.1912 51.6267 89.0268C51.6267 88.4504 51.7403 87.8797 51.961 87.3473C52.1817 86.8148 52.5052 86.3311 52.9129 85.9238C53.3207 85.5164 53.8047 85.1934 54.3374 84.9732C54.87 84.7531 55.4409 84.6401 56.0172 84.6406H139.11C139.686 84.6401 140.257 84.7531 140.79 84.9732C141.323 85.1934 141.807 85.5164 142.214 85.9238C142.622 86.3311 142.946 86.8148 143.166 87.3473C143.387 87.8797 143.501 88.4504 143.501 89.0268C143.501 90.1912 143.038 91.308 142.215 92.1314C141.391 92.9547 140.275 93.4173 139.11 93.4173Z" fill="#407BFF"/>
<path d="M38.2937 104.204C39.8959 104.204 41.4621 104.679 42.7943 105.569C44.1265 106.459 45.1648 107.725 45.778 109.205C46.3911 110.685 46.5515 112.314 46.2389 113.885C45.9264 115.457 45.1548 116.9 44.0219 118.033C42.889 119.166 41.4455 119.937 39.8741 120.25C38.3027 120.563 36.6739 120.402 35.1936 119.789C33.7134 119.176 32.4482 118.138 31.5581 116.805C30.6679 115.473 30.1928 113.907 30.1928 112.305C30.194 110.157 31.0479 108.097 32.5668 106.578C34.0858 105.059 36.1456 104.205 38.2937 104.204ZM38.2937 103.768C36.6053 103.768 34.9548 104.269 33.5509 105.207C32.147 106.145 31.0528 107.478 30.4067 109.038C29.7605 110.598 29.5915 112.314 29.9209 113.97C30.2503 115.626 31.0633 117.147 32.2572 118.341C33.4511 119.535 34.9723 120.348 36.6283 120.678C38.2843 121.007 40.0007 120.838 41.5606 120.192C43.1206 119.546 44.4538 118.452 45.3919 117.048C46.3299 115.644 46.8306 113.993 46.8306 112.305C46.8306 110.041 45.9312 107.869 44.3302 106.268C42.7292 104.667 40.5578 103.768 38.2937 103.768Z" fill="#407BFF"/>
<path opacity="0.4" d="M44.472 115.636C43.8671 116.751 42.9724 117.682 41.8823 118.331C40.7922 118.98 39.5472 119.322 38.2786 119.322C37.01 119.322 35.7649 118.98 34.6748 118.331C33.5847 117.682 32.69 116.751 32.0852 115.636C33.9193 114.413 36.0743 113.761 38.2786 113.761C40.4829 113.761 42.6378 114.413 44.472 115.636Z" fill="#407BFF"/>
<path opacity="0.4" d="M38.2937 113.011C40.0275 113.011 41.4329 111.606 41.4329 109.872C41.4329 108.138 40.0275 106.733 38.2937 106.733C36.56 106.733 35.1545 108.138 35.1545 109.872C35.1545 111.606 36.56 113.011 38.2937 113.011Z" fill="#407BFF"/>
<path opacity="0.4" d="M56.0172 107.893H139.11C140.275 107.893 141.391 108.355 142.215 109.179C143.038 110.002 143.501 111.119 143.501 112.283C143.501 113.448 143.038 114.564 142.215 115.388C141.391 116.211 140.275 116.674 139.11 116.674H56.0172C54.8528 116.674 53.736 116.211 52.9127 115.388C52.0893 114.564 51.6267 113.448 51.6267 112.283C51.6267 111.12 52.0888 110.004 52.9114 109.182C53.7339 108.359 54.8496 107.897 56.0129 107.897L56.0172 107.893Z" fill="#407BFF"/>
<path opacity="0.1" d="M118.644 116.543C118.644 119.21 118.905 121.871 119.425 124.487C116.986 125.935 114.966 127.991 113.56 130.454C112.155 132.917 111.413 135.703 111.407 138.539C111.398 139.834 111.544 141.125 111.843 142.385H147.717C148.442 142.382 149.137 142.093 149.65 141.58C150.163 141.067 150.452 140.372 150.455 139.646V76.8624C141.434 78.8799 133.369 83.9087 127.587 91.1209C121.805 98.3332 118.651 107.299 118.644 116.543Z" fill="black"/>
<path d="M184.922 143.905C199.087 129.74 199.087 106.775 184.922 92.61C170.757 78.4453 147.792 78.4453 133.627 92.61C119.463 106.775 119.463 129.74 133.627 143.905C147.792 158.069 170.757 158.069 184.922 143.905Z" fill="#407BFF"/>
<path d="M182.825 141.594C195.738 128.68 195.738 107.744 182.825 94.8308C169.912 81.9176 148.976 81.9176 136.063 94.8308C123.149 107.744 123.149 128.68 136.063 141.594C148.976 154.507 169.912 154.507 182.825 141.594Z" fill="white"/>
<path d="M148.288 96.0291L146.178 98.7323C146.178 98.7323 144.325 100.136 143.623 101.348C142.803 102.159 142.053 102.992 141.312 103.868C140.463 104.87 139.671 105.92 138.94 107.012C138.14 108.18 137.479 109.436 136.97 110.757C136.647 111.593 136.469 112.478 136.442 113.373C136.43 114.007 136.543 114.636 136.773 115.226C137.062 115.949 137.54 116.581 138.155 117.057L138.618 117.406L139.311 117.537C140.679 117.797 142.069 117.934 143.462 117.947L144.011 117.899L143.444 112.37C142.978 112.37 141.975 112.462 141.517 112.453C141.517 112.366 141.552 112.279 141.574 112.192C141.85 111.139 142.23 110.117 142.707 109.14C143.196 108.08 143.758 107.021 144.342 105.965C144.857 105.032 145.41 104.095 145.947 103.179L148.563 101.531L150.093 98.8151L148.288 96.0291ZM141.482 113.251C141.478 113.209 141.478 113.167 141.482 113.125C141.501 113.156 141.514 113.19 141.521 113.225C141.534 113.33 141.504 113.334 141.482 113.251Z" fill="#7F3E3B"/>
<path d="M163.147 101.871C163.212 101.536 160.919 100.385 159.341 101.322C157.976 102.133 157.801 103.24 158.298 104.561C158.298 104.653 158.333 104.745 158.346 104.836C158.377 105.05 158.403 105.272 158.416 105.473C158.516 106.864 158.15 108.158 156.585 108.895C156.585 108.983 156.371 109.074 156.302 109.135C155.722 109.645 155.352 110.352 155.264 111.119C155.264 111.686 155.8 112.135 156.424 112.675L157.296 113.264L158.49 113.151C162.157 112.074 163.871 108.725 163.792 108.477C162.85 106.925 162.863 104.204 163.147 101.871Z" fill="#7F3E3B"/>
<path d="M171.073 109.815L170.411 109.702C169.539 109.562 165.65 108.682 163.77 108.516C163.334 109.445 161.904 111.712 158.238 112.789L157.331 113.002L156.459 112.566C156.189 112.372 155.965 112.122 155.801 111.833C155.637 111.544 155.537 111.223 155.508 110.892C155.538 110.552 155.638 110.221 155.801 109.921C155.965 109.621 156.189 109.358 156.459 109.148C156.49 109.121 156.516 109.086 156.533 109.048C156.533 108.943 156.533 108.874 156.533 108.865C156.258 108.9 152.779 109.427 152.487 109.475C149.207 110.081 145.987 110.976 142.864 112.148L142.899 112.462L143.531 117.951L143.767 120.031C143.767 120.031 145.511 119.835 147.8 119.433C147.176 124.988 147.054 133.037 148.96 143.383L156.402 143.243L169.334 143.004C169.386 142.132 169.29 140.327 169.199 137.859L169.081 134.048C169.011 130.682 169.024 126.636 169.325 122.311C169.373 121.627 169.43 120.938 169.491 120.24C172.133 123.096 174.779 125.825 174.779 125.825L176.031 124.622C177.631 123.85 178.891 122.468 179.99 120.807L181.459 119.39C181.459 119.39 174.649 110.417 171.073 109.815Z" fill="#407BFF"/>
<path opacity="0.3" d="M167.494 117.999C167.593 118.907 167.883 119.783 168.344 120.571L169.347 122.289C169.395 121.605 169.452 120.916 169.513 120.218C168.824 119.464 168.135 118.718 167.494 117.999Z" fill="black"/>
<path opacity="0.3" d="M169.517 120.223C169.456 120.92 169.399 121.609 169.351 122.294C169.395 121.609 169.456 120.916 169.517 120.223Z" fill="black"/>
<path d="M158.299 104.562C158.299 104.653 158.329 104.745 158.347 104.836C158.347 104.745 158.316 104.653 158.299 104.562Z" fill="#7F3E3B"/>
<path opacity="0.2" d="M158.416 105.473C158.416 105.263 158.377 105.037 158.346 104.836C158.377 105.05 158.403 105.263 158.416 105.473Z" fill="black"/>
<path d="M161.128 103.528C161.041 103.589 160.958 103.655 160.867 103.716C160.104 104.227 159.216 104.519 158.299 104.562C158.299 104.653 158.329 104.745 158.347 104.836C158.377 105.05 158.403 105.272 158.416 105.473C158.416 105.473 158.416 105.499 158.416 105.512C159.547 105.236 160.523 104.523 161.128 103.528Z" fill="#7F3E3B"/>
<path d="M166.025 109.179C165.986 109 165.898 108.835 165.77 108.704C165.642 108.573 165.479 108.48 165.301 108.438L164.394 108.22C164.281 108.193 164.162 108.204 164.055 108.25C163.948 108.296 163.859 108.376 163.801 108.477L163.77 108.516C163.334 109.445 161.904 111.712 158.238 112.789L157.954 112.854L157.331 113.003L156.459 112.567C156.189 112.372 155.965 112.122 155.801 111.833C155.637 111.544 155.537 111.223 155.508 110.892C155.538 110.552 155.638 110.221 155.801 109.921C155.965 109.621 156.189 109.358 156.459 109.148C156.507 109.099 156.549 109.045 156.585 108.987C156.624 108.887 156.616 108.839 156.546 108.795C155.582 108.102 153.429 109.17 153.341 109.353C153.25 109.445 153.158 109.541 153.067 109.65C152.798 109.966 152.597 110.335 152.477 110.732C152.357 111.13 152.32 111.548 152.369 111.96C152.46 112.654 152.706 113.319 153.089 113.904C153.471 114.49 153.981 114.982 154.58 115.344C154.599 115.35 154.621 115.35 154.641 115.344C154.663 115.35 154.688 115.35 154.71 115.344C154.729 115.331 154.745 115.313 154.755 115.292C154.766 115.272 154.771 115.249 154.771 115.226C154.773 114.711 154.927 114.207 155.214 113.779C155.501 113.351 155.909 113.017 156.385 112.819L157.148 113.229C153.869 126.684 156.092 142.812 156.154 143.248H156.406C156.406 143.082 154.096 126.815 157.401 113.286L158.198 113.094C159.127 114.228 158.687 115.911 158.682 115.928C158.676 115.951 158.677 115.976 158.684 115.999C158.69 116.022 158.704 116.043 158.722 116.059C158.746 116.079 158.777 116.09 158.809 116.089C158.824 116.094 158.841 116.094 158.857 116.089C159.031 116.011 163.156 114.206 164.599 112.484C165.28 111.661 165.761 110.69 166.003 109.65C166.051 109.497 166.058 109.335 166.025 109.179Z" fill="white"/>
<path opacity="0.2" d="M161.128 103.528C161.041 103.589 160.958 103.655 160.867 103.716C160.104 104.227 159.216 104.519 158.299 104.562C158.299 104.653 158.329 104.745 158.347 104.836C158.377 105.05 158.403 105.272 158.416 105.473C158.416 105.473 158.416 105.499 158.416 105.512C159.547 105.236 160.523 104.523 161.128 103.528Z" fill="black"/>
<path d="M155.744 93.9014C157.448 91.7214 156.367 90.4134 155.643 90.5354C154.959 90.8581 154.309 91.7693 153.973 93.8098C153.893 94.2911 153.881 94.7814 153.939 95.2661C154.641 95.2312 155.744 93.9014 155.744 93.9014Z" fill="#263238"/>
<path d="M162.89 98.7103C167.612 90.4045 158.286 89.4366 156.385 91.2983C155.743 91.8933 155.203 92.5883 154.784 93.3563L154.388 94.1367C154.223 94.5055 154.078 94.8824 153.952 95.2659C153.472 96.6445 153.222 98.0923 153.211 99.5518C153.207 100.218 153.338 100.879 153.594 101.494C153.851 102.109 154.228 102.667 154.703 103.134C155.179 103.601 155.743 103.968 156.363 104.213C156.983 104.458 157.645 104.577 158.312 104.561C159.229 104.519 160.117 104.227 160.88 103.716C160.971 103.655 161.054 103.589 161.141 103.528C161.764 103.084 162.295 102.525 162.707 101.88C163.675 100.315 163.422 99.5257 162.89 98.7103Z" fill="#7F3E3B"/>
<path d="M154.148 93.8796C154.119 93.9174 154.106 93.965 154.112 94.0122C154.118 94.0594 154.141 94.1025 154.178 94.1325C154.211 94.1576 154.251 94.1714 154.292 94.1717C154.327 94.1708 154.36 94.1585 154.388 94.1368C154.405 94.1292 154.42 94.1171 154.431 94.1019C154.571 93.9179 154.751 93.7684 154.957 93.6648C155.163 93.5613 155.391 93.5065 155.621 93.5046C155.669 93.507 155.716 93.4905 155.752 93.4588C155.788 93.427 155.81 93.3824 155.813 93.3346C155.815 93.3111 155.812 93.2875 155.805 93.2651C155.798 93.2427 155.786 93.222 155.77 93.2042C155.755 93.1864 155.736 93.1718 155.715 93.1612C155.694 93.1507 155.671 93.1444 155.648 93.1427C155.344 93.1409 155.044 93.2142 154.776 93.3564C154.533 93.4856 154.319 93.6638 154.148 93.8796Z" fill="#263238"/>
<path d="M158.865 99.1028C158.848 99.0866 158.826 99.0775 158.802 99.0775C158.779 99.0775 158.756 99.0866 158.739 99.1028C158.441 99.3528 158.089 99.5314 157.711 99.6251C157.334 99.7188 156.939 99.7251 156.559 99.6435C156.536 99.6396 156.512 99.6446 156.493 99.6576C156.473 99.6705 156.46 99.6905 156.454 99.7132C156.45 99.7368 156.455 99.7611 156.468 99.7813C156.481 99.8015 156.501 99.8161 156.524 99.8222C156.732 99.8635 156.944 99.8825 157.156 99.8789C157.78 99.8731 158.382 99.6442 158.852 99.2336C158.862 99.226 158.87 99.2166 158.876 99.2058C158.882 99.195 158.885 99.1832 158.887 99.171C158.888 99.1588 158.886 99.1465 158.883 99.1348C158.879 99.1231 158.873 99.1122 158.865 99.1028Z" fill="#263238"/>
<path d="M156.524 95.9897C155.947 96.8348 155.259 97.5987 154.479 98.2613C154.915 98.863 155.857 98.8194 155.857 98.8194L156.524 95.9897Z" fill="#630F0F"/>
<path d="M154.981 96.0944C155.177 96.1337 155.417 95.9244 155.465 95.6236C155.512 95.3227 155.434 95.0524 155.238 95.0131C155.042 94.9739 154.824 95.1832 154.754 95.484C154.684 95.7849 154.78 96.0552 154.981 96.0944Z" fill="#263238"/>
<path d="M158.39 96.7919C158.586 96.8312 158.8 96.6219 158.874 96.3211C158.948 96.0202 158.839 95.7499 158.643 95.7107C158.447 95.6714 158.229 95.8807 158.159 96.1815C158.089 96.4824 158.19 96.7353 158.39 96.7919Z" fill="#263238"/>
<path d="M165.876 92.0397C167.721 90.4613 163.518 87.2437 163.518 87.2437C163.518 87.2437 163.988 88.3947 163.012 88.713C162.035 89.0313 155.164 86.4676 155.264 89.3757C155.283 89.7855 155.414 90.1823 155.643 90.5224C155.848 90.815 156.098 91.0726 156.385 91.2854C157.98 92.4974 160.884 92.868 162.454 92.868C162.205 93.4754 162.03 94.1108 161.935 94.7603C161.815 95.4448 161.837 96.1469 162.002 96.8222C162.166 97.4975 162.468 98.1315 162.89 98.6843C163.762 100.202 164.926 100.158 165.92 99.0026C167.516 97.494 169.055 94.4377 165.876 92.0397Z" fill="#263238"/>
<path d="M165.074 98.1305C164.35 97.834 163.535 98.1828 162.894 98.7104C162.542 98.9901 162.238 99.3242 161.992 99.7001C161.377 100.664 161.595 101.784 162.698 101.88H162.89H163.151C164.02 101.792 164.831 101.407 165.449 100.79C165.678 100.569 165.843 100.291 165.927 99.9835C166.01 99.6766 166.01 99.3527 165.924 99.0461C165.862 98.8387 165.753 98.6483 165.606 98.4896C165.458 98.3308 165.276 98.208 165.074 98.1305Z" fill="#7F3E3B"/>
<path d="M148.981 143.361C148.981 143.361 148.864 144.381 148.68 146.095C155.357 148.353 162.581 148.42 169.299 146.287C169.342 144.216 169.373 142.977 169.373 142.977L156.424 143.222H156.171L148.981 143.361Z" fill="#263238"/>
<path d="M182.684 125.803C182.647 125.432 182.562 125.067 182.431 124.718C182.369 124.544 182.294 124.375 182.209 124.212L182.082 123.977L182.013 123.854C181.389 122.782 180.705 121.766 180.007 120.802L176.048 124.617C176.571 125.271 177.081 125.925 177.552 126.597C177.465 126.82 177.352 127.032 177.217 127.229C176.583 128.11 175.852 128.915 175.037 129.631C173.329 131.169 171.54 132.615 169.678 133.961L169.072 134.039L166.639 134.371L164.246 135.988L165.82 139.189L167.799 138.177C168.272 138.112 168.738 138.003 169.19 137.85C169.889 137.668 170.498 137.237 170.903 136.638C172.061 136.179 173.195 135.661 174.3 135.086C175.487 134.473 176.638 133.79 177.744 133.041C178.305 132.657 178.86 132.237 179.41 131.781C179.993 131.302 180.533 130.772 181.023 130.198C181.65 129.489 182.133 128.664 182.444 127.77C182.664 127.139 182.746 126.468 182.684 125.803ZM177.587 126.492C177.587 126.47 177.587 126.444 177.587 126.427C177.587 126.322 177.626 126.283 177.626 126.344C177.624 126.395 177.614 126.445 177.596 126.492H177.587Z" fill="#7F3E3B"/>
<path d="M139.557 138.694C140.616 132.169 136.185 126.021 129.661 124.962C123.136 123.903 116.989 128.334 115.93 134.858C114.871 141.383 119.301 147.53 125.826 148.589C132.35 149.649 138.498 145.218 139.557 138.694Z" fill="#263238"/>
<path d="M134.314 135.648H128.855V130.19C128.855 129.892 128.737 129.607 128.527 129.397C128.317 129.187 128.032 129.069 127.735 129.069C127.438 129.069 127.153 129.187 126.943 129.397C126.732 129.607 126.614 129.892 126.614 130.19V135.648H121.156C120.858 135.648 120.573 135.766 120.363 135.977C120.153 136.187 120.035 136.472 120.035 136.769C120.035 137.066 120.153 137.351 120.363 137.561C120.573 137.771 120.858 137.889 121.156 137.889H126.614V143.348C126.614 143.495 126.643 143.641 126.7 143.777C126.756 143.913 126.839 144.036 126.943 144.14C127.047 144.244 127.17 144.327 127.306 144.383C127.442 144.44 127.588 144.469 127.735 144.469C127.882 144.469 128.028 144.44 128.164 144.383C128.3 144.327 128.423 144.244 128.527 144.14C128.631 144.036 128.714 143.913 128.77 143.777C128.826 143.641 128.855 143.495 128.855 143.348V137.889H134.314C134.611 137.889 134.896 137.771 135.106 137.561C135.317 137.351 135.435 137.066 135.435 136.769C135.435 136.472 135.317 136.187 135.106 135.977C134.896 135.766 134.611 135.648 134.314 135.648Z" fill="white"/>
<path d="M159.04 94.5073C159.259 94.5517 159.464 94.6488 159.637 94.79C159.81 94.9313 159.946 95.1126 160.034 95.3183C160.049 95.3496 160.072 95.3761 160.101 95.3946C160.131 95.4132 160.165 95.423 160.199 95.4229C160.224 95.429 160.249 95.429 160.274 95.4229C160.295 95.4131 160.315 95.399 160.331 95.3816C160.347 95.3641 160.359 95.3437 160.367 95.3213C160.376 95.299 160.379 95.2753 160.378 95.2516C160.377 95.2278 160.371 95.2046 160.361 95.1831C160.247 94.923 160.072 94.6945 159.85 94.5174C159.628 94.3404 159.366 94.2202 159.088 94.1673C159.04 94.1609 158.992 94.1736 158.954 94.2027C158.916 94.2317 158.891 94.2746 158.885 94.322C158.879 94.3694 158.891 94.4174 158.92 94.4555C158.949 94.4935 158.992 94.5184 159.04 94.5248V94.5073Z" fill="#263238"/>
</svg>
