<svg width="22" height="12" viewBox="0 0 22 12" fill="none" xmlns="http://www.w3.org/2000/svg">
<path d="M21.7081 0.292689C21.6152 0.199713 21.5049 0.125954 21.3835 0.0756292C21.2621 0.0253048 21.132 -0.000596046 21.0006 -0.000596046C20.8691 -0.000596046 20.739 0.0253048 20.6176 0.0756292C20.4962 0.125954 20.3859 0.199713 20.2931 0.292689L11.0006 9.58644L1.70806 0.292689C1.52042 0.105049 1.26592 -0.000367165 1.00056 -0.000367165C0.735192 -0.000367165 0.480697 0.105049 0.293056 0.292689C0.105415 0.48033 5.23096e-09 0.734826 0 1.00019C-5.23096e-09 1.26555 0.105415 1.52005 0.293056 1.70769L10.2931 11.7077C10.3859 11.8007 10.4962 11.8744 10.6176 11.9247C10.739 11.9751 10.8691 12.001 11.0006 12.001C11.132 12.001 11.2621 11.9751 11.3835 11.9247C11.5049 11.8744 11.6152 11.8007 11.7081 11.7077L21.7081 1.70769C21.801 1.61482 21.8748 1.50453 21.9251 1.38313C21.9754 1.26173 22.0013 1.13161 22.0013 1.00019C22.0013 0.868774 21.9754 0.738647 21.9251 0.617249C21.8748 0.495852 21.801 0.385562 21.7081 0.292689Z" fill="#333333"/>
</svg>
