<svg width="24" height="26" viewBox="0 0 24 26" fill="none" xmlns="http://www.w3.org/2000/svg">
<path d="M23.7255 18.9925C23.0318 17.7975 22.0005 14.4163 22.0005 10C22.0005 7.34784 20.9469 4.8043 19.0716 2.92893C17.1962 1.05357 14.6527 0 12.0005 0C9.34834 0 6.8048 1.05357 4.92944 2.92893C3.05407 4.8043 2.0005 7.34784 2.0005 10C2.0005 14.4175 0.968004 17.7975 0.274254 18.9925C0.0970924 19.2963 0.00317224 19.6415 0.00196491 19.9931C0.000757584 20.3448 0.092306 20.6906 0.267378 20.9956C0.442449 21.3006 0.694854 21.5541 0.999136 21.7304C1.30342 21.9068 1.64882 21.9997 2.0005 22H7.10175C7.33247 23.1289 7.94603 24.1436 8.83867 24.8722C9.73131 25.6009 10.8482 25.9989 12.0005 25.9989C13.1528 25.9989 14.2697 25.6009 15.1623 24.8722C16.055 24.1436 16.6685 23.1289 16.8993 22H22.0005C22.3521 21.9995 22.6973 21.9064 23.0014 21.73C23.3055 21.5535 23.5578 21.3 23.7327 20.9951C23.9076 20.6901 23.9991 20.3444 23.9978 19.9928C23.9965 19.6412 23.9026 19.2962 23.7255 18.9925ZM12.0005 24C11.3803 23.9998 10.7754 23.8074 10.269 23.4492C9.76265 23.0911 9.37975 22.5848 9.173 22H14.828C14.6213 22.5848 14.2384 23.0911 13.732 23.4492C13.2257 23.8074 12.6207 23.9998 12.0005 24ZM2.0005 20C2.963 18.345 4.0005 14.51 4.0005 10C4.0005 7.87827 4.84336 5.84344 6.34365 4.34315C7.84394 2.84285 9.87877 2 12.0005 2C14.1222 2 16.1571 2.84285 17.6574 4.34315C19.1576 5.84344 20.0005 7.87827 20.0005 10C20.0005 14.5063 21.0355 18.3412 22.0005 20H2.0005Z" fill="#333333"/>
</svg>
