<svg width="45" height="44" viewBox="0 0 45 44" fill="none" xmlns="http://www.w3.org/2000/svg">
<rect x="0.831055" width="44" height="44" rx="6" fill="#013974" fill-opacity="0.1"/>
<path d="M34.832 21.9995C34.832 22.2647 34.7267 22.5191 34.5391 22.7066C34.3516 22.8942 34.0972 22.9995 33.832 22.9995H20.832C20.5668 22.9995 20.3125 22.8942 20.1249 22.7066C19.9374 22.5191 19.832 22.2647 19.832 21.9995C19.832 21.7343 19.9374 21.4799 20.1249 21.2924C20.3125 21.1049 20.5668 20.9995 20.832 20.9995H33.832C34.0972 20.9995 34.3516 21.1049 34.5391 21.2924C34.7267 21.4799 34.832 21.7343 34.832 21.9995ZM20.832 14.9995H33.832C34.0972 14.9995 34.3516 14.8942 34.5391 14.7066C34.7267 14.5191 34.832 14.2647 34.832 13.9995C34.832 13.7343 34.7267 13.4799 34.5391 13.2924C34.3516 13.1049 34.0972 12.9995 33.832 12.9995H20.832C20.5668 12.9995 20.3125 13.1049 20.1249 13.2924C19.9374 13.4799 19.832 13.7343 19.832 13.9995C19.832 14.2647 19.9374 14.5191 20.1249 14.7066C20.3125 14.8942 20.5668 14.9995 20.832 14.9995ZM33.832 28.9995H11.832C11.5668 28.9995 11.3125 29.1049 11.1249 29.2924C10.9374 29.4799 10.832 29.7343 10.832 29.9995C10.832 30.2647 10.9374 30.5191 11.1249 30.7066C11.3125 30.8942 11.5668 30.9995 11.832 30.9995H33.832C34.0972 30.9995 34.3516 30.8942 34.5391 30.7066C34.7267 30.5191 34.832 30.2647 34.832 29.9995C34.832 29.7343 34.7267 29.4799 34.5391 29.2924C34.3516 29.1049 34.0972 28.9995 33.832 28.9995Z" fill="#013974"/>
<path d="M17.2152 23.9241C17.3366 23.8738 17.4468 23.8001 17.5397 23.7071C17.6327 23.6142 17.7065 23.5039 17.7568 23.3825C17.8071 23.2611 17.833 23.131 17.833 22.9996C17.833 22.8682 17.8071 22.738 17.7568 22.6166C17.7065 22.4952 17.6327 22.385 17.5397 22.2921L13.246 17.9996L17.5397 13.7071C17.7274 13.5194 17.8328 13.2649 17.8328 12.9996C17.8328 12.7342 17.7274 12.4797 17.5397 12.2921C17.3521 12.1044 17.0976 11.999 16.8322 11.999C16.5669 11.999 16.3124 12.1044 16.1247 12.2921L11.1247 17.2921C11.0317 17.385 10.958 17.4952 10.9077 17.6166C10.8573 17.738 10.8314 17.8682 10.8314 17.9996C10.8314 18.131 10.8573 18.2611 10.9077 18.3825C10.958 18.5039 11.0317 18.6142 11.1247 18.7071L16.1247 23.7071C16.2176 23.8001 16.3279 23.8738 16.4493 23.9241C16.5707 23.9745 16.7008 24.0004 16.8322 24.0004C16.9636 24.0004 17.0938 23.9745 17.2152 23.9241Z" fill="#013974"/>
</svg>
