<svg width="45" height="44" viewBox="0 0 45 44" fill="none" xmlns="http://www.w3.org/2000/svg">
<rect x="0.831055" width="44" height="44" rx="6" fill="#013974" fill-opacity="0.1"/>
<path d="M34.8318 21.9996C34.8318 22.2648 34.7265 22.5192 34.5389 22.7067C34.3514 22.8942 34.0971 22.9996 33.8318 22.9996H20.8318C20.5666 22.9996 20.3123 22.8942 20.1247 22.7067C19.9372 22.5192 19.8318 22.2648 19.8318 21.9996C19.8318 21.7344 19.9372 21.48 20.1247 21.2925C20.3123 21.1049 20.5666 20.9996 20.8318 20.9996H33.8318C34.0971 20.9996 34.3514 21.1049 34.5389 21.2925C34.7265 21.48 34.8318 21.7344 34.8318 21.9996ZM20.8318 14.9996H33.8318C34.0971 14.9996 34.3514 14.8942 34.5389 14.7067C34.7265 14.5191 34.8318 14.2648 34.8318 13.9996C34.8318 13.7344 34.7265 13.48 34.5389 13.2925C34.3514 13.1049 34.0971 12.9996 33.8318 12.9996H20.8318C20.5666 12.9996 20.3123 13.1049 20.1247 13.2925C19.9372 13.48 19.8318 13.7344 19.8318 13.9996C19.8318 14.2648 19.9372 14.5191 20.1247 14.7067C20.3123 14.8942 20.5666 14.9996 20.8318 14.9996ZM33.8318 28.9996H11.8318C11.5666 28.9996 11.3123 29.1049 11.1247 29.2925C10.9372 29.48 10.8318 29.7344 10.8318 29.9996C10.8318 30.2648 10.9372 30.5192 11.1247 30.7067C11.3123 30.8942 11.5666 30.9996 11.8318 30.9996H33.8318C34.0971 30.9996 34.3514 30.8942 34.5389 30.7067C34.7265 30.5192 34.8318 30.2648 34.8318 29.9996C34.8318 29.7344 34.7265 29.48 34.5389 29.2925C34.3514 29.1049 34.0971 28.9996 33.8318 28.9996ZM11.1243 23.7071C11.2172 23.8001 11.3275 23.8738 11.4489 23.9241C11.5703 23.9745 11.7004 24.0004 11.8318 24.0004C11.9633 24.0004 12.0934 23.9745 12.2148 23.9241C12.3362 23.8738 12.4465 23.8001 12.5393 23.7071L17.5393 18.7071C17.6323 18.6142 17.7061 18.5039 17.7564 18.3825C17.8067 18.2611 17.8326 18.131 17.8326 17.9996C17.8326 17.8682 17.8067 17.738 17.7564 17.6166C17.7061 17.4952 17.6323 17.385 17.5393 17.2921L12.5393 12.2921C12.3517 12.1044 12.0972 11.999 11.8318 11.999C11.5665 11.999 11.312 12.1044 11.1243 12.2921C10.9367 12.4797 10.8313 12.7342 10.8313 12.9996C10.8313 13.2649 10.9367 13.5194 11.1243 13.7071L15.4181 17.9996L11.1243 22.2921C11.0314 22.385 10.9576 22.4952 10.9073 22.6166C10.857 22.738 10.8311 22.8682 10.8311 22.9996C10.8311 23.131 10.857 23.2611 10.9073 23.3825C10.9576 23.5039 11.0314 23.6142 11.1243 23.7071Z" fill="#013974"/>
</svg>
