<svg width="19" height="20" viewBox="0 0 19 20" fill="none" xmlns="http://www.w3.org/2000/svg">
<path d="M1.05273 3.5H4.80273V2.75C4.80273 2.15326 5.03979 1.58097 5.46174 1.15901C5.8837 0.737053 6.456 0.5 7.05273 0.5H11.5527C12.1495 0.5 12.7218 0.737053 13.1437 1.15901C13.5657 1.58097 13.8027 2.15326 13.8027 2.75V3.5H17.5527C17.7516 3.5 17.9424 3.57902 18.0831 3.71967C18.2237 3.86032 18.3027 4.05109 18.3027 4.25C18.3027 4.44891 18.2237 4.63968 18.0831 4.78033C17.9424 4.92098 17.7516 5 17.5527 5H16.8027V18.5C16.8027 18.8978 16.6447 19.2794 16.3634 19.5607C16.0821 19.842 15.7006 20 15.3027 20H3.30273C2.90491 20 2.52338 19.842 2.24207 19.5607C1.96077 19.2794 1.80273 18.8978 1.80273 18.5V5H1.05273C0.853822 5 0.663056 4.92098 0.522404 4.78033C0.381751 4.63968 0.302734 4.44891 0.302734 4.25C0.302734 4.05109 0.381751 3.86032 0.522404 3.71967C0.663056 3.57902 0.853822 3.5 1.05273 3.5ZM12.3027 2.75C12.3027 2.55109 12.2237 2.36032 12.0831 2.21967C11.9424 2.07902 11.7516 2 11.5527 2H7.05273C6.85382 2 6.66306 2.07902 6.5224 2.21967C6.38175 2.36032 6.30273 2.55109 6.30273 2.75V3.5H12.3027V2.75ZM3.30273 18.5H15.3027V5H3.30273V18.5ZM10.8027 8.75V14.75C10.8027 14.9489 10.8818 15.1397 11.0224 15.2803C11.1631 15.421 11.3538 15.5 11.5527 15.5C11.7516 15.5 11.9424 15.421 12.0831 15.2803C12.2237 15.1397 12.3027 14.9489 12.3027 14.75V8.75C12.3027 8.55109 12.2237 8.36032 12.0831 8.21967C11.9424 8.07902 11.7516 8 11.5527 8C11.3538 8 11.1631 8.07902 11.0224 8.21967C10.8818 8.36032 10.8027 8.55109 10.8027 8.75ZM6.30273 8.75V14.75C6.30273 14.9489 6.38175 15.1397 6.5224 15.2803C6.66306 15.421 6.85382 15.5 7.05273 15.5C7.25165 15.5 7.44241 15.421 7.58307 15.2803C7.72372 15.1397 7.80273 14.9489 7.80273 14.75V8.75C7.80273 8.55109 7.72372 8.36032 7.58307 8.21967C7.44241 8.07902 7.25165 8 7.05273 8C6.85382 8 6.66306 8.07902 6.5224 8.21967C6.38175 8.36032 6.30273 8.55109 6.30273 8.75Z" fill="#F1333C"/>
</svg>
