<svg width="24" height="24" viewBox="0 0 24 24" fill="none" xmlns="http://www.w3.org/2000/svg">
<path d="M3 13.5V19.5C3 19.6989 3.07902 19.8897 3.21967 20.0303C3.36032 20.171 3.55109 20.25 3.75 20.25H20.25C20.4489 20.25 20.6397 20.171 20.7803 20.0303C20.921 19.8897 21 19.6989 21 19.5V13.5C21 13.3011 20.921 13.1103 20.7803 12.9697C20.6397 12.829 20.4489 12.75 20.25 12.75C20.0511 12.75 19.8603 12.829 19.7197 12.9697C19.579 13.1103 19.5 13.3011 19.5 13.5V18.75H4.5V13.5C4.5 13.3011 4.42098 13.1103 4.28033 12.9697C4.13968 12.829 3.94891 12.75 3.75 12.75C3.55109 12.75 3.36032 12.829 3.21967 12.9697C3.07902 13.1103 3 13.3011 3 13.5ZM12.5306 14.0306C12.461 14.1004 12.3783 14.1557 12.2872 14.1934C12.1962 14.2312 12.0986 14.2506 12 14.2506C11.9014 14.2506 11.8038 14.2312 11.7128 14.1934C11.6217 14.1557 11.539 14.1004 11.4694 14.0306L7.71937 10.2806C7.64969 10.2109 7.59442 10.1282 7.55671 10.0372C7.51899 9.94613 7.49958 9.84855 7.49958 9.75C7.49958 9.65145 7.51899 9.55387 7.55671 9.46283C7.59442 9.37178 7.64969 9.28906 7.71937 9.21937C7.78906 9.14969 7.87178 9.09442 7.96283 9.0567C8.05387 9.01899 8.15145 8.99958 8.25 8.99958C8.34855 8.99958 8.44613 9.01899 8.53717 9.0567C8.62822 9.09442 8.71094 9.14969 8.78063 9.21937L11.25 11.6897V3C11.25 2.80109 11.329 2.61032 11.4697 2.46967C11.6103 2.32902 11.8011 2.25 12 2.25C12.1989 2.25 12.3897 2.32902 12.5303 2.46967C12.671 2.61032 12.75 2.80109 12.75 3V11.6897L15.2194 9.21937C15.3601 9.07864 15.551 8.99958 15.75 8.99958C15.949 8.99958 16.1399 9.07864 16.2806 9.21937C16.4214 9.36011 16.5004 9.55098 16.5004 9.75C16.5004 9.94902 16.4214 10.1399 16.2806 10.2806L12.5306 14.0306Z" fill="#013974"/>
</svg>
