<svg width="20" height="19" viewBox="0 0 20 19" fill="none" xmlns="http://www.w3.org/2000/svg">
<path d="M18.614 4.87821L14.4243 0.689461C14.285 0.550137 14.1196 0.439617 13.9376 0.364213C13.7556 0.28881 13.5605 0.25 13.3635 0.25C13.1665 0.25 12.9714 0.28881 12.7894 0.364213C12.6074 0.439617 12.442 0.550137 12.3027 0.689461L0.742429 12.2498C0.602535 12.3886 0.491623 12.5538 0.416141 12.7358C0.340659 12.9178 0.302112 13.113 0.302742 13.3101V17.4998C0.302742 17.8976 0.460777 18.2791 0.742082 18.5604C1.02339 18.8417 1.40492 18.9998 1.80274 18.9998H17.5527C17.7517 18.9998 17.9424 18.9208 18.0831 18.7801C18.2237 18.6395 18.3027 18.4487 18.3027 18.2498C18.3027 18.0509 18.2237 17.8601 18.0831 17.7194C17.9424 17.5788 17.7517 17.4998 17.5527 17.4998H8.11399L18.614 6.99977C18.7533 6.86048 18.8638 6.69511 18.9392 6.5131C19.0146 6.33109 19.0535 6.136 19.0535 5.93899C19.0535 5.74198 19.0146 5.5469 18.9392 5.36489C18.8638 5.18288 18.7533 5.0175 18.614 4.87821ZM5.99243 17.4998H1.80274V13.3101L10.0527 5.06009L14.2424 9.24977L5.99243 17.4998ZM15.3027 8.18946L11.114 3.99977L13.364 1.74977L17.5527 5.93946L15.3027 8.18946Z" fill="#013974"/>
</svg>
