<svg width="21" height="20" viewBox="0 0 21 20" fill="none" xmlns="http://www.w3.org/2000/svg">
<path d="M18.3179 3.86955C18.2217 3.64729 18.0622 3.45822 17.8594 3.32584C17.6566 3.19347 17.4194 3.12363 17.1772 3.12502H3.42723C3.1853 3.1255 2.9487 3.19617 2.74615 3.32846C2.5436 3.46076 2.38379 3.64899 2.28611 3.87032C2.18843 4.09165 2.15707 4.33658 2.19585 4.57538C2.23463 4.81418 2.34187 5.03659 2.50457 5.21565L2.51082 5.22268L7.80223 10.8727V16.875C7.80217 17.1013 7.86352 17.3233 7.97972 17.5174C8.09592 17.7115 8.26263 17.8704 8.46206 17.9772C8.66149 18.084 8.88617 18.1347 9.11214 18.1239C9.33811 18.113 9.55691 18.0411 9.74519 17.9156L12.2452 16.2485C12.4166 16.1343 12.5571 15.9796 12.6543 15.798C12.7515 15.6165 12.8023 15.4137 12.8022 15.2078V10.8727L18.0944 5.22268L18.1007 5.21565C18.2651 5.03741 18.3734 4.8147 18.412 4.57531C18.4506 4.33592 18.4179 4.09045 18.3179 3.86955ZM11.7225 10.2016C11.6144 10.3162 11.5536 10.4675 11.5522 10.625V15.2078L9.05223 16.875V10.625C9.05227 10.4663 8.99194 10.3135 8.88347 10.1977L3.42723 4.37502H17.1772L11.7225 10.2016Z" fill="#013974"/>
</svg>
