<svg width="21" height="20" viewBox="0 0 21 20" fill="none" xmlns="http://www.w3.org/2000/svg">
<path d="M10.6668 1.875C9.05978 1.875 7.48889 2.35152 6.15274 3.24431C4.81659 4.1371 3.77519 5.40605 3.16023 6.8907C2.54527 8.37535 2.38437 10.009 2.69787 11.5851C3.01138 13.1612 3.78521 14.6089 4.92151 15.7452C6.05781 16.8815 7.50555 17.6554 9.08164 17.9689C10.6577 18.2824 12.2914 18.1215 13.7761 17.5065C15.2607 16.8916 16.5297 15.8502 17.4224 14.514C18.3152 13.1779 18.7918 11.607 18.7918 10C18.7895 7.84581 17.9327 5.78051 16.4095 4.25727C14.8862 2.73403 12.8209 1.87727 10.6668 1.875ZM10.3543 5.625C10.5397 5.625 10.7209 5.67998 10.8751 5.783C11.0293 5.88601 11.1494 6.03243 11.2204 6.20373C11.2913 6.37504 11.3099 6.56354 11.2737 6.7454C11.2376 6.92725 11.1483 7.0943 11.0172 7.22541C10.8861 7.35652 10.719 7.44581 10.5371 7.48199C10.3553 7.51816 10.1668 7.49959 9.99549 7.42864C9.82418 7.35768 9.67776 7.23752 9.57475 7.08335C9.47174 6.92918 9.41675 6.74792 9.41675 6.5625C9.41675 6.31386 9.51552 6.0754 9.69134 5.89959C9.86715 5.72377 10.1056 5.625 10.3543 5.625ZM11.2918 14.375C10.9602 14.375 10.6423 14.2433 10.4079 14.0089C10.1734 13.7745 10.0418 13.4565 10.0418 13.125V10C9.87599 10 9.71702 9.93415 9.59981 9.81694C9.4826 9.69973 9.41675 9.54076 9.41675 9.375C9.41675 9.20924 9.4826 9.05027 9.59981 8.93306C9.71702 8.81585 9.87599 8.75 10.0418 8.75C10.3733 8.75 10.6912 8.8817 10.9256 9.11612C11.1601 9.35054 11.2918 9.66848 11.2918 10V13.125C11.4575 13.125 11.6165 13.1908 11.7337 13.3081C11.8509 13.4253 11.9168 13.5842 11.9168 13.75C11.9168 13.9158 11.8509 14.0747 11.7337 14.1919C11.6165 14.3092 11.4575 14.375 11.2918 14.375Z" fill="#FF9600"/>
</svg>
