<svg width="68" height="68" viewBox="0 0 68 68" fill="none" xmlns="http://www.w3.org/2000/svg">
<rect width="68" height="68" rx="11.3333" fill="#F1333C" fill-opacity="0.1"/>
<rect x="0.708333" y="0.708333" width="66.5833" height="66.5833" rx="10.625" stroke="#F1333C" stroke-opacity="0.2" stroke-width="1.41667"/>
<path d="M52.2259 48.8707C49.5289 44.2081 45.3728 40.8648 40.5225 39.2799C42.9216 37.8516 44.7857 35.6753 45.8283 33.0851C46.8708 30.495 47.0344 27.6342 46.2937 24.9421C45.5531 22.25 43.9492 19.8754 41.7284 18.1831C39.5075 16.4908 36.7926 15.5742 34.0005 15.5742C31.2084 15.5742 28.4934 16.4908 26.2726 18.1831C24.0518 19.8754 22.4479 22.25 21.7072 24.9421C20.9666 27.6342 21.1301 30.495 22.1727 33.0851C23.2153 35.6753 25.0793 37.8516 27.4785 39.2799C22.6282 40.863 18.472 44.2063 15.7751 48.8707C15.6762 49.032 15.6106 49.2114 15.5821 49.3984C15.5537 49.5855 15.563 49.7763 15.6095 49.9597C15.656 50.1431 15.7388 50.3152 15.853 50.4661C15.9671 50.617 16.1103 50.7435 16.2741 50.8381C16.4379 50.9327 16.619 50.9935 16.8068 51.017C16.9945 51.0405 17.185 51.0262 17.3671 50.9749C17.5492 50.9235 17.7191 50.8363 17.8669 50.7182C18.0147 50.6001 18.1374 50.4536 18.2277 50.2874C21.5639 44.5215 27.4608 41.079 34.0005 41.079C40.5402 41.079 46.437 44.5215 49.7733 50.2874C49.8636 50.4536 49.9862 50.6001 50.134 50.7182C50.2818 50.8363 50.4518 50.9235 50.6339 50.9749C50.816 51.0262 51.0065 51.0405 51.1942 51.017C51.3819 50.9935 51.563 50.9327 51.7268 50.8381C51.8906 50.7435 52.0339 50.617 52.148 50.4661C52.2621 50.3152 52.3449 50.1431 52.3914 49.9597C52.4379 49.7763 52.4473 49.5855 52.4188 49.3984C52.3904 49.2114 52.3248 49.032 52.2259 48.8707ZM24.0838 28.329C24.0838 26.3677 24.6654 24.4504 25.7551 22.8196C26.8447 21.1888 28.3935 19.9178 30.2055 19.1672C32.0176 18.4167 34.0115 18.2203 35.9351 18.6029C37.8588 18.9856 39.6258 19.93 41.0126 21.3169C42.3995 22.7038 43.344 24.4707 43.7266 26.3944C44.1092 28.318 43.9129 30.3119 43.1623 32.124C42.4117 33.936 41.1407 35.4848 39.5099 36.5744C37.8791 37.6641 35.9618 38.2457 34.0005 38.2457C31.3713 38.2429 28.8506 37.1972 26.9914 35.3381C25.1323 33.479 24.0866 30.9582 24.0838 28.329Z" fill="#F1333C"/>
</svg>
