<svg width="69" height="68" viewBox="0 0 69 68" fill="none" xmlns="http://www.w3.org/2000/svg">
<rect x="0.666748" width="68" height="68" rx="11.3333" fill="#FF9600" fill-opacity="0.1"/>
<rect x="1.37508" y="0.708333" width="66.5833" height="66.5833" rx="10.625" stroke="#FF9600" stroke-opacity="0.2" stroke-width="1.41667"/>
<path d="M53.084 50.9935H48.834V16.9935H50.2507C50.6264 16.9935 50.9867 16.8442 51.2524 16.5786C51.5181 16.3129 51.6673 15.9525 51.6673 15.5768C51.6673 15.2011 51.5181 14.8408 51.2524 14.5751C50.9867 14.3094 50.6264 14.1602 50.2507 14.1602H19.084C18.7083 14.1602 18.3479 14.3094 18.0823 14.5751C17.8166 14.8408 17.6673 15.2011 17.6673 15.5768C17.6673 15.9525 17.8166 16.3129 18.0823 16.5786C18.3479 16.8442 18.7083 16.9935 19.084 16.9935H20.5007V50.9935H16.2507C15.8749 50.9935 15.5146 51.1427 15.2489 51.4084C14.9832 51.6741 14.834 52.0344 14.834 52.4102C14.834 52.7859 14.9832 53.1462 15.2489 53.4119C15.5146 53.6776 15.8749 53.8268 16.2507 53.8268H53.084C53.4597 53.8268 53.82 53.6776 54.0857 53.4119C54.3514 53.1462 54.5007 52.7859 54.5007 52.4102C54.5007 52.0344 54.3514 51.6741 54.0857 51.4084C53.82 51.1427 53.4597 50.9935 53.084 50.9935ZM23.334 16.9935H46.0007V50.9935H40.334V43.9102C40.334 43.5344 40.1847 43.1741 39.9191 42.9084C39.6534 42.6427 39.293 42.4935 38.9173 42.4935H30.4173C30.0416 42.4935 29.6813 42.6427 29.4156 42.9084C29.1499 43.1741 29.0007 43.5344 29.0007 43.9102V50.9935H23.334V16.9935ZM37.5007 50.9935H31.834V45.3268H37.5007V50.9935ZM27.584 22.6602C27.584 22.2844 27.7332 21.9241 27.9989 21.6584C28.2646 21.3927 28.6249 21.2435 29.0007 21.2435H31.834C32.2097 21.2435 32.57 21.3927 32.8357 21.6584C33.1014 21.9241 33.2507 22.2844 33.2507 22.6602C33.2507 23.0359 33.1014 23.3962 32.8357 23.6619C32.57 23.9276 32.2097 24.0768 31.834 24.0768H29.0007C28.6249 24.0768 28.2646 23.9276 27.9989 23.6619C27.7332 23.3962 27.584 23.0359 27.584 22.6602ZM36.084 22.6602C36.084 22.2844 36.2332 21.9241 36.4989 21.6584C36.7646 21.3927 37.1249 21.2435 37.5007 21.2435H40.334C40.7097 21.2435 41.07 21.3927 41.3357 21.6584C41.6014 21.9241 41.7507 22.2844 41.7507 22.6602C41.7507 23.0359 41.6014 23.3962 41.3357 23.6619C41.07 23.9276 40.7097 24.0768 40.334 24.0768H37.5007C37.1249 24.0768 36.7646 23.9276 36.4989 23.6619C36.2332 23.3962 36.084 23.0359 36.084 22.6602ZM27.584 29.7435C27.584 29.3678 27.7332 29.0074 27.9989 28.7418C28.2646 28.4761 28.6249 28.3268 29.0007 28.3268H31.834C32.2097 28.3268 32.57 28.4761 32.8357 28.7418C33.1014 29.0074 33.2507 29.3678 33.2507 29.7435C33.2507 30.1192 33.1014 30.4795 32.8357 30.7452C32.57 31.0109 32.2097 31.1602 31.834 31.1602H29.0007C28.6249 31.1602 28.2646 31.0109 27.9989 30.7452C27.7332 30.4795 27.584 30.1192 27.584 29.7435ZM36.084 29.7435C36.084 29.3678 36.2332 29.0074 36.4989 28.7418C36.7646 28.4761 37.1249 28.3268 37.5007 28.3268H40.334C40.7097 28.3268 41.07 28.4761 41.3357 28.7418C41.6014 29.0074 41.7507 29.3678 41.7507 29.7435C41.7507 30.1192 41.6014 30.4795 41.3357 30.7452C41.07 31.0109 40.7097 31.1602 40.334 31.1602H37.5007C37.1249 31.1602 36.7646 31.0109 36.4989 30.7452C36.2332 30.4795 36.084 30.1192 36.084 29.7435ZM27.584 36.8268C27.584 36.4511 27.7332 36.0908 27.9989 35.8251C28.2646 35.5594 28.6249 35.4102 29.0007 35.4102H31.834C32.2097 35.4102 32.57 35.5594 32.8357 35.8251C33.1014 36.0908 33.2507 36.4511 33.2507 36.8268C33.2507 37.2025 33.1014 37.5629 32.8357 37.8286C32.57 38.0942 32.2097 38.2435 31.834 38.2435H29.0007C28.6249 38.2435 28.2646 38.0942 27.9989 37.8286C27.7332 37.5629 27.584 37.2025 27.584 36.8268ZM36.084 36.8268C36.084 36.4511 36.2332 36.0908 36.4989 35.8251C36.7646 35.5594 37.1249 35.4102 37.5007 35.4102H40.334C40.7097 35.4102 41.07 35.5594 41.3357 35.8251C41.6014 36.0908 41.7507 36.4511 41.7507 36.8268C41.7507 37.2025 41.6014 37.5629 41.3357 37.8286C41.07 38.0942 40.7097 38.2435 40.334 38.2435H37.5007C37.1249 38.2435 36.7646 38.0942 36.4989 37.8286C36.2332 37.5629 36.084 37.2025 36.084 36.8268Z" fill="#FF9600"/>
</svg>
