<svg width="68" height="68" viewBox="0 0 68 68" fill="none" xmlns="http://www.w3.org/2000/svg">
<rect width="68" height="68" rx="11.3333" fill="#013974" fill-opacity="0.1"/>
<rect x="0.708333" y="0.708333" width="66.5833" height="66.5833" rx="10.625" stroke="#013974" stroke-opacity="0.2" stroke-width="1.41667"/>
<path d="M54.6846 37.9599C54.5358 38.0716 54.3664 38.1528 54.1862 38.1989C54.006 38.2451 53.8184 38.2553 53.6343 38.229C53.4501 38.2027 53.2729 38.1404 53.1128 38.0456C52.9527 37.9508 52.8129 37.8254 52.7013 37.6766C51.8474 36.5289 50.736 35.5976 49.4565 34.9579C48.177 34.3181 46.7651 33.9877 45.3346 33.9933C45.056 33.9932 44.7836 33.9111 44.5515 33.7571C44.3194 33.603 44.1378 33.384 44.0295 33.1273C43.956 32.953 43.9181 32.7658 43.9181 32.5766C43.9181 32.3874 43.956 32.2002 44.0295 32.0259C44.1378 31.7692 44.3194 31.5502 44.5515 31.3961C44.7836 31.2421 45.056 31.16 45.3346 31.1599C46.1295 31.1599 46.9084 30.9369 47.5829 30.5163C48.2574 30.0957 48.8004 29.4944 49.1503 28.7807C49.5002 28.067 49.643 27.2694 49.5623 26.4787C49.4816 25.6879 49.1808 24.9356 48.694 24.3072C48.2072 23.6788 47.554 23.1995 46.8085 22.9238C46.063 22.6481 45.255 22.587 44.4765 22.7474C43.698 22.9078 42.9801 23.2833 42.4043 23.8313C41.8285 24.3793 41.4179 25.0778 41.2192 25.8474C41.1727 26.0277 41.0911 26.197 40.9792 26.3457C40.8672 26.4944 40.7271 26.6196 40.5668 26.7141C40.4065 26.8087 40.2291 26.8707 40.0448 26.8967C39.8605 26.9227 39.6728 26.9122 39.4926 26.8657C39.3124 26.8191 39.1431 26.7376 38.9944 26.6257C38.8457 26.5137 38.7205 26.3736 38.6259 26.2133C38.5314 26.0529 38.4693 25.8756 38.4433 25.6912C38.4173 25.5069 38.4279 25.3193 38.4744 25.1391C38.7502 24.0718 39.2713 23.0837 39.9962 22.2533C40.7211 21.4228 41.6299 20.7731 42.6501 20.3556C43.6703 19.9382 44.7739 19.7647 45.873 19.8488C46.9721 19.9329 48.0364 20.2724 48.9812 20.8402C49.9261 21.4081 50.7253 22.1886 51.3154 23.1197C51.9055 24.0508 52.2701 25.1067 52.3803 26.2035C52.4904 27.3003 52.3431 28.4077 51.95 29.4375C51.5569 30.4674 50.9289 31.3913 50.1159 32.1357C52.0422 32.9697 53.7168 34.2933 54.9733 35.9748C55.0849 36.124 55.166 36.2938 55.2119 36.4744C55.2578 36.655 55.2676 36.8429 55.2408 37.0273C55.214 37.2117 55.151 37.389 55.0556 37.549C54.9602 37.709 54.8341 37.8487 54.6846 37.9599ZM45.1434 48.8683C45.2459 49.0295 45.3147 49.2098 45.3457 49.3983C45.3767 49.5869 45.3693 49.7797 45.3238 49.9653C45.2783 50.1509 45.1958 50.3254 45.0812 50.4782C44.9666 50.6311 44.8222 50.7592 44.6568 50.8548C44.4914 50.9504 44.3083 51.0116 44.1186 51.0346C43.929 51.0576 43.7366 51.0421 43.5531 50.9888C43.3696 50.9356 43.1988 50.8458 43.0509 50.7248C42.903 50.6039 42.7811 50.4542 42.6925 50.2849C41.8001 48.7738 40.5291 47.5215 39.005 46.6515C37.4808 45.7816 35.7562 45.324 34.0013 45.324C32.2463 45.324 30.5217 45.7816 28.9976 46.6515C27.4734 47.5215 26.2024 48.7738 25.31 50.2849C25.2215 50.4542 25.0996 50.6039 24.9517 50.7248C24.8038 50.8458 24.6329 50.9356 24.4494 50.9888C24.266 51.0421 24.0736 51.0576 23.8839 51.0346C23.6942 51.0116 23.5112 50.9504 23.3458 50.8548C23.1804 50.7592 23.036 50.6311 22.9214 50.4782C22.8067 50.3254 22.7242 50.1509 22.6787 49.9653C22.6333 49.7797 22.6258 49.5869 22.6568 49.3983C22.6879 49.2098 22.7567 49.0295 22.8592 48.8683C24.2326 46.5084 26.3268 44.6513 28.834 43.5699C27.4232 42.4898 26.3864 40.9947 25.8693 39.2948C25.3521 37.595 25.3807 35.7758 25.9509 34.093C26.5211 32.4102 27.6044 30.9484 29.0484 29.913C30.4924 28.8777 32.2245 28.3209 34.0013 28.3209C35.7781 28.3209 37.5102 28.8777 38.9542 29.913C40.3982 30.9484 41.4814 32.4102 42.0516 34.093C42.6219 35.7758 42.6504 37.595 42.1333 39.2948C41.6162 40.9947 40.5793 42.4898 39.1686 43.5699C41.6757 44.6513 43.7699 46.5084 45.1434 48.8683ZM34.0013 42.4933C35.122 42.4933 36.2176 42.1609 37.1495 41.5383C38.0814 40.9156 38.8077 40.0306 39.2366 38.9951C39.6655 37.9597 39.7777 36.8203 39.5591 35.7211C39.3404 34.6219 38.8007 33.6122 38.0082 32.8197C37.2157 32.0272 36.206 31.4875 35.1068 31.2688C34.0076 31.0502 32.8682 31.1624 31.8327 31.5913C30.7973 32.0202 29.9123 32.7465 29.2896 33.6784C28.6669 34.6102 28.3346 35.7058 28.3346 36.8266C28.3346 38.3295 28.9316 39.7708 29.9943 40.8335C31.057 41.8962 32.4984 42.4933 34.0013 42.4933ZM24.0846 32.5766C24.0846 32.2009 23.9353 31.8405 23.6697 31.5749C23.404 31.3092 23.0437 31.1599 22.6679 31.1599C21.8731 31.1599 21.0941 30.9369 20.4196 30.5163C19.7451 30.0957 19.2021 29.4944 18.8522 28.7807C18.5023 28.067 18.3596 27.2694 18.4402 26.4787C18.5209 25.6879 18.8217 24.9356 19.3085 24.3072C19.7953 23.6788 20.4485 23.1995 21.1941 22.9238C21.9396 22.6481 22.7475 22.587 23.526 22.7474C24.3045 22.9078 25.0225 23.2833 25.5983 23.8313C26.1741 24.3793 26.5846 25.0778 26.7834 25.8474C26.8773 26.2114 27.112 26.5232 27.4358 26.7141C27.7595 26.9051 28.1459 26.9596 28.5099 26.8657C28.8739 26.7717 29.1857 26.5371 29.3766 26.2133C29.5676 25.8895 29.6221 25.5031 29.5281 25.1391C29.2523 24.0718 28.7312 23.0837 28.0063 22.2533C27.2814 21.4228 26.3727 20.7731 25.3524 20.3556C24.3322 19.9382 23.2286 19.7647 22.1295 19.8488C21.0304 19.9329 19.9661 20.2724 19.0213 20.8402C18.0765 21.4081 17.2772 22.1886 16.6872 23.1197C16.0971 24.0508 15.7324 25.1067 15.6223 26.2035C15.5121 27.3003 15.6594 28.4077 16.0525 29.4375C16.4456 30.4674 17.0737 31.3913 17.8867 32.1357C15.9623 32.9705 14.2896 34.294 13.0346 35.9748C12.8089 36.2754 12.7119 36.6533 12.7649 37.0254C12.8179 37.3975 13.0165 37.7334 13.3171 37.959C13.6176 38.1847 13.9955 38.2817 14.3677 38.2288C14.7398 38.1758 15.0756 37.9772 15.3013 37.6766C16.1551 36.5289 17.2666 35.5976 18.5461 34.9579C19.8256 34.3181 21.2374 33.9877 22.6679 33.9933C23.0437 33.9933 23.404 33.844 23.6697 33.5783C23.9353 33.3127 24.0846 32.9523 24.0846 32.5766Z" fill="#013974"/>
</svg>
