<svg width="69" height="68" viewBox="0 0 69 68" fill="none" xmlns="http://www.w3.org/2000/svg">
<rect x="0.333252" width="68" height="68" rx="11.3333" fill="#3FBC61" fill-opacity="0.1"/>
<rect x="1.04159" y="0.708333" width="66.5833" height="66.5833" rx="10.625" stroke="#3FBC61" stroke-opacity="0.2" stroke-width="1.41667"/>
<path d="M52.559 48.8707C49.862 44.2081 45.7059 40.8648 40.8556 39.2799C43.2548 37.8516 45.1188 35.6753 46.1614 33.0851C47.204 30.495 47.3675 27.6342 46.6268 24.9421C45.8862 22.25 44.2823 19.8754 42.0615 18.1831C39.8407 16.4908 37.1257 15.5742 34.3336 15.5742C31.5415 15.5742 28.8265 16.4908 26.6057 18.1831C24.3849 19.8754 22.781 22.25 22.0404 24.9421C21.2997 27.6342 21.4632 30.495 22.5058 33.0851C23.5484 35.6753 25.4124 37.8516 27.8116 39.2799C22.9613 40.863 18.8052 44.2063 16.1082 48.8707C16.0093 49.032 15.9437 49.2114 15.9153 49.3984C15.8868 49.5855 15.8961 49.7763 15.9427 49.9597C15.9892 50.1431 16.072 50.3152 16.1861 50.4661C16.3002 50.617 16.4434 50.7435 16.6073 50.8381C16.7711 50.9327 16.9522 50.9935 17.1399 51.017C17.3276 51.0405 17.5181 51.0262 17.7002 50.9749C17.8823 50.9235 18.0523 50.8363 18.2001 50.7182C18.3479 50.6001 18.4705 50.4536 18.5608 50.2874C21.897 44.5215 27.7939 41.079 34.3336 41.079C40.8733 41.079 46.7702 44.5215 50.1064 50.2874C50.1967 50.4536 50.3194 50.6001 50.4672 50.7182C50.615 50.8363 50.7849 50.9235 50.967 50.9749C51.1491 51.0262 51.3396 51.0405 51.5273 51.017C51.715 50.9935 51.8961 50.9327 52.06 50.8381C52.2238 50.7435 52.367 50.617 52.4811 50.4661C52.5953 50.3152 52.678 50.1431 52.7246 49.9597C52.7711 49.7763 52.7804 49.5855 52.752 49.3984C52.7235 49.2114 52.6579 49.032 52.559 48.8707ZM24.4169 28.329C24.4169 26.3677 24.9985 24.4504 26.0882 22.8196C27.1779 21.1888 28.7266 19.9178 30.5387 19.1672C32.3507 18.4167 34.3446 18.2203 36.2683 18.6029C38.1919 18.9856 39.9589 19.93 41.3458 21.3169C42.7326 22.7038 43.6771 24.4707 44.0597 26.3944C44.4424 28.318 44.246 30.3119 43.4954 32.124C42.7448 33.936 41.4738 35.4848 39.843 36.5744C38.2122 37.6641 36.2949 38.2457 34.3336 38.2457C31.7044 38.2429 29.1837 37.1972 27.3246 35.3381C25.4654 33.479 24.4198 30.9582 24.4169 28.329Z" fill="#3FBC61"/>
</svg>
