<svg width="25" height="24" viewBox="0 0 25 24" fill="none" xmlns="http://www.w3.org/2000/svg">
<path d="M21.3027 12C21.3027 12.1989 21.2237 12.3897 21.0831 12.5303C20.9424 12.671 20.7516 12.75 20.5527 12.75H13.0527V20.25C13.0527 20.4489 12.9737 20.6397 12.8331 20.7803C12.6924 20.921 12.5016 21 12.3027 21C12.1038 21 11.9131 20.921 11.7724 20.7803C11.6318 20.6397 11.5527 20.4489 11.5527 20.25V12.75H4.05273C3.85382 12.75 3.66306 12.671 3.5224 12.5303C3.38175 12.3897 3.30273 12.1989 3.30273 12C3.30273 11.8011 3.38175 11.6103 3.5224 11.4697C3.66306 11.329 3.85382 11.25 4.05273 11.25H11.5527V3.75C11.5527 3.55109 11.6318 3.36032 11.7724 3.21967C11.9131 3.07902 12.1038 3 12.3027 3C12.5016 3 12.6924 3.07902 12.8331 3.21967C12.9737 3.36032 13.0527 3.55109 13.0527 3.75V11.25H20.5527C20.7516 11.25 20.9424 11.329 21.0831 11.4697C21.2237 11.6103 21.3027 11.8011 21.3027 12Z" fill="white"/>
</svg>
