<svg width="19" height="18" viewBox="0 0 19 18" fill="none" xmlns="http://www.w3.org/2000/svg">
<path d="M0.381484 3.41438L1.88148 0.414375C1.94384 0.28977 2.03967 0.184999 2.15823 0.111808C2.27679 0.0386169 2.4134 -9.95628e-05 2.55273 1.92282e-07H16.0527C16.1921 -9.95628e-05 16.3287 0.0386169 16.4472 0.111808C16.5658 0.184999 16.6616 0.28977 16.724 0.414375L18.224 3.41438C18.2757 3.51871 18.3026 3.63356 18.3027 3.75V16.5C18.3027 16.8978 18.1447 17.2794 17.8634 17.5607C17.5821 17.842 17.2006 18 16.8027 18H1.80273C1.40491 18 1.02338 17.842 0.742074 17.5607C0.46077 17.2794 0.302734 16.8978 0.302734 16.5V3.75C0.30284 3.63356 0.329787 3.51871 0.381484 3.41438ZM15.5896 1.5H3.01586L2.26586 3H16.3396L15.5896 1.5ZM1.80273 16.5H16.8027V4.5H1.80273V16.5ZM5.77211 9.21937C5.70243 9.28906 5.64715 9.37178 5.60944 9.46283C5.57173 9.55387 5.55232 9.65145 5.55232 9.75C5.55232 9.84855 5.57173 9.94613 5.60944 10.0372C5.64715 10.1282 5.70243 10.2109 5.77211 10.2806C5.84179 10.3503 5.92452 10.4056 6.01556 10.4433C6.10661 10.481 6.20419 10.5004 6.30273 10.5004C6.40128 10.5004 6.49886 10.481 6.58991 10.4433C6.68095 10.4056 6.76368 10.3503 6.83336 10.2806L8.55273 8.56031V14.25C8.55273 14.4489 8.63175 14.6397 8.7724 14.7803C8.91306 14.921 9.10382 15 9.30273 15C9.50165 15 9.69241 14.921 9.83306 14.7803C9.97372 14.6397 10.0527 14.4489 10.0527 14.25V8.56031L11.7721 10.2806C11.8418 10.3503 11.9245 10.4056 12.0156 10.4433C12.1066 10.481 12.2042 10.5004 12.3027 10.5004C12.4013 10.5004 12.4989 10.481 12.5899 10.4433C12.681 10.4056 12.7637 10.3503 12.8334 10.2806C12.903 10.2109 12.9583 10.1282 12.996 10.0372C13.0337 9.94613 13.0532 9.84855 13.0532 9.75C13.0532 9.65145 13.0337 9.55387 12.996 9.46283C12.9583 9.37178 12.903 9.28906 12.8334 9.21937L9.83336 6.21937C9.7637 6.14964 9.68099 6.09432 9.58994 6.05658C9.49889 6.01884 9.4013 5.99941 9.30273 5.99941C9.20417 5.99941 9.10658 6.01884 9.01553 6.05658C8.92448 6.09432 8.84176 6.14964 8.77211 6.21937L5.77211 9.21937Z" fill="#013974"/>
</svg>
