<svg width="30" height="25" viewBox="0 0 30 25" fill="none" xmlns="http://www.w3.org/2000/svg">
<path d="M22 0.5H8C6.93913 0.5 5.92172 0.921427 5.17157 1.67157C4.42143 2.42172 4 3.43913 4 4.5V22.5C4 23.0304 4.21071 23.5391 4.58579 23.9142C4.96086 24.2893 5.46957 24.5 6 24.5H9C9.53043 24.5 10.0391 24.2893 10.4142 23.9142C10.7893 23.5391 11 23.0304 11 22.5V20.5H19V22.5C19 23.0304 19.2107 23.5391 19.5858 23.9142C19.9609 24.2893 20.4696 24.5 21 24.5H24C24.5304 24.5 25.0391 24.2893 25.4142 23.9142C25.7893 23.5391 26 23.0304 26 22.5V4.5C26 3.43913 25.5786 2.42172 24.8284 1.67157C24.0783 0.921427 23.0609 0.5 22 0.5ZM6 18.5V11.5H24V18.5H6ZM6 6.5H24V9.5H6V6.5ZM8 2.5H22C22.5304 2.5 23.0391 2.71071 23.4142 3.08579C23.7893 3.46086 24 3.96957 24 4.5H6C6 3.96957 6.21071 3.46086 6.58579 3.08579C6.96086 2.71071 7.46957 2.5 8 2.5ZM9 22.5H6V20.5H9V22.5ZM21 22.5V20.5H24V22.5H21ZM12 15C12 15.2967 11.912 15.5867 11.7472 15.8334C11.5824 16.08 11.3481 16.2723 11.074 16.3858C10.7999 16.4993 10.4983 16.5291 10.2074 16.4712C9.91639 16.4133 9.64912 16.2704 9.43934 16.0607C9.22956 15.8509 9.0867 15.5836 9.02882 15.2926C8.97094 15.0017 9.00065 14.7001 9.11418 14.426C9.22771 14.1519 9.41997 13.9176 9.66665 13.7528C9.91332 13.588 10.2033 13.5 10.5 13.5C10.8978 13.5 11.2794 13.658 11.5607 13.9393C11.842 14.2206 12 14.6022 12 15ZM21 15C21 15.2967 20.912 15.5867 20.7472 15.8334C20.5824 16.08 20.3481 16.2723 20.074 16.3858C19.7999 16.4993 19.4983 16.5291 19.2074 16.4712C18.9164 16.4133 18.6491 16.2704 18.4393 16.0607C18.2296 15.8509 18.0867 15.5836 18.0288 15.2926C17.9709 15.0017 18.0007 14.7001 18.1142 14.426C18.2277 14.1519 18.42 13.9176 18.6666 13.7528C18.9133 13.588 19.2033 13.5 19.5 13.5C19.8978 13.5 20.2794 13.658 20.5607 13.9393C20.842 14.2206 21 14.6022 21 15ZM30 6.5V9.5C30 9.76522 29.8946 10.0196 29.7071 10.2071C29.5196 10.3946 29.2652 10.5 29 10.5C28.7348 10.5 28.4804 10.3946 28.2929 10.2071C28.1054 10.0196 28 9.76522 28 9.5V6.5C28 6.23478 28.1054 5.98043 28.2929 5.79289C28.4804 5.60536 28.7348 5.5 29 5.5C29.2652 5.5 29.5196 5.60536 29.7071 5.79289C29.8946 5.98043 30 6.23478 30 6.5ZM2 6.5V9.5C2 9.76522 1.89464 10.0196 1.70711 10.2071C1.51957 10.3946 1.26522 10.5 1 10.5C0.734784 10.5 0.48043 10.3946 0.292893 10.2071C0.105357 10.0196 0 9.76522 0 9.5V6.5C0 6.23478 0.105357 5.98043 0.292893 5.79289C0.48043 5.60536 0.734784 5.5 1 5.5C1.26522 5.5 1.51957 5.60536 1.70711 5.79289C1.89464 5.98043 2 6.23478 2 6.5Z" fill="white"/>
</svg>
