<svg width="21" height="20" viewBox="0 0 21 20" fill="none" xmlns="http://www.w3.org/2000/svg">
<path d="M16.9953 12.058L10.7453 5.80795C10.6872 5.74984 10.6183 5.70374 10.5424 5.67229C10.4665 5.64084 10.3852 5.62465 10.3031 5.62465C10.2209 5.62465 10.1396 5.64084 10.0637 5.67229C9.98787 5.70374 9.91894 5.74984 9.86089 5.80795L3.61089 12.058C3.49362 12.1752 3.42773 12.3343 3.42773 12.5001C3.42773 12.666 3.49362 12.8251 3.61089 12.9423C3.72817 13.0596 3.88723 13.1255 4.05308 13.1255C4.21893 13.1255 4.37799 13.0596 4.49527 12.9423L10.3031 7.13373L16.1109 12.9423C16.169 13.0004 16.2379 13.0465 16.3138 13.0779C16.3896 13.1093 16.471 13.1255 16.5531 13.1255C16.6352 13.1255 16.7165 13.1093 16.7924 13.0779C16.8683 13.0465 16.9372 13.0004 16.9953 12.9423C17.0533 12.8843 17.0994 12.8153 17.1308 12.7395C17.1623 12.6636 17.1784 12.5823 17.1784 12.5001C17.1784 12.418 17.1623 12.3367 17.1308 12.2608C17.0994 12.185 17.0533 12.116 16.9953 12.058Z" fill="white"/>
</svg>
