<svg width="25" height="24" viewBox="0 0 25 24" fill="none" xmlns="http://www.w3.org/2000/svg">
<path d="M20.3338 8.46952C20.2641 8.39979 20.1814 8.34447 20.0904 8.30672C19.9993 8.26898 19.9017 8.24955 19.8032 8.24955C19.7046 8.24955 19.607 8.26898 19.5159 8.30672C19.4249 8.34447 19.3422 8.39979 19.2725 8.46952L12.3032 15.4398L5.33378 8.46952C5.19305 8.32879 5.00217 8.24972 4.80315 8.24972C4.60413 8.24972 4.41326 8.32879 4.27253 8.46952C4.1318 8.61025 4.05273 8.80112 4.05273 9.00014C4.05273 9.19917 4.1318 9.39004 4.27253 9.53077L11.7725 17.0308C11.8422 17.1005 11.9249 17.1558 12.0159 17.1936C12.107 17.2313 12.2046 17.2507 12.3032 17.2507C12.4017 17.2507 12.4993 17.2313 12.5904 17.1936C12.6814 17.1558 12.7641 17.1005 12.8338 17.0308L20.3338 9.53077C20.4035 9.46111 20.4588 9.3784 20.4966 9.28735C20.5343 9.1963 20.5537 9.0987 20.5537 9.00014C20.5537 8.90158 20.5343 8.80399 20.4966 8.71294C20.4588 8.62189 20.4035 8.53917 20.3338 8.46952Z" fill="#013974"/>
</svg>
