<svg width="33" height="33" viewBox="0 0 33 33" fill="none" xmlns="http://www.w3.org/2000/svg">
<path d="M27.3027 5.5H5.30273C4.7723 5.5 4.26359 5.71071 3.88852 6.08579C3.51345 6.46086 3.30273 6.96957 3.30273 7.5V25.5C3.30273 26.0304 3.51345 26.5391 3.88852 26.9142C4.26359 27.2893 4.7723 27.5 5.30273 27.5H6.97648C7.16574 27.5001 7.35113 27.4464 7.51111 27.3453C7.67109 27.2442 7.79909 27.0997 7.88023 26.9287C8.36651 25.9021 9.13425 25.0346 10.0942 24.4271C11.0541 23.8196 12.1667 23.4971 13.3027 23.4971C14.4387 23.4971 15.5514 23.8196 16.5113 24.4271C17.4712 25.0346 18.239 25.9021 18.7252 26.9287C18.8064 27.0997 18.9344 27.2442 19.0944 27.3453C19.2543 27.4464 19.4397 27.5001 19.629 27.5H27.3027C27.8332 27.5 28.3419 27.2893 28.7169 26.9142C29.092 26.5391 29.3027 26.0304 29.3027 25.5V7.5C29.3027 6.96957 29.092 6.46086 28.7169 6.08579C28.3419 5.71071 27.8332 5.5 27.3027 5.5ZM13.3027 21.5C12.5116 21.5 11.7383 21.2654 11.0805 20.8259C10.4227 20.3864 9.90997 19.7616 9.60722 19.0307C9.30447 18.2998 9.22525 17.4956 9.37959 16.7196C9.53393 15.9437 9.9149 15.231 10.4743 14.6716C11.0337 14.1122 11.7464 13.7312 12.5224 13.5769C13.2983 13.4225 14.1026 13.5017 14.8335 13.8045C15.5644 14.1072 16.1891 14.6199 16.6286 15.2777C17.0681 15.9355 17.3027 16.7089 17.3027 17.5C17.3027 18.5609 16.8813 19.5783 16.1312 20.3284C15.381 21.0786 14.3636 21.5 13.3027 21.5ZM27.3027 25.5H20.2315C19.7955 24.7483 19.2399 24.0728 18.5865 23.5H24.3027C24.568 23.5 24.8223 23.3946 25.0098 23.2071C25.1974 23.0196 25.3027 22.7652 25.3027 22.5V10.5C25.3027 10.2348 25.1974 9.98043 25.0098 9.79289C24.8223 9.60536 24.568 9.5 24.3027 9.5H8.30273C8.03752 9.5 7.78316 9.60536 7.59563 9.79289C7.40809 9.98043 7.30273 10.2348 7.30273 10.5V22.5C7.30262 22.7218 7.37624 22.9373 7.51201 23.1127C7.64778 23.288 7.83799 23.4133 8.05273 23.4688C7.38425 24.0479 6.8169 24.7344 6.37398 25.5H5.30273V7.5H27.3027V25.5Z" fill="white"/>
</svg>
