<svg width="33" height="32" viewBox="0 0 33 32" fill="none" xmlns="http://www.w3.org/2000/svg">
<path d="M27.3027 5H5.30273C4.7723 5 4.26359 5.21071 3.88852 5.58579C3.51345 5.96086 3.30273 6.46957 3.30273 7V25C3.30273 25.5304 3.51345 26.0391 3.88852 26.4142C4.26359 26.7893 4.7723 27 5.30273 27H6.97648C7.16574 27.0001 7.35113 26.9464 7.51111 26.8453C7.67109 26.7442 7.79909 26.5997 7.88023 26.4287C8.36651 25.4021 9.13425 24.5346 10.0942 23.9271C11.0541 23.3196 12.1667 22.9971 13.3027 22.9971C14.4387 22.9971 15.5514 23.3196 16.5113 23.9271C17.4712 24.5346 18.239 25.4021 18.7252 26.4287C18.8064 26.5997 18.9344 26.7442 19.0944 26.8453C19.2543 26.9464 19.4397 27.0001 19.629 27H27.3027C27.8332 27 28.3419 26.7893 28.7169 26.4142C29.092 26.0391 29.3027 25.5304 29.3027 25V7C29.3027 6.46957 29.092 5.96086 28.7169 5.58579C28.3419 5.21071 27.8332 5 27.3027 5ZM10.3027 18C10.3027 17.4067 10.4787 16.8266 10.8083 16.3333C11.138 15.8399 11.6065 15.4554 12.1547 15.2284C12.7029 15.0013 13.3061 14.9419 13.888 15.0576C14.4699 15.1734 15.0045 15.4591 15.4241 15.8787C15.8436 16.2982 16.1293 16.8328 16.2451 17.4147C16.3608 17.9967 16.3014 18.5999 16.0744 19.1481C15.8473 19.6962 15.4628 20.1648 14.9694 20.4944C14.4761 20.8241 13.8961 21 13.3027 21C12.5071 21 11.744 20.6839 11.1814 20.1213C10.6188 19.5587 10.3027 18.7956 10.3027 18ZM27.3027 25H20.2315C19.3964 23.5643 18.1376 22.4221 16.6277 21.73C17.3847 21.056 17.919 20.1678 18.1597 19.1832C18.4004 18.1986 18.3362 17.1642 17.9756 16.2169C17.615 15.2696 16.975 14.4543 16.1405 13.8791C15.306 13.3038 14.3163 12.9958 13.3027 12.9958C12.2892 12.9958 11.2995 13.3038 10.465 13.8791C9.63048 14.4543 8.99049 15.2696 8.62988 16.2169C8.26927 17.1642 8.20507 18.1986 8.44578 19.1832C8.68649 20.1678 9.22075 21.056 9.97773 21.73C8.46786 22.4221 7.20907 23.5643 6.37398 25H5.30273V7H27.3027V25ZM7.30273 12V10C7.30273 9.73478 7.40809 9.48043 7.59563 9.29289C7.78316 9.10536 8.03752 9 8.30273 9H24.3027C24.568 9 24.8223 9.10536 25.0098 9.29289C25.1974 9.48043 25.3027 9.73478 25.3027 10V22C25.3027 22.2652 25.1974 22.5196 25.0098 22.7071C24.8223 22.8946 24.568 23 24.3027 23H22.3027C22.0375 23 21.7832 22.8946 21.5956 22.7071C21.4081 22.5196 21.3027 22.2652 21.3027 22C21.3027 21.7348 21.4081 21.4804 21.5956 21.2929C21.7832 21.1054 22.0375 21 22.3027 21H23.3027V11H9.30273V12C9.30273 12.2652 9.19738 12.5196 9.00984 12.7071C8.8223 12.8946 8.56795 13 8.30273 13C8.03752 13 7.78316 12.8946 7.59563 12.7071C7.40809 12.5196 7.30273 12.2652 7.30273 12Z" fill="white"/>
</svg>
