<svg width="32" height="32" viewBox="0 0 32 32" fill="none" xmlns="http://www.w3.org/2000/svg">
<g clip-path="url(#clip0_54699_76922)">
<path fill-rule="evenodd" clip-rule="evenodd" d="M25.6584 25.6576C25.5876 25.7284 25.5394 25.8187 25.5199 25.9169C25.5004 26.0151 25.5105 26.1169 25.5488 26.2094C25.5871 26.302 25.6521 26.381 25.7353 26.4367C25.8186 26.4923 25.9165 26.522 26.0166 26.522C26.1168 26.522 26.2147 26.4923 26.298 26.4367C26.3812 26.381 26.4461 26.302 26.4845 26.2094C26.5228 26.1169 26.5329 26.0151 26.5134 25.9169C26.4939 25.8187 26.4457 25.7284 26.3749 25.6576C26.279 25.5633 26.15 25.5102 26.0155 25.5097C25.8816 25.5097 25.7531 25.5629 25.6584 25.6576ZM26.0155 27.3872C25.6982 27.3864 25.3909 27.2757 25.1461 27.0739C24.9012 26.8721 24.7339 26.5917 24.6726 26.2804C24.6112 25.9691 24.6597 25.6461 24.8098 25.3665C24.9598 25.0869 25.2021 24.868 25.4954 24.747C25.7888 24.626 26.115 24.6104 26.4185 24.7029C26.722 24.7954 26.9841 24.9902 27.1601 25.2542C27.3361 25.5182 27.4152 25.835 27.3839 26.1508C27.3525 26.4665 27.2127 26.7617 26.9882 26.9859C26.8606 27.1137 26.7089 27.215 26.542 27.2839C26.375 27.3527 26.1961 27.3878 26.0155 27.3872ZM29 17.6003L26.2616 18.0359C26.1768 18.0492 26.0979 18.0876 26.0351 18.1461C25.9722 18.2046 25.9283 18.2805 25.9089 18.3641C25.7337 19.0932 25.4791 19.8009 25.1494 20.4744L23.0405 18.3655C23.4233 17.1176 23.4525 15.788 23.1249 14.5244C22.7974 13.2609 22.1259 12.1129 21.1851 11.2081C20.2443 10.3032 19.071 9.67698 17.7957 9.39889C16.5203 9.1208 15.1928 9.20177 13.9607 9.63282C13.8913 9.65625 13.8291 9.69738 13.7804 9.75213C13.7317 9.80689 13.698 9.8734 13.6828 9.9451C13.6662 10.0166 13.6682 10.0911 13.6884 10.1616C13.7086 10.2321 13.7465 10.2963 13.7984 10.3481L17.5921 14.1412L16.8612 16.8628L14.1422 17.5916L10.3473 13.7988C10.2955 13.7468 10.2312 13.7087 10.1606 13.6883C10.0901 13.6679 10.0154 13.6657 9.94378 13.6821C9.87214 13.6984 9.80583 13.7327 9.75109 13.7818C9.69635 13.8308 9.65498 13.8929 9.63087 13.9623C9.19986 15.1946 9.119 16.5222 9.39726 17.7977C9.67553 19.0731 10.302 20.2464 11.2071 21.1872C12.1122 22.1279 13.2604 22.7993 14.5242 23.1266C15.7879 23.454 17.1177 23.4245 18.3657 23.0414L20.4746 25.1503C19.8018 25.4799 19.0945 25.7337 18.3657 25.9072C18.2818 25.927 18.2056 25.9711 18.1468 26.0342C18.088 26.0972 18.0491 26.1763 18.0352 26.2614L17.6019 29H14.3984L13.9651 26.2619C13.9509 26.1775 13.9122 26.099 13.8538 26.0363C13.7954 25.9737 13.7199 25.9296 13.6366 25.9095C12.5863 25.6606 11.5826 25.2455 10.6634 24.6797C10.5903 24.6348 10.5056 24.6126 10.42 24.6158C10.3343 24.619 10.2515 24.6476 10.1821 24.6979L7.94 26.3249L5.678 24.0606L7.30444 21.8177C7.35477 21.7483 7.38346 21.6655 7.3869 21.5799C7.39035 21.4942 7.36839 21.4094 7.3238 21.3362C6.75614 20.4183 6.3411 19.4145 6.09487 18.3638C6.07443 18.2799 6.02961 18.204 5.96606 18.1456C5.90251 18.0872 5.82308 18.0489 5.7378 18.0356L3 17.6003V14.4L5.73838 13.9667C5.82372 13.9533 5.90319 13.9149 5.96674 13.8564C6.03029 13.7979 6.07508 13.7219 6.09544 13.6379C6.34133 12.587 6.75618 11.583 7.3238 10.665C7.36839 10.5918 7.39035 10.507 7.3869 10.4213C7.38346 10.3356 7.35477 10.2529 7.30444 10.1834L5.678 7.94081L7.94 5.67653L10.1821 7.30526C10.252 7.35551 10.3352 7.38403 10.4213 7.38726C10.5073 7.3905 10.5924 7.36831 10.666 7.32346C11.584 6.75678 12.5869 6.341 13.6366 6.09194C13.7199 6.07177 13.7955 6.02751 13.8539 5.96468C13.9122 5.90185 13.9508 5.82324 13.9648 5.73864L14.3981 3H17.6016L18.0349 5.73806C18.0487 5.82285 18.0873 5.90167 18.1457 5.96463C18.2041 6.02759 18.2799 6.07188 18.3634 6.09194C19.4138 6.34094 20.4176 6.75641 21.3366 7.3226C21.4098 7.36739 21.4945 7.38949 21.5802 7.38609C21.6659 7.3827 21.7486 7.35397 21.8179 7.30353L24.06 5.67653L26.3243 7.94081L24.6956 10.1834C24.6453 10.2529 24.6168 10.3357 24.6134 10.4213C24.61 10.507 24.6319 10.5918 24.6765 10.665C25.2434 11.5834 25.6595 12.5867 25.9089 13.6368C25.9274 13.7208 25.971 13.7972 26.0339 13.8559C26.0968 13.9146 26.176 13.9528 26.261 13.9655L28.9994 14.3989L29 17.6003ZM27.9626 27.9279L27.9268 27.9638C27.4738 28.416 26.8598 28.67 26.2197 28.67C25.5796 28.67 24.9657 28.416 24.5127 27.9638L18.7898 22.2407C18.7495 22.2004 18.7018 22.1685 18.6492 22.1468C18.5966 22.125 18.5402 22.1138 18.4833 22.1138C18.4341 22.1134 18.3852 22.1216 18.3388 22.1381C17.2958 22.5021 16.1743 22.5805 15.0907 22.3653C14.0071 22.15 13.0008 21.6488 12.176 20.9138C11.3513 20.1787 10.7381 19.2364 10.4001 18.1846C10.0621 17.1328 10.0116 16.0098 10.2537 14.9318L13.7036 18.3817C13.7576 18.4353 13.8246 18.4738 13.898 18.4935C13.9714 18.5132 14.0487 18.5134 14.1222 18.4941L17.3289 17.6352C17.4025 17.616 17.4696 17.5776 17.5234 17.5239C17.5772 17.4702 17.6158 17.4031 17.6351 17.3296L18.4928 14.123C18.5128 14.0494 18.5129 13.9718 18.4931 13.8982C18.4733 13.8245 18.4343 13.7575 18.3802 13.7038L14.9311 10.2551C16.0092 10.0121 17.1327 10.0621 18.1849 10.3999C19.2372 10.7376 20.1798 11.3509 20.9151 12.1759C21.6503 13.001 22.1513 14.0078 22.3661 15.0918C22.5809 16.1759 22.5017 17.2976 22.1366 18.3407C22.1104 18.4178 22.1062 18.5006 22.1244 18.5799C22.1426 18.6593 22.1826 18.732 22.2397 18.7899L27.9632 24.5127C28.4153 24.9661 28.6691 25.5801 28.6691 26.2203C28.6691 26.8605 28.4147 27.4746 27.9626 27.9279Z" fill="white"/>
</g>
<defs>
<clipPath id="clip0_54699_76922">
<rect width="32" height="32" fill="white"/>
</clipPath>
</defs>
</svg>
