<svg width="33" height="33" viewBox="0 0 33 33" fill="none" xmlns="http://www.w3.org/2000/svg">
<path d="M27.3028 16.7701C27.3078 16.5901 27.3078 16.4101 27.3028 16.2301L29.1678 13.9001C29.2656 13.7777 29.3333 13.6341 29.3654 13.4808C29.3975 13.3276 29.3932 13.1689 29.3528 13.0176C29.0465 11.8685 28.5892 10.7651 27.9928 9.73631C27.9146 9.6017 27.8061 9.4872 27.6759 9.40192C27.5457 9.31664 27.3974 9.26292 27.2428 9.24506L24.2778 8.91506C24.1545 8.78506 24.0295 8.66006 23.9028 8.54006L23.5528 5.56756C23.5348 5.41282 23.4809 5.26443 23.3954 5.13422C23.3099 5.00401 23.1951 4.89557 23.0603 4.81756C22.0315 4.22162 20.9281 3.76512 19.779 3.46006C19.6277 3.41963 19.469 3.41531 19.3158 3.44745C19.1625 3.47958 19.0189 3.54727 18.8965 3.64506L16.5728 5.50006C16.3928 5.50006 16.2128 5.50006 16.0328 5.50006L13.7028 3.63881C13.5805 3.54102 13.4369 3.47333 13.2836 3.4412C13.1303 3.40906 12.9716 3.41338 12.8203 3.45381C11.6712 3.76009 10.5679 4.21741 9.53904 4.81381C9.40444 4.89196 9.28994 5.00046 9.20465 5.13067C9.11937 5.26087 9.06566 5.40919 9.04779 5.56381L8.71779 8.53381C8.58779 8.65797 8.46279 8.78297 8.34279 8.90881L5.37029 9.25006C5.21556 9.26806 5.06717 9.32196 4.93695 9.40747C4.80674 9.49298 4.69831 9.60772 4.62029 9.74256C4.02448 10.7715 3.56758 11.8749 3.26154 13.0238C3.22129 13.1752 3.21717 13.334 3.24952 13.4872C3.28187 13.6405 3.34979 13.7841 3.44779 13.9063L5.30279 16.2301C5.30279 16.4101 5.30279 16.5901 5.30279 16.7701L3.44154 19.1001C3.34375 19.2224 3.27606 19.366 3.24393 19.5193C3.2118 19.6726 3.21612 19.8312 3.25654 19.9826C3.56283 21.1316 4.02015 22.235 4.61654 23.2638C4.6947 23.3984 4.8032 23.5129 4.9334 23.5982C5.06361 23.6835 5.21192 23.7372 5.36654 23.7551L8.33154 24.0851C8.45571 24.2151 8.58071 24.3401 8.70654 24.4601L9.05279 27.4326C9.07079 27.5873 9.1247 27.7357 9.2102 27.8659C9.29571 27.9961 9.41046 28.1045 9.54529 28.1826C10.5742 28.7784 11.6776 29.2353 12.8265 29.5413C12.9779 29.5816 13.1367 29.5857 13.29 29.5533C13.4433 29.521 13.5868 29.4531 13.709 29.3551L16.0328 27.5001C16.2128 27.5051 16.3928 27.5051 16.5728 27.5001L18.9028 29.3651C19.0251 29.4628 19.1687 29.5305 19.322 29.5627C19.4753 29.5948 19.634 29.5905 19.7853 29.5501C20.9345 29.2443 22.038 28.787 23.0665 28.1901C23.2011 28.1119 23.3156 28.0034 23.4009 27.8732C23.4862 27.743 23.5399 27.5947 23.5578 27.4401L23.8878 24.4751C24.0178 24.3517 24.1428 24.2267 24.2628 24.1001L27.2353 23.7501C27.39 23.7321 27.5384 23.6782 27.6686 23.5926C27.7988 23.5071 27.9073 23.3924 27.9853 23.2576C28.5811 22.2286 29.038 21.1253 29.344 19.9763C29.3843 19.8249 29.3884 19.6662 29.3561 19.5129C29.3237 19.3596 29.2558 19.216 29.1578 19.0938L27.3028 16.7701ZM16.3028 21.5001C15.3139 21.5001 14.3472 21.2068 13.5249 20.6574C12.7027 20.108 12.0618 19.3271 11.6834 18.4135C11.305 17.4998 11.2059 16.4945 11.3989 15.5246C11.5918 14.5547 12.068 13.6638 12.7673 12.9645C13.4665 12.2653 14.3574 11.7891 15.3273 11.5961C16.2972 11.4032 17.3026 11.5022 18.2162 11.8807C19.1298 12.2591 19.9107 12.9 20.4601 13.7222C21.0095 14.5445 21.3028 15.5112 21.3028 16.5001C21.3028 17.8261 20.776 19.0979 19.8383 20.0356C18.9006 20.9733 17.6289 21.5001 16.3028 21.5001Z" fill="white"/>
</svg>
