<svg width="33" height="32" viewBox="0 0 33 32" fill="none" xmlns="http://www.w3.org/2000/svg">
<path d="M16.3028 10.0001C15.1161 10.0001 13.9561 10.352 12.9694 11.0112C11.9827 11.6705 11.2136 12.6076 10.7595 13.704C10.3054 14.8003 10.1866 16.0067 10.4181 17.1706C10.6496 18.3345 11.221 19.4036 12.0602 20.2427C12.8993 21.0818 13.9684 21.6533 15.1322 21.8848C16.2961 22.1163 17.5025 21.9975 18.5989 21.5433C19.6952 21.0892 20.6323 20.3202 21.2916 19.3335C21.9509 18.3468 22.3028 17.1867 22.3028 16.0001C22.3011 14.4093 21.6685 12.8841 20.5436 11.7592C19.4187 10.6344 17.8936 10.0017 16.3028 10.0001ZM16.3028 20.0001C15.5117 20.0001 14.7383 19.7655 14.0805 19.3259C13.4227 18.8864 12.91 18.2617 12.6073 17.5308C12.3045 16.7999 12.2253 15.9956 12.3797 15.2197C12.534 14.4438 12.915 13.731 13.4744 13.1716C14.0338 12.6122 14.7465 12.2313 15.5224 12.0769C16.2984 11.9226 17.1026 12.0018 17.8335 12.3045C18.5644 12.6073 19.1891 13.12 19.6287 13.7778C20.0682 14.4356 20.3028 15.2089 20.3028 16.0001C20.3028 17.0609 19.8814 18.0783 19.1312 18.8285C18.3811 19.5786 17.3637 20.0001 16.3028 20.0001ZM27.3028 16.2701C27.3078 16.0901 27.3078 15.9101 27.3028 15.7301L29.1678 13.4001C29.2656 13.2777 29.3333 13.1341 29.3654 12.9808C29.3975 12.8276 29.3932 12.6689 29.3528 12.5176C29.0471 11.3683 28.5897 10.2649 27.9928 9.23631C27.9146 9.1017 27.8061 8.9872 27.6759 8.90192C27.5457 8.81664 27.3974 8.76292 27.2428 8.74506L24.2778 8.41506C24.1545 8.28506 24.0295 8.16006 23.9028 8.04006L23.5528 5.06756C23.5348 4.91282 23.4809 4.76443 23.3954 4.63422C23.3099 4.50401 23.1951 4.39557 23.0603 4.31756C22.0313 3.72174 20.928 3.26485 19.779 2.95881C19.6276 2.91855 19.4689 2.91444 19.3156 2.94679C19.1623 2.97914 19.0188 3.04705 18.8965 3.14506L16.5728 5.00006C16.3928 5.00006 16.2128 5.00006 16.0328 5.00006L13.7028 3.13881C13.5805 3.04102 13.4369 2.97333 13.2836 2.9412C13.1303 2.90906 12.9716 2.91338 12.8203 2.95381C11.6712 3.26009 10.5679 3.71741 9.53904 4.31381C9.40444 4.39196 9.28994 4.50046 9.20465 4.63067C9.11937 4.76087 9.06566 4.90919 9.04779 5.06381L8.71779 8.03381C8.58779 8.15797 8.46279 8.28297 8.34279 8.40881L5.37029 8.75006C5.21556 8.76806 5.06717 8.82196 4.93695 8.90747C4.80674 8.99298 4.69831 9.10772 4.62029 9.24256C4.02448 10.2715 3.56758 11.3749 3.26154 12.5238C3.22129 12.6752 3.21717 12.834 3.24952 12.9872C3.28187 13.1405 3.34979 13.2841 3.44779 13.4063L5.30279 15.7301C5.30279 15.9101 5.30279 16.0901 5.30279 16.2701L3.44154 18.6001C3.34375 18.7224 3.27606 18.866 3.24393 19.0193C3.2118 19.1726 3.21612 19.3312 3.25654 19.4826C3.56228 20.6318 4.01963 21.7352 4.61654 22.7638C4.6947 22.8984 4.8032 23.0129 4.9334 23.0982C5.06361 23.1835 5.21192 23.2372 5.36654 23.2551L8.33154 23.5851C8.45571 23.7151 8.58071 23.8401 8.70654 23.9601L9.05279 26.9326C9.07079 27.0873 9.1247 27.2357 9.2102 27.3659C9.29571 27.4961 9.41046 27.6045 9.54529 27.6826C10.5742 28.2784 11.6776 28.7353 12.8265 29.0413C12.9779 29.0816 13.1367 29.0857 13.29 29.0533C13.4433 29.021 13.5868 28.9531 13.709 28.8551L16.0328 27.0001C16.2128 27.0051 16.3928 27.0051 16.5728 27.0001L18.9028 28.8651C19.0251 28.9628 19.1687 29.0305 19.322 29.0627C19.4753 29.0948 19.634 29.0905 19.7853 29.0501C20.9345 28.7443 22.038 28.287 23.0665 27.6901C23.2011 27.6119 23.3156 27.5034 23.4009 27.3732C23.4862 27.243 23.5399 27.0947 23.5578 26.9401L23.8878 23.9751C24.0178 23.8517 24.1428 23.7267 24.2628 23.6001L27.2353 23.2501C27.39 23.2321 27.5384 23.1782 27.6686 23.0926C27.7988 23.0071 27.9073 22.8924 27.9853 22.7576C28.5811 21.7286 29.038 20.6253 29.344 19.4763C29.3843 19.3249 29.3884 19.1662 29.3561 19.0129C29.3237 18.8596 29.2558 18.716 29.1578 18.5938L27.3028 16.2701ZM25.2903 15.4576C25.3115 15.8189 25.3115 16.1812 25.2903 16.5426C25.2754 16.79 25.3529 17.0341 25.5078 17.2276L27.2815 19.4438C27.078 20.0906 26.8174 20.7181 26.5028 21.3188L23.6778 21.6388C23.4318 21.6661 23.2046 21.7837 23.0403 21.9688C22.7997 22.2394 22.5434 22.4957 22.2728 22.7363C22.0877 22.9006 21.9701 23.1278 21.9428 23.3738L21.629 26.1963C21.0284 26.5111 20.4009 26.7717 19.754 26.9751L17.5365 25.2013C17.3591 25.0595 17.1387 24.9824 16.9115 24.9826H16.8515C16.4902 25.0038 16.1279 25.0038 15.7665 24.9826C15.5191 24.9677 15.275 25.0452 15.0815 25.2001L12.859 26.9751C12.2122 26.7715 11.5847 26.5109 10.984 26.1963L10.664 23.3751C10.6367 23.129 10.5192 22.9019 10.334 22.7376C10.0634 22.4969 9.80715 22.2407 9.56654 21.9701C9.40221 21.7849 9.17506 21.6674 8.92904 21.6401L6.10654 21.3251C5.79178 20.7244 5.53117 20.0969 5.32779 19.4501L7.10154 17.2326C7.25642 17.0391 7.33393 16.795 7.31904 16.5476C7.29779 16.1862 7.29779 15.8239 7.31904 15.4626C7.33393 15.2152 7.25642 14.971 7.10154 14.7776L5.32779 12.5563C5.53132 11.9095 5.79193 11.282 6.10654 10.6813L8.92779 10.3613C9.17381 10.334 9.40096 10.2164 9.56529 10.0313C9.8059 9.76069 10.0622 9.50442 10.3328 9.26381C10.5186 9.09937 10.6367 8.8717 10.664 8.62506L10.9778 5.80381C11.5784 5.48905 12.2059 5.22843 12.8528 5.02506L15.0703 6.79881C15.2638 6.95369 15.5079 7.0312 15.7553 7.01631C16.1166 6.99506 16.4789 6.99506 16.8403 7.01631C17.0877 7.0312 17.3318 6.95369 17.5253 6.79881L19.7465 5.02506C20.3934 5.22859 21.0208 5.4892 21.6215 5.80381L21.9415 8.62506C21.9689 8.87108 22.0864 9.09822 22.2715 9.26256C22.5422 9.50317 22.7984 9.75944 23.039 10.0301C23.2034 10.2152 23.4305 10.3327 23.6765 10.3601L26.499 10.6738C26.8138 11.2744 27.0744 11.9019 27.2778 12.5488L25.504 14.7663C25.3477 14.9614 25.2701 15.2081 25.2865 15.4576H25.2903Z" fill="white"/>
</svg>
