<svg width="27" height="26" viewBox="0 0 27 26" fill="none" xmlns="http://www.w3.org/2000/svg">
<path d="M13.3027 0C10.7316 0 8.21817 0.762437 6.08033 2.1909C3.94249 3.61935 2.27625 5.64968 1.29231 8.02512C0.308367 10.4006 0.0509237 13.0144 0.552532 15.5362C1.05414 18.0579 2.29227 20.3743 4.11035 22.1924C5.92843 24.0105 8.24481 25.2486 10.7666 25.7502C13.2883 26.2518 15.9022 25.9944 18.2776 25.0104C20.6531 24.0265 22.6834 22.3603 24.1118 20.2224C25.5403 18.0846 26.3027 15.5712 26.3027 13C26.2991 9.5533 24.9283 6.24882 22.4911 3.81163C20.0539 1.37445 16.7494 0.00363977 13.3027 0ZM13.3027 21C13.0061 21 12.7161 20.912 12.4694 20.7472C12.2227 20.5824 12.0305 20.3481 11.9169 20.074C11.8034 19.7999 11.7737 19.4983 11.8316 19.2074C11.8894 18.9164 12.0323 18.6491 12.2421 18.4393C12.4519 18.2296 12.7191 18.0867 13.0101 18.0288C13.3011 17.9709 13.6027 18.0007 13.8768 18.1142C14.1509 18.2277 14.3851 18.42 14.5499 18.6666C14.7148 18.9133 14.8027 19.2033 14.8027 19.5C14.8027 19.8978 14.6447 20.2794 14.3634 20.5607C14.0821 20.842 13.7006 21 13.3027 21ZM14.3027 14.91V15C14.3027 15.2652 14.1974 15.5196 14.0098 15.7071C13.8223 15.8946 13.568 16 13.3027 16C13.0375 16 12.7832 15.8946 12.5956 15.7071C12.4081 15.5196 12.3027 15.2652 12.3027 15V14C12.3027 13.7348 12.4081 13.4804 12.5956 13.2929C12.7832 13.1054 13.0375 13 13.3027 13C14.9565 13 16.3027 11.875 16.3027 10.5C16.3027 9.125 14.9565 8 13.3027 8C11.649 8 10.3027 9.125 10.3027 10.5V11C10.3027 11.2652 10.1974 11.5196 10.0098 11.7071C9.82231 11.8946 9.56796 12 9.30274 12C9.03752 12 8.78317 11.8946 8.59563 11.7071C8.4081 11.5196 8.30274 11.2652 8.30274 11V10.5C8.30274 8.01875 10.5452 6 13.3027 6C16.0602 6 18.3027 8.01875 18.3027 10.5C18.3027 12.6725 16.5827 14.4913 14.3027 14.91Z" fill="white"/>
</svg>
