<svg width="26" height="26" viewBox="0 0 26 26" fill="none" xmlns="http://www.w3.org/2000/svg">
<path fill-rule="evenodd" clip-rule="evenodd" d="M22.6584 22.6576C22.5876 22.7284 22.5394 22.8187 22.5199 22.9169C22.5004 23.0151 22.5105 23.1169 22.5488 23.2094C22.5871 23.302 22.6521 23.381 22.7353 23.4367C22.8186 23.4923 22.9165 23.522 23.0166 23.522C23.1168 23.522 23.2147 23.4923 23.298 23.4367C23.3812 23.381 23.4461 23.302 23.4845 23.2094C23.5228 23.1169 23.5329 23.0151 23.5134 22.9169C23.4939 22.8187 23.4457 22.7284 23.3749 22.6576C23.279 22.5633 23.15 22.5102 23.0155 22.5097C22.8816 22.5097 22.7531 22.5629 22.6584 22.6576ZM23.0155 24.3872C22.6982 24.3864 22.3909 24.2757 22.1461 24.0739C21.9012 23.8721 21.7339 23.5917 21.6726 23.2804C21.6112 22.9691 21.6597 22.6461 21.8098 22.3665C21.9598 22.0869 22.2021 21.868 22.4954 21.747C22.7888 21.626 23.115 21.6104 23.4185 21.7029C23.722 21.7954 23.9841 21.9902 24.1601 22.2542C24.3361 22.5182 24.4152 22.835 24.3839 23.1508C24.3525 23.4665 24.2127 23.7617 23.9882 23.9859C23.8606 24.1137 23.7089 24.215 23.542 24.2839C23.375 24.3527 23.1961 24.3878 23.0155 24.3872ZM26 14.6003L23.2616 15.0359C23.1768 15.0492 23.0979 15.0876 23.0351 15.1461C22.9722 15.2046 22.9283 15.2805 22.9089 15.3641C22.7337 16.0932 22.4791 16.8009 22.1494 17.4744L20.0405 15.3655C20.4233 14.1176 20.4525 12.788 20.1249 11.5244C19.7974 10.2609 19.1259 9.11292 18.1851 8.20808C17.2443 7.30324 16.071 6.67698 14.7957 6.39889C13.5203 6.1208 12.1928 6.20177 10.9607 6.63282C10.8913 6.65625 10.8291 6.69738 10.7804 6.75213C10.7317 6.80689 10.698 6.8734 10.6828 6.9451C10.6662 7.01656 10.6682 7.09106 10.6884 7.16157C10.7086 7.23208 10.7465 7.29628 10.7984 7.3481L14.5921 11.1412L13.8612 13.8628L11.1422 14.5916L7.34731 10.7988C7.29547 10.7468 7.23123 10.7087 7.16064 10.6883C7.09005 10.6679 7.01543 10.6657 6.94378 10.6821C6.87214 10.6984 6.80583 10.7327 6.75109 10.7818C6.69635 10.8308 6.65498 10.8929 6.63087 10.9623C6.19986 12.1946 6.119 13.5222 6.39726 14.7977C6.67553 16.0731 7.30202 17.2464 8.20711 18.1872C9.1122 19.1279 10.2604 19.7993 11.5242 20.1266C12.7879 20.454 14.1177 20.4245 15.3657 20.0414L17.4746 22.1503C16.8018 22.4799 16.0945 22.7337 15.3657 22.9072C15.2818 22.927 15.2056 22.9711 15.1468 23.0342C15.088 23.0972 15.0491 23.1763 15.0352 23.2614L14.6019 26H11.3984L10.9651 23.2619C10.9509 23.1775 10.9122 23.099 10.8538 23.0363C10.7954 22.9737 10.7199 22.9296 10.6366 22.9095C9.58631 22.6606 8.58257 22.2455 7.66336 21.6797C7.59033 21.6348 7.50562 21.6126 7.41995 21.6158C7.33428 21.619 7.25149 21.6476 7.18207 21.6979L4.94 23.3249L2.678 21.0606L4.30444 18.8177C4.35477 18.7483 4.38346 18.6655 4.3869 18.5799C4.39035 18.4942 4.36839 18.4094 4.3238 18.3362C3.75614 17.4183 3.3411 16.4145 3.09487 15.3638C3.07443 15.2799 3.02961 15.204 2.96606 15.1456C2.90251 15.0872 2.82308 15.0489 2.7378 15.0356L0 14.6003V11.4L2.73838 10.9667C2.82372 10.9533 2.90319 10.9149 2.96674 10.8564C3.03029 10.7979 3.07508 10.7219 3.09544 10.6379C3.34133 9.58702 3.75618 8.58298 4.3238 7.665C4.36839 7.59176 4.39035 7.50697 4.3869 7.42129C4.38346 7.33561 4.35477 7.25286 4.30444 7.18343L2.678 4.94081L4.94 2.67653L7.18207 4.30526C7.25201 4.35551 7.33521 4.38403 7.42127 4.38726C7.50733 4.3905 7.59243 4.36831 7.66596 4.32346C8.58396 3.75678 9.58691 3.341 10.6366 3.09194C10.7199 3.07177 10.7955 3.02751 10.8539 2.96468C10.9122 2.90185 10.9508 2.82324 10.9648 2.73864L11.3981 0H14.6016L15.0349 2.73806C15.0487 2.82285 15.0873 2.90167 15.1457 2.96463C15.2041 3.02759 15.2799 3.07188 15.3634 3.09194C16.4138 3.34094 17.4176 3.75641 18.3366 4.3226C18.4098 4.36739 18.4945 4.38949 18.5802 4.38609C18.6659 4.3827 18.7486 4.35397 18.8179 4.30353L21.06 2.67653L23.3243 4.94081L21.6956 7.18343C21.6453 7.25292 21.6168 7.33568 21.6134 7.42134C21.61 7.507 21.6319 7.59176 21.6765 7.665C22.2434 8.5834 22.6595 9.58671 22.9089 10.6368C22.9274 10.7208 22.971 10.7972 23.0339 10.8559C23.0968 10.9146 23.176 10.9528 23.261 10.9655L25.9994 11.3989L26 14.6003ZM24.9626 24.9279L24.9268 24.9638C24.4738 25.416 23.8598 25.67 23.2197 25.67C22.5796 25.67 21.9657 25.416 21.5127 24.9638L15.7898 19.2407C15.7495 19.2004 15.7018 19.1685 15.6492 19.1468C15.5966 19.125 15.5402 19.1138 15.4833 19.1138C15.4341 19.1134 15.3852 19.1216 15.3388 19.1381C14.2958 19.5021 13.1743 19.5805 12.0907 19.3653C11.0071 19.15 10.0008 18.6488 9.17602 17.9138C8.35128 17.1787 7.73814 16.2364 7.40015 15.1846C7.06215 14.1328 7.01159 13.0098 7.25371 11.9318L10.7036 15.3817C10.7576 15.4353 10.8246 15.4738 10.898 15.4935C10.9714 15.5132 11.0487 15.5134 11.1222 15.4941L14.3289 14.6352C14.4025 14.616 14.4696 14.5776 14.5234 14.5239C14.5772 14.4702 14.6158 14.4031 14.6351 14.3296L15.4928 11.123C15.5128 11.0494 15.5129 10.9718 15.4931 10.8982C15.4733 10.8245 15.4343 10.7575 15.3802 10.7038L11.9311 7.25508C13.0092 7.0121 14.1327 7.0621 15.1849 7.39987C16.2372 7.73764 17.1798 8.35087 17.9151 9.17593C18.6503 10.001 19.1513 11.0078 19.3661 12.0918C19.5809 13.1759 19.5017 14.2976 19.1366 15.3407C19.1104 15.4178 19.1062 15.5006 19.1244 15.5799C19.1426 15.6593 19.1826 15.732 19.2397 15.7899L24.9632 21.5127C25.4153 21.9661 25.6691 22.5801 25.6691 23.2203C25.6691 23.8605 25.4147 24.4746 24.9626 24.9279Z" fill="white"/>
</svg>
