<svg width="24" height="24" viewBox="0 0 24 24" fill="none" xmlns="http://www.w3.org/2000/svg">
<g clip-path="url(#clip0_54743_84845)">
<path d="M23.121 0.879C21.951 -0.291 20.049 -0.291 18.879 0.879L12.172 7.586C11.416 8.341 11 9.346 11 10.414V12C11 12.552 11.447 13 12 13H13.586C14.654 13 15.659 12.583 16.414 11.828L23.121 5.121C24.285 4.004 24.285 1.996 23.121 0.879ZM21.707 3.707L15 10.414C14.622 10.792 14.12 11 13.586 11L21.3691 4.57443L13 10.5C12.5 11 13.8172 12.2 14.1892 11.828L21.5 4.5C21.891 4.11 20.9781 4.18443 21.3691 4.57443C21.7571 4.94643 22.095 3.335 21.707 3.707ZM12 18C11.447 18 11 17.553 11 17C11 16.447 11.447 16 12 16H15C15.553 16 16 16.447 16 17C16 17.553 15.553 18 15 18H12ZM20 14V19C20 21.757 17.757 24 15 24H5C2.243 24 0 21.757 0 19V5C0 2.243 2.243 0 5 0H14C14.553 0 15 0.448 15 1C15 1.552 14.553 2 14 2H5C3.346 2 2 3.346 2 5V19C2 20.654 3.346 22 5 22H15C16.654 22 18 20.654 18 19V14C18 13.447 18.447 13 19 13C19.553 13 20 13.447 20 14ZM9.167 11.667L7.48 13.354C7.049 13.785 6.485 14.002 5.919 14.002C5.386 14.002 4.853 13.809 4.428 13.42L3.759 12.841C3.342 12.479 3.297 11.847 3.658 11.43C4.021 11.011 4.652 10.969 5.069 11.329L5.758 11.927C5.861 12.02 5.986 12.019 6.065 11.94L7.752 10.253C8.143 9.862 8.775 9.862 9.166 10.253C9.557 10.644 9.558 11.276 9.167 11.667ZM9.167 6.707L7.48 8.394C7.049 8.825 6.485 9.042 5.919 9.042C5.386 9.042 4.853 8.849 4.428 8.46L3.759 7.881C3.342 7.519 3.297 6.887 3.658 6.47C4.021 6.052 4.652 6.009 5.069 6.369L5.758 6.967C5.861 7.061 5.986 7.059 6.065 6.98L7.752 5.293C8.143 4.902 8.775 4.902 9.166 5.293C9.557 5.684 9.558 6.316 9.167 6.707ZM9.167 15.253C9.558 15.644 9.558 16.276 9.167 16.667L7.48 18.354C7.049 18.785 6.485 19.002 5.919 19.002C5.386 19.002 4.853 18.809 4.428 18.42L3.759 17.841C3.342 17.479 3.297 16.848 3.658 16.43C4.021 16.013 4.652 15.968 5.069 16.329L5.758 16.927C5.861 17.02 5.986 17.019 6.065 16.94L7.752 15.253C8.143 14.862 8.776 14.862 9.167 15.253Z" fill="white"/>
</g>
<defs>
<clipPath id="clip0_54743_84845">
<rect width="24" height="24" fill="white"/>
</clipPath>
</defs>
</svg>
