<svg width="33" height="32" viewBox="0 0 33 32" fill="none" xmlns="http://www.w3.org/2000/svg">
<path d="M13.3027 5H7.30273C6.7723 5 6.26359 5.21071 5.88852 5.58579C5.51345 5.96086 5.30273 6.46957 5.30273 7V13C5.30273 13.5304 5.51345 14.0391 5.88852 14.4142C6.26359 14.7893 6.7723 15 7.30273 15H13.3027C13.8332 15 14.3419 14.7893 14.7169 14.4142C15.092 14.0391 15.3027 13.5304 15.3027 13V7C15.3027 6.46957 15.092 5.96086 14.7169 5.58579C14.3419 5.21071 13.8332 5 13.3027 5ZM13.3027 13H7.30273V7H13.3027V13ZM25.3027 5H19.3027C18.7723 5 18.2636 5.21071 17.8885 5.58579C17.5134 5.96086 17.3027 6.46957 17.3027 7V13C17.3027 13.5304 17.5134 14.0391 17.8885 14.4142C18.2636 14.7893 18.7723 15 19.3027 15H25.3027C25.8332 15 26.3419 14.7893 26.7169 14.4142C27.092 14.0391 27.3027 13.5304 27.3027 13V7C27.3027 6.46957 27.092 5.96086 26.7169 5.58579C26.3419 5.21071 25.8332 5 25.3027 5ZM25.3027 13H19.3027V7H25.3027V13ZM13.3027 17H7.30273C6.7723 17 6.26359 17.2107 5.88852 17.5858C5.51345 17.9609 5.30273 18.4696 5.30273 19V25C5.30273 25.5304 5.51345 26.0391 5.88852 26.4142C6.26359 26.7893 6.7723 27 7.30273 27H13.3027C13.8332 27 14.3419 26.7893 14.7169 26.4142C15.092 26.0391 15.3027 25.5304 15.3027 25V19C15.3027 18.4696 15.092 17.9609 14.7169 17.5858C14.3419 17.2107 13.8332 17 13.3027 17ZM13.3027 25H7.30273V19H13.3027V25ZM25.3027 17H19.3027C18.7723 17 18.2636 17.2107 17.8885 17.5858C17.5134 17.9609 17.3027 18.4696 17.3027 19V25C17.3027 25.5304 17.5134 26.0391 17.8885 26.4142C18.2636 26.7893 18.7723 27 19.3027 27H25.3027C25.8332 27 26.3419 26.7893 26.7169 26.4142C27.092 26.0391 27.3027 25.5304 27.3027 25V19C27.3027 18.4696 27.092 17.9609 26.7169 17.5858C26.3419 17.2107 25.8332 17 25.3027 17ZM25.3027 25H19.3027V19H25.3027V25Z" fill="white"/>
</svg>
