<svg width="33" height="32" viewBox="0 0 33 32" fill="none" xmlns="http://www.w3.org/2000/svg">
<path d="M19.3023 10C19.3023 9.73481 19.4076 9.48046 19.5952 9.29292C19.7827 9.10539 20.037 9.00003 20.3023 9.00003H31.3023C31.5675 9.00003 31.8218 9.10539 32.0094 9.29292C32.1969 9.48046 32.3023 9.73481 32.3023 10C32.3023 10.2652 32.1969 10.5196 32.0094 10.7071C31.8218 10.8947 31.5675 11 31.3023 11H20.3023C20.037 11 19.7827 10.8947 19.5952 10.7071C19.4076 10.5196 19.3023 10.2652 19.3023 10ZM31.3023 15H20.3023C20.037 15 19.7827 15.1054 19.5952 15.2929C19.4076 15.4805 19.3023 15.7348 19.3023 16C19.3023 16.2652 19.4076 16.5196 19.5952 16.7071C19.7827 16.8947 20.037 17 20.3023 17H31.3023C31.5675 17 31.8218 16.8947 32.0094 16.7071C32.1969 16.5196 32.3023 16.2652 32.3023 16C32.3023 15.7348 32.1969 15.4805 32.0094 15.2929C31.8218 15.1054 31.5675 15 31.3023 15ZM31.3023 21H23.3023C23.037 21 22.7827 21.1054 22.5952 21.2929C22.4076 21.4805 22.3023 21.7348 22.3023 22C22.3023 22.2652 22.4076 22.5196 22.5952 22.7071C22.7827 22.8947 23.037 23 23.3023 23H31.3023C31.5675 23 31.8218 22.8947 32.0094 22.7071C32.1969 22.5196 32.3023 22.2652 32.3023 22C32.3023 21.7348 32.1969 21.4805 32.0094 21.2929C31.8218 21.1054 31.5675 21 31.3023 21ZM13.9635 17.75C14.956 16.9856 15.6843 15.9297 16.0463 14.7304C16.4083 13.5311 16.3858 12.2486 15.9821 11.0628C15.5783 9.87689 14.8135 8.84713 13.7949 8.11791C12.7763 7.38869 11.555 6.99658 10.3023 6.99658C9.04954 6.99658 7.82823 7.38869 6.80962 8.11791C5.79101 8.84713 5.0262 9.87689 4.62244 11.0628C4.21869 12.2486 4.19624 13.5311 4.55824 14.7304C4.92025 15.9297 5.64855 16.9856 6.64101 17.75C4.06351 18.8413 2.03226 21.0375 1.33351 23.75C1.29535 23.8978 1.29153 24.0524 1.32236 24.2019C1.35318 24.3515 1.41783 24.4919 1.51134 24.6126C1.60486 24.7333 1.72476 24.8309 1.86185 24.8981C1.99895 24.9652 2.1496 25.0001 2.30226 25H18.3023C18.4549 25.0001 18.6056 24.9652 18.7427 24.8981C18.8798 24.8309 18.9997 24.7333 19.0932 24.6126C19.1867 24.4919 19.2513 24.3515 19.2822 24.2019C19.313 24.0524 19.3092 23.8978 19.271 23.75C18.5723 21.0363 16.541 18.84 13.9635 17.75Z" fill="white"/>
</svg>
