<svg width="33" height="32" viewBox="0 0 33 32" fill="none" xmlns="http://www.w3.org/2000/svg">
<path d="M25.0688 24.3564C25.1914 24.5022 25.2699 24.68 25.2949 24.8689C25.3199 25.0578 25.2904 25.2499 25.2099 25.4226C25.1294 25.5953 25.0012 25.7414 24.8404 25.8437C24.6797 25.9461 24.493 26.0003 24.3025 26.0001H3.3025C3.11206 26.0001 2.92559 25.9456 2.76502 25.8432C2.60445 25.7408 2.47647 25.5947 2.39611 25.4221C2.31576 25.2494 2.28637 25.0574 2.31142 24.8686C2.33647 24.6798 2.4149 24.5021 2.5375 24.3564C4.405 22.1339 6.7275 20.5551 9.30875 19.7101C7.74113 18.7337 6.53415 17.2734 5.87042 15.55C5.20668 13.8265 5.12231 11.9338 5.63006 10.1582C6.13781 8.38254 7.21006 6.82057 8.68459 5.70859C10.1591 4.59661 11.9557 3.99512 13.8025 3.99512C15.6493 3.99512 17.4459 4.59661 18.9204 5.70859C20.3949 6.82057 21.4672 8.38254 21.9749 10.1582C22.4827 11.9338 22.3983 13.8265 21.7346 15.55C21.0708 17.2734 19.8639 18.7337 18.2962 19.7101C20.8775 20.5551 23.2 22.1339 25.0688 24.3564ZM32.2 19.2501C32.1121 19.4024 31.9856 19.5287 31.8333 19.6165C31.681 19.7043 31.5083 19.7504 31.3325 19.7501C31.1569 19.7507 30.9844 19.7045 30.8325 19.6164L30.2488 19.2789C29.9694 19.5185 29.6482 19.7046 29.3013 19.8276V20.5001C29.3013 20.7653 29.1959 21.0197 29.0084 21.2072C28.8208 21.3948 28.5665 21.5001 28.3013 21.5001C28.036 21.5001 27.7817 21.3948 27.5941 21.2072C27.4066 21.0197 27.3013 20.7653 27.3013 20.5001V19.8276C26.9543 19.7046 26.6331 19.5185 26.3538 19.2789L25.77 19.6164C25.6181 19.7045 25.4456 19.7507 25.27 19.7501C25.0498 19.7502 24.8357 19.6776 24.661 19.5436C24.4863 19.4096 24.3607 19.2216 24.3037 19.0089C24.2467 18.7962 24.2615 18.5706 24.3458 18.3672C24.4301 18.1638 24.5792 17.9939 24.77 17.8839L25.3525 17.5476C25.2842 17.1858 25.2842 16.8144 25.3525 16.4526L24.77 16.1164C24.6562 16.0507 24.5565 15.9633 24.4766 15.8591C24.3966 15.7549 24.3379 15.636 24.3039 15.5091C24.2699 15.3822 24.2612 15.2499 24.2783 15.1197C24.2955 14.9894 24.3381 14.8639 24.4037 14.7501C24.4694 14.6364 24.5568 14.5366 24.661 14.4567C24.7652 14.3767 24.8842 14.318 25.011 14.284C25.1379 14.25 25.2702 14.2413 25.4004 14.2585C25.5307 14.2756 25.6562 14.3182 25.77 14.3839L26.3538 14.7214C26.6331 14.4817 26.9543 14.2957 27.3013 14.1726V13.5001C27.3013 13.2349 27.4066 12.9805 27.5941 12.793C27.7817 12.6055 28.036 12.5001 28.3013 12.5001C28.5665 12.5001 28.8208 12.6055 29.0084 12.793C29.1959 12.9805 29.3013 13.2349 29.3013 13.5001V14.1726C29.6482 14.2957 29.9694 14.4817 30.2488 14.7214L30.8325 14.3839C30.9463 14.3182 31.0718 14.2756 31.2021 14.2585C31.3323 14.2413 31.4646 14.25 31.5915 14.284C31.7183 14.318 31.8373 14.3767 31.9415 14.4567C32.0457 14.5366 32.1331 14.6364 32.1987 14.7501C32.2644 14.8639 32.307 14.9894 32.3242 15.1197C32.3413 15.2499 32.3326 15.3822 32.2986 15.5091C32.2646 15.636 32.2059 15.7549 32.1259 15.8591C32.046 15.9633 31.9463 16.0507 31.8325 16.1164L31.25 16.4526C31.3183 16.8144 31.3183 17.1858 31.25 17.5476L31.8325 17.8839C31.9464 17.9494 32.0462 18.0367 32.1263 18.1409C32.2064 18.245 32.2652 18.364 32.2994 18.4908C32.3335 18.6177 32.3423 18.7501 32.3252 18.8804C32.3082 19.0106 32.2656 19.1363 32.2 19.2501ZM28.3025 18.0001C28.5003 18.0001 28.6936 17.9415 28.8581 17.8316C29.0225 17.7217 29.1507 17.5655 29.2264 17.3828C29.3021 17.2001 29.3219 16.999 29.2833 16.805C29.2447 16.611 29.1495 16.4329 29.0096 16.293C28.8698 16.1532 28.6916 16.0579 28.4976 16.0193C28.3036 15.9807 28.1025 16.0005 27.9198 16.0762C27.7371 16.1519 27.5809 16.2801 27.471 16.4445C27.3611 16.609 27.3025 16.8023 27.3025 17.0001C27.3025 17.2653 27.4079 17.5197 27.5954 17.7072C27.7829 17.8948 28.0373 18.0001 28.3025 18.0001Z" fill="white"/>
</svg>
