<svg width="25" height="24" viewBox="0 0 25 24" fill="none" xmlns="http://www.w3.org/2000/svg">
<path d="M14.5531 7.4999C14.5531 7.30099 14.6321 7.11022 14.7727 6.96957C14.9134 6.82892 15.1042 6.7499 15.3031 6.7499H23.5531C23.752 6.7499 23.9427 6.82892 24.0834 6.96957C24.224 7.11022 24.3031 7.30099 24.3031 7.4999C24.3031 7.69881 24.224 7.88958 24.0834 8.03023C23.9427 8.17088 23.752 8.2499 23.5531 8.2499H15.3031C15.1042 8.2499 14.9134 8.17088 14.7727 8.03023C14.6321 7.88958 14.5531 7.69881 14.5531 7.4999ZM23.5531 11.2499H15.3031C15.1042 11.2499 14.9134 11.3289 14.7727 11.4696C14.6321 11.6102 14.5531 11.801 14.5531 11.9999C14.5531 12.1988 14.6321 12.3896 14.7727 12.5302C14.9134 12.6709 15.1042 12.7499 15.3031 12.7499H23.5531C23.752 12.7499 23.9427 12.6709 24.0834 12.5302C24.224 12.3896 24.3031 12.1988 24.3031 11.9999C24.3031 11.801 24.224 11.6102 24.0834 11.4696C23.9427 11.3289 23.752 11.2499 23.5531 11.2499ZM23.5531 15.7499H17.5531C17.3542 15.7499 17.1634 15.8289 17.0227 15.9696C16.8821 16.1102 16.8031 16.301 16.8031 16.4999C16.8031 16.6988 16.8821 16.8896 17.0227 17.0302C17.1634 17.1709 17.3542 17.2499 17.5531 17.2499H23.5531C23.752 17.2499 23.9427 17.1709 24.0834 17.0302C24.224 16.8896 24.3031 16.6988 24.3031 16.4999C24.3031 16.301 24.224 16.1102 24.0834 15.9696C23.9427 15.8289 23.752 15.7499 23.5531 15.7499ZM14.5296 17.8124C14.5541 17.9078 14.5596 18.0071 14.5458 18.1047C14.5319 18.2022 14.4989 18.296 14.4488 18.3808C14.3986 18.4656 14.3323 18.5397 14.2535 18.5989C14.1747 18.658 14.085 18.701 13.9896 18.7255C13.9285 18.742 13.8654 18.7502 13.8021 18.7499C13.6358 18.75 13.4741 18.6948 13.3426 18.5929C13.2111 18.4911 13.1171 18.3485 13.0756 18.1874C12.4981 15.943 10.2312 14.2499 7.80213 14.2499C5.37306 14.2499 3.10619 15.9421 2.52869 18.1874C2.47896 18.3801 2.35472 18.5451 2.1833 18.6462C2.01188 18.7473 1.80732 18.7762 1.61463 18.7265C1.42193 18.6767 1.25688 18.5525 1.15579 18.3811C1.05469 18.2097 1.02584 18.0051 1.07556 17.8124C1.59963 15.7771 3.12306 14.129 5.05619 13.3124C4.31184 12.7391 3.76561 11.9472 3.49411 11.0477C3.22261 10.1482 3.23944 9.18636 3.54226 8.29695C3.84508 7.40754 4.41869 6.63522 5.18265 6.08831C5.9466 5.54139 6.86258 5.24731 7.80213 5.24731C8.74167 5.24731 9.65765 5.54139 10.4216 6.08831C11.1856 6.63522 11.7592 7.40754 12.062 8.29695C12.3648 9.18636 12.3816 10.1482 12.1101 11.0477C11.8386 11.9472 11.2924 12.7391 10.5481 13.3124C12.4821 14.129 14.0056 15.7771 14.5296 17.8124ZM7.80306 12.7499C8.39641 12.7499 8.97643 12.574 9.46977 12.2443C9.96312 11.9147 10.3476 11.4461 10.5747 10.8979C10.8018 10.3498 10.8612 9.74657 10.7454 9.16463C10.6297 8.58269 10.3439 8.04814 9.92438 7.62858C9.50483 7.20902 8.97028 6.9233 8.38833 6.80754C7.80639 6.69179 7.20319 6.7512 6.65501 6.97826C6.10683 7.20532 5.6383 7.58984 5.30865 8.08319C4.97901 8.57654 4.80306 9.15656 4.80306 9.7499C4.80306 10.5455 5.11913 11.3086 5.68174 11.8712C6.24435 12.4338 7.00741 12.7499 7.80306 12.7499Z" fill="white"/>
</svg>
