<svg width="33" height="33" viewBox="0 0 33 33" fill="none" xmlns="http://www.w3.org/2000/svg">
<path d="M18.3029 20.2101C19.8705 19.2337 21.0775 17.7734 21.7412 16.05C22.4049 14.3265 22.4893 12.4338 21.9815 10.6582C21.4738 8.88254 20.4015 7.32057 18.927 6.20859C17.4525 5.09661 15.6559 4.49512 13.8091 4.49512C11.9623 4.49512 10.1657 5.09661 8.69119 6.20859C7.21667 7.32057 6.14442 8.88254 5.63667 10.6582C5.12892 12.4338 5.21329 14.3265 5.87703 16.05C6.54076 17.7734 7.74774 19.2337 9.31536 20.2101C6.73411 21.0551 4.41161 22.6339 2.54411 24.8564C2.45661 24.9564 2.38993 25.0729 2.34798 25.1991C2.30603 25.3252 2.28965 25.4584 2.29979 25.5909C2.30993 25.7235 2.34639 25.8527 2.40704 25.9709C2.46769 26.0892 2.55131 26.1942 2.65301 26.2798C2.75471 26.3654 2.87246 26.4298 2.99936 26.4694C3.12626 26.5089 3.25977 26.5228 3.39209 26.5101C3.5244 26.4975 3.65287 26.4585 3.76998 26.3957C3.88708 26.3328 3.99047 26.2472 4.07411 26.1439C6.58411 23.1489 10.0416 21.5001 13.8029 21.5001C17.5641 21.5001 21.0216 23.1489 23.5366 26.1439C23.7073 26.3471 23.9518 26.4742 24.2162 26.4971C24.4807 26.5201 24.7434 26.4371 24.9466 26.2664C25.1498 26.0956 25.2769 25.8512 25.2999 25.5867C25.3229 25.3223 25.2398 25.0596 25.0691 24.8564C23.2004 22.6339 20.8779 21.0551 18.3029 20.2101ZM7.30286 13.0001C7.30286 11.7145 7.68408 10.4578 8.3983 9.38891C9.11253 8.31999 10.1277 7.48687 11.3154 6.9949C12.5031 6.50293 13.8101 6.37421 15.0709 6.62501C16.3318 6.87582 17.49 7.49488 18.3991 8.40392C19.3081 9.31296 19.9272 10.4712 20.178 11.732C20.4288 12.9929 20.3 14.2998 19.8081 15.4876C19.3161 16.6753 18.483 17.6904 17.4141 18.4047C16.3451 19.1189 15.0884 19.5001 13.8029 19.5001C12.0796 19.4981 10.4274 18.8127 9.20886 17.5941C7.9903 16.3756 7.30484 14.7234 7.30286 13.0001ZM31.8341 18.3839L31.2516 18.0476C31.3199 17.6858 31.3199 17.3144 31.2516 16.9526L31.8341 16.6164C31.9479 16.5507 32.0476 16.4633 32.1275 16.3591C32.2075 16.2549 32.2662 16.136 32.3002 16.0091C32.3342 15.8822 32.3429 15.7499 32.3258 15.6197C32.3086 15.4895 32.266 15.3639 32.2004 15.2501C32.1347 15.1364 32.0473 15.0366 31.9431 14.9567C31.8389 14.8767 31.72 14.818 31.5931 14.784C31.4662 14.75 31.3339 14.7413 31.2037 14.7585C31.0734 14.7756 30.9479 14.8182 30.8341 14.8839L30.2504 15.2214C29.971 14.9817 29.6498 14.7957 29.3029 14.6726V14.0001C29.3029 13.7349 29.1975 13.4805 29.01 13.293C28.8224 13.1055 28.5681 13.0001 28.3029 13.0001C28.0376 13.0001 27.7833 13.1055 27.5958 13.293C27.4082 13.4805 27.3029 13.7349 27.3029 14.0001V14.6726C26.9559 14.7957 26.6347 14.9817 26.3554 15.2214L25.7716 14.8839C25.6579 14.8182 25.5323 14.7756 25.402 14.7585C25.2718 14.7413 25.1395 14.75 25.0126 14.784C24.8858 14.818 24.7668 14.8767 24.6626 14.9567C24.5584 15.0366 24.471 15.1364 24.4054 15.2501C24.3397 15.3639 24.2971 15.4895 24.28 15.6197C24.2628 15.7499 24.2715 15.8822 24.3055 16.0091C24.3395 16.136 24.3982 16.2549 24.4782 16.3591C24.5581 16.4633 24.6579 16.5507 24.7716 16.6164L25.3541 16.9526C25.2858 17.3144 25.2858 17.6858 25.3541 18.0476L24.7716 18.3839C24.6579 18.4495 24.5581 18.537 24.4782 18.6411C24.3982 18.7453 24.3395 18.8643 24.3055 18.9911C24.2715 19.118 24.2628 19.2503 24.28 19.3806C24.2971 19.5108 24.3397 19.6364 24.4054 19.7501C24.471 19.8639 24.5584 19.9636 24.6626 20.0436C24.7668 20.1235 24.8858 20.1822 25.0126 20.2162C25.1395 20.2502 25.2718 20.2589 25.402 20.2418C25.5323 20.2246 25.6579 20.182 25.7716 20.1164L26.3554 19.7789C26.6347 20.0185 26.9559 20.2046 27.3029 20.3276V21.0001C27.3029 21.2653 27.4082 21.5197 27.5958 21.7072C27.7833 21.8948 28.0376 22.0001 28.3029 22.0001C28.5681 22.0001 28.8224 21.8948 29.01 21.7072C29.1975 21.5197 29.3029 21.2653 29.3029 21.0001V20.3276C29.6498 20.2046 29.971 20.0185 30.2504 19.7789L30.8341 20.1164C30.986 20.2045 31.1585 20.2507 31.3341 20.2501C31.5543 20.2502 31.7684 20.1776 31.9431 20.0436C32.1178 19.9096 32.2434 19.7216 32.3004 19.5089C32.3574 19.2962 32.3426 19.0706 32.2583 18.8672C32.174 18.6638 32.0249 18.4939 31.8341 18.3839ZM27.3029 17.5001C27.3029 17.3023 27.3615 17.109 27.4714 16.9445C27.5813 16.7801 27.7374 16.6519 27.9202 16.5762C28.1029 16.5005 28.304 16.4807 28.4979 16.5193C28.6919 16.5579 28.8701 16.6532 29.01 16.793C29.1498 16.9329 29.2451 17.111 29.2836 17.305C29.3222 17.499 29.3024 17.7001 29.2267 17.8828C29.1511 18.0655 29.0229 18.2217 28.8584 18.3316C28.694 18.4415 28.5006 18.5001 28.3029 18.5001C28.0376 18.5001 27.7833 18.3948 27.5958 18.2072C27.4082 18.0197 27.3029 17.7653 27.3029 17.5001Z" fill="white"/>
</svg>
