<svg width="27" height="26" viewBox="0 0 27 26" fill="none" xmlns="http://www.w3.org/2000/svg">
<path d="M14.8027 19.5C14.8027 19.7967 14.7148 20.0867 14.5499 20.3334C14.3851 20.58 14.1509 20.7723 13.8768 20.8858C13.6027 20.9993 13.3011 21.0291 13.0101 20.9712C12.7191 20.9133 12.4519 20.7704 12.2421 20.5607C12.0323 20.3509 11.8894 20.0836 11.8316 19.7926C11.7737 19.5017 11.8034 19.2001 11.9169 18.926C12.0305 18.6519 12.2227 18.4176 12.4694 18.2528C12.7161 18.088 13.0061 18 13.3027 18C13.7006 18 14.0821 18.158 14.3634 18.4393C14.6447 18.7206 14.8027 19.1022 14.8027 19.5ZM13.3027 6C10.5452 6 8.30274 8.01875 8.30274 10.5V11C8.30274 11.2652 8.4081 11.5196 8.59563 11.7071C8.78317 11.8946 9.03752 12 9.30274 12C9.56796 12 9.82231 11.8946 10.0098 11.7071C10.1974 11.5196 10.3027 11.2652 10.3027 11V10.5C10.3027 9.125 11.649 8 13.3027 8C14.9565 8 16.3027 9.125 16.3027 10.5C16.3027 11.875 14.9565 13 13.3027 13C13.0375 13 12.7832 13.1054 12.5956 13.2929C12.4081 13.4804 12.3027 13.7348 12.3027 14V15C12.3027 15.2652 12.4081 15.5196 12.5956 15.7071C12.7832 15.8946 13.0375 16 13.3027 16C13.568 16 13.8223 15.8946 14.0098 15.7071C14.1974 15.5196 14.3027 15.2652 14.3027 15V14.91C16.5827 14.4913 18.3027 12.6725 18.3027 10.5C18.3027 8.01875 16.0602 6 13.3027 6ZM26.3027 13C26.3027 15.5712 25.5403 18.0846 24.1118 20.2224C22.6834 22.3603 20.6531 24.0265 18.2776 25.0104C15.9022 25.9944 13.2883 26.2518 10.7666 25.7502C8.24481 25.2486 5.92843 24.0105 4.11035 22.1924C2.29227 20.3743 1.05414 18.0579 0.552532 15.5362C0.0509237 13.0144 0.308367 10.4006 1.29231 8.02512C2.27625 5.64968 3.94249 3.61935 6.08033 2.1909C8.21817 0.762437 10.7316 0 13.3027 0C16.7494 0.00363977 20.0539 1.37445 22.4911 3.81163C24.9283 6.24882 26.2991 9.5533 26.3027 13ZM24.3027 13C24.3027 10.8244 23.6576 8.69767 22.4489 6.88873C21.2402 5.07979 19.5222 3.66989 17.5123 2.83733C15.5023 2.00476 13.2905 1.78692 11.1567 2.21136C9.02296 2.6358 7.06294 3.68345 5.52457 5.22183C3.98619 6.7602 2.93854 8.72022 2.5141 10.854C2.08966 12.9878 2.3075 15.1995 3.14007 17.2095C3.97263 19.2195 5.38253 20.9375 7.19147 22.1462C9.00041 23.3549 11.1271 24 13.3027 24C16.2191 23.9967 19.0151 22.8367 21.0773 20.7745C23.1394 18.7123 24.2994 15.9164 24.3027 13Z" fill="white"/>
</svg>
