<svg width="23" height="23" viewBox="0 0 23 23" fill="none" xmlns="http://www.w3.org/2000/svg">
<path d="M10.3027 2.5V8.5C10.3027 9.03043 10.092 9.53914 9.71695 9.91421C9.34187 10.2893 8.83317 10.5 8.30273 10.5H2.30273C1.7723 10.5 1.26359 10.2893 0.888521 9.91421C0.513448 9.53914 0.302734 9.03043 0.302734 8.5V2.5C0.302734 1.96957 0.513448 1.46086 0.888521 1.08579C1.26359 0.710714 1.7723 0.5 2.30273 0.5H8.30273C8.83317 0.5 9.34187 0.710714 9.71695 1.08579C10.092 1.46086 10.3027 1.96957 10.3027 2.5ZM20.3027 0.5H14.3027C13.7723 0.5 13.2636 0.710714 12.8885 1.08579C12.5134 1.46086 12.3027 1.96957 12.3027 2.5V8.5C12.3027 9.03043 12.5134 9.53914 12.8885 9.91421C13.2636 10.2893 13.7723 10.5 14.3027 10.5H20.3027C20.8332 10.5 21.3419 10.2893 21.7169 9.91421C22.092 9.53914 22.3027 9.03043 22.3027 8.5V2.5C22.3027 1.96957 22.092 1.46086 21.7169 1.08579C21.3419 0.710714 20.8332 0.5 20.3027 0.5ZM8.30273 12.5H2.30273C1.7723 12.5 1.26359 12.7107 0.888521 13.0858C0.513448 13.4609 0.302734 13.9696 0.302734 14.5V20.5C0.302734 21.0304 0.513448 21.5391 0.888521 21.9142C1.26359 22.2893 1.7723 22.5 2.30273 22.5H8.30273C8.83317 22.5 9.34187 22.2893 9.71695 21.9142C10.092 21.5391 10.3027 21.0304 10.3027 20.5V14.5C10.3027 13.9696 10.092 13.4609 9.71695 13.0858C9.34187 12.7107 8.83317 12.5 8.30273 12.5ZM20.3027 12.5H14.3027C13.7723 12.5 13.2636 12.7107 12.8885 13.0858C12.5134 13.4609 12.3027 13.9696 12.3027 14.5V20.5C12.3027 21.0304 12.5134 21.5391 12.8885 21.9142C13.2636 22.2893 13.7723 22.5 14.3027 22.5H20.3027C20.8332 22.5 21.3419 22.2893 21.7169 21.9142C22.092 21.5391 22.3027 21.0304 22.3027 20.5V14.5C22.3027 13.9696 22.092 13.4609 21.7169 13.0858C21.3419 12.7107 20.8332 12.5 20.3027 12.5Z" fill="white"/>
</svg>
