<svg width="313" height="103" viewBox="0 0 313 103" fill="none" xmlns="http://www.w3.org/2000/svg">
<path d="M0.5 48.9644L47.4124 2.052V13.1285L11.5765 48.9644L47.4124 86.7549V97.8314L0.5 48.9644Z" fill="#F1333C"/>
<path d="M17.4404 48.9648L47.4122 19.6445V32.0242L29.8201 48.9648L47.4122 66.5569V79.5881L17.4404 48.9648Z" fill="#FF9600"/>
<path d="M47.4134 61.3443V38.5397L36.3369 49.6162L47.4134 61.3443Z" fill="#013974"/>
<path d="M72.5586 68.754H83.7998C85.6198 68.754 87.3862 68.4595 89.0992 67.8707C90.8121 67.2819 92.3377 66.3184 93.6759 64.9801C95.0142 63.5884 96.0848 61.7951 96.8877 59.6004C97.6906 57.4057 98.0921 54.7293 98.0921 51.571C98.0921 48.6804 97.7977 46.0843 97.2089 43.7825C96.6736 41.4272 95.7636 39.4198 94.4789 37.7604C93.1942 36.101 91.4812 34.8431 89.3401 33.9866C87.2524 33.0766 84.6562 32.6216 81.5515 32.6216H72.5586V68.754ZM59.9524 22.0228H84.683C88.3765 22.0228 91.8024 22.6116 94.9606 23.7892C98.1724 24.9669 100.929 26.7334 103.231 29.0887C105.586 31.444 107.406 34.3881 108.691 37.921C110.029 41.454 110.698 45.6025 110.698 50.3666C110.698 54.5419 110.163 58.396 109.092 61.929C108.022 65.4619 106.389 68.5131 104.194 71.0825C102.053 73.6519 99.3501 75.686 96.0848 77.1848C92.873 78.6301 89.0724 79.3528 84.683 79.3528H59.9524V22.0228ZM133.92 57.1916H148.775L141.548 36.1545H141.388L133.92 57.1916ZM135.125 22.0228H148.052L169.491 79.3528H156.403L152.067 66.586H130.628L126.132 79.3528H113.445L135.125 22.0228Z" fill="#013974"/>
<path d="M209.573 48.4066H219.369C220.814 48.4066 222.206 48.2996 223.544 48.0855C224.883 47.8713 226.06 47.4699 227.077 46.881C228.094 46.2387 228.897 45.3555 229.486 44.2313C230.129 43.1072 230.45 41.6352 230.45 39.8152C230.45 37.9952 230.129 36.5231 229.486 35.399C228.897 34.2749 228.094 33.4184 227.077 32.8296C226.06 32.1872 224.883 31.759 223.544 31.5449C222.206 31.3308 220.814 31.2237 219.369 31.2237H209.573V48.4066ZM196.967 21.4278H222.822C226.408 21.4278 229.459 21.9631 231.975 23.0337C234.491 24.0508 236.525 25.4158 238.078 27.1287C239.684 28.8416 240.834 30.7955 241.53 32.9902C242.28 35.1849 242.654 37.4599 242.654 39.8152C242.654 42.1169 242.28 44.3919 241.53 46.6402C240.834 48.8349 239.684 50.7887 238.078 52.5016C236.525 54.2146 234.491 55.6063 231.975 56.6769C229.459 57.694 226.408 58.2025 222.822 58.2025H209.573V78.7578H196.967V21.4278Z" fill="black"/>
<path d="M273.867 60.3231C273.867 62.2501 274.215 63.8828 274.911 65.221C275.607 66.5593 276.517 67.6566 277.641 68.5131C278.819 69.316 280.184 69.9316 281.736 70.3598C283.288 70.7345 284.894 70.9219 286.554 70.9219C287.678 70.9219 288.882 70.8416 290.167 70.681C291.452 70.4669 292.656 70.0922 293.78 69.5569C294.904 69.0216 295.841 68.299 296.59 67.389C297.34 66.4254 297.714 65.221 297.714 63.7757C297.714 62.2234 297.206 60.9654 296.189 60.0019C295.225 59.0384 293.941 58.2354 292.335 57.5931C290.729 56.9507 288.909 56.3887 286.875 55.9069C284.841 55.4251 282.78 54.8898 280.692 54.301C278.551 53.7657 276.463 53.1234 274.429 52.374C272.395 51.571 270.575 50.554 268.969 49.3228C267.363 48.0916 266.052 46.566 265.035 44.746C264.071 42.8725 263.589 40.6242 263.589 38.0013C263.589 35.0572 264.205 32.5145 265.436 30.3734C266.721 28.1787 268.38 26.3587 270.414 24.9134C272.449 23.4681 274.75 22.3975 277.32 21.7016C279.889 21.0057 282.459 20.6578 285.028 20.6578C288.026 20.6578 290.889 21.0057 293.619 21.7016C296.403 22.344 298.865 23.4145 301.007 24.9134C303.148 26.4122 304.834 28.3392 306.065 30.6945C307.35 32.9963 307.992 35.8066 307.992 39.1254H295.787C295.68 37.4125 295.306 35.994 294.663 34.8698C294.074 33.7457 293.272 32.8625 292.254 32.2201C291.237 31.5778 290.06 31.1228 288.722 30.8551C287.437 30.5875 286.018 30.4537 284.466 30.4537C283.449 30.4537 282.432 30.5607 281.415 30.7748C280.398 30.989 279.461 31.3637 278.604 31.899C277.802 32.4342 277.132 33.1034 276.597 33.9063C276.062 34.7093 275.794 35.7263 275.794 36.9575C275.794 38.0816 276.008 38.9916 276.437 39.6875C276.865 40.3834 277.694 41.0257 278.926 41.6145C280.21 42.2034 281.95 42.7922 284.145 43.381C286.393 43.9698 289.31 44.7193 292.897 45.6293C293.967 45.8434 295.439 46.2448 297.313 46.8337C299.24 47.369 301.14 48.2522 303.014 49.4834C304.887 50.7145 306.493 52.374 307.832 54.4616C309.223 56.4957 309.919 59.1187 309.919 62.3304C309.919 64.9534 309.411 67.389 308.394 69.6372C307.377 71.8854 305.851 73.8393 303.817 75.4987C301.836 77.1045 299.347 78.3625 296.349 79.2725C293.405 80.1825 289.979 80.6375 286.072 80.6375C282.914 80.6375 279.836 80.236 276.838 79.4331C273.894 78.6837 271.271 77.4793 268.969 75.8198C266.721 74.1604 264.928 72.046 263.589 69.4766C262.251 66.9072 261.609 63.856 261.662 60.3231H273.867Z" fill="#013974"/>
<path d="M63.1328 97.9343H60.4321V89.5921H63.2183C64.0357 89.5921 64.7377 89.7591 65.3242 90.0931C65.9108 90.4244 66.3602 90.901 66.6725 91.5229C66.9875 92.142 67.145 92.8847 67.145 93.751C67.145 94.62 66.9862 95.3668 66.6684 95.9913C66.3534 96.6159 65.8972 97.0966 65.2998 97.4333C64.7024 97.7673 63.98 97.9343 63.1328 97.9343ZM61.6908 96.8345H63.0635C63.699 96.8345 64.2271 96.715 64.6481 96.4761C65.069 96.2344 65.384 95.8854 65.5931 95.4292C65.8022 94.9703 65.9067 94.4109 65.9067 93.751C65.9067 93.0965 65.8022 92.5412 65.5931 92.085C65.3867 91.6288 65.0785 91.2825 64.6684 91.0463C64.2584 90.81 63.7492 90.6919 63.1409 90.6919H61.6908V96.8345ZM68.7102 97.9343V89.5921H73.9404V90.6756H69.9689V93.2174H73.6675V94.2968H69.9689V96.8508H73.9893V97.9343H68.7102ZM75.6217 97.9343V89.5921H76.8804V96.8508H80.6604V97.9343H75.6217ZM82.0963 97.9343V89.5921H83.355V93.2174H87.5139V89.5921H88.7766V97.9343H87.5139V94.2968H83.355V97.9343H82.0963ZM91.8683 89.5921V97.9343H90.6096V89.5921H91.8683ZM97.4417 97.9343H96.1056L99.1077 89.5921H100.562L103.564 97.9343H102.228L99.8694 91.1074H99.8042L97.4417 97.9343ZM97.6657 94.6675H102V95.7266H97.6657V94.6675ZM106.027 89.5921V97.9343H104.769V89.5921H106.027ZM107.86 97.9343V89.5921H110.834C111.48 89.5921 112.017 89.7034 112.443 89.9261C112.872 90.1488 113.192 90.457 113.404 90.8507C113.616 91.2418 113.722 91.6939 113.722 92.2072C113.722 92.7177 113.615 93.1671 113.4 93.5555C113.188 93.9411 112.868 94.2411 112.439 94.4557C112.012 94.6702 111.476 94.7775 110.83 94.7775H108.577V93.694H110.716C111.123 93.694 111.454 93.6356 111.71 93.5188C111.968 93.402 112.156 93.2323 112.276 93.0096C112.395 92.787 112.455 92.5195 112.455 92.2072C112.455 91.8922 112.394 91.6193 112.272 91.3884C112.152 91.1576 111.964 90.9811 111.706 90.8589C111.45 90.734 111.115 90.6715 110.699 90.6715H109.119V97.9343H107.86ZM111.978 94.1705L114.04 97.9343H112.606L110.585 94.1705H111.978ZM115.253 97.9343V89.5921H118.227C118.876 89.5921 119.414 89.7102 119.84 89.9465C120.266 90.1827 120.586 90.5059 120.797 90.9159C121.009 91.3233 121.115 91.7822 121.115 92.2927C121.115 92.806 121.008 93.2676 120.793 93.6777C120.581 94.085 120.261 94.4082 119.832 94.6471C119.406 94.8834 118.869 95.0015 118.223 95.0015H116.178V93.9343H118.109C118.519 93.9343 118.852 93.8637 119.107 93.7225C119.362 93.5785 119.55 93.383 119.669 93.1359C119.788 92.8888 119.848 92.6077 119.848 92.2927C119.848 91.9777 119.788 91.698 119.669 91.4536C119.55 91.2092 119.361 91.0178 119.103 90.8793C118.848 90.7408 118.511 90.6715 118.093 90.6715H116.512V97.9343H115.253ZM129.837 93.7632C129.837 94.6539 129.674 95.4197 129.348 96.0606C129.022 96.6987 128.576 97.1903 128.008 97.5351C127.443 97.8773 126.801 98.0484 126.081 98.0484C125.359 98.0484 124.714 97.8773 124.147 97.5351C123.582 97.1903 123.136 96.6974 122.811 96.0565C122.485 95.4156 122.322 94.6512 122.322 93.7632C122.322 92.8725 122.485 92.1081 122.811 91.4699C123.136 90.829 123.582 90.3375 124.147 89.9953C124.714 89.6505 125.359 89.478 126.081 89.478C126.801 89.478 127.443 89.6505 128.008 89.9953C128.576 90.3375 129.022 90.829 129.348 91.4699C129.674 92.1081 129.837 92.8725 129.837 93.7632ZM128.591 93.7632C128.591 93.0843 128.481 92.5127 128.261 92.0483C128.043 91.5812 127.745 91.2282 127.365 90.9892C126.987 90.7476 126.559 90.6267 126.081 90.6267C125.601 90.6267 125.172 90.7476 124.794 90.9892C124.417 91.2282 124.118 91.5812 123.898 92.0483C123.681 92.5127 123.572 93.0843 123.572 93.7632C123.572 94.4421 123.681 95.0151 123.898 95.4822C124.118 95.9465 124.417 96.2995 124.794 96.5412C125.172 96.7802 125.601 96.8997 126.081 96.8997C126.559 96.8997 126.987 96.7802 127.365 96.5412C127.745 96.2995 128.043 95.9465 128.261 95.4822C128.481 95.0151 128.591 94.4421 128.591 93.7632ZM131.406 97.9343V89.5921H134.38C135.026 89.5921 135.563 89.7034 135.989 89.9261C136.418 90.1488 136.738 90.457 136.95 90.8507C137.162 91.2418 137.268 91.6939 137.268 92.2072C137.268 92.7177 137.161 93.1671 136.946 93.5555C136.734 93.9411 136.414 94.2411 135.985 94.4557C135.559 94.6702 135.022 94.7775 134.376 94.7775H132.123V93.694H134.262C134.669 93.694 135 93.6356 135.256 93.5188C135.514 93.402 135.702 93.2323 135.822 93.0096C135.941 92.787 136.001 92.5195 136.001 92.2072C136.001 91.8922 135.94 91.6193 135.818 91.3884C135.698 91.1576 135.51 90.9811 135.252 90.8589C134.996 90.734 134.661 90.6715 134.246 90.6715H132.665V97.9343H131.406ZM135.525 94.1705L137.586 97.9343H136.152L134.131 94.1705H135.525ZM138.388 90.6756V89.5921H144.844V90.6756H142.242V97.9343H140.987V90.6756H138.388ZM149.307 97.9343V89.5921H152.28C152.929 89.5921 153.467 89.7102 153.893 89.9465C154.32 90.1827 154.639 90.5059 154.851 90.9159C155.062 91.3233 155.168 91.7822 155.168 92.2927C155.168 92.806 155.061 93.2676 154.847 93.6777C154.635 94.085 154.314 94.4082 153.885 94.6471C153.459 94.8834 152.923 95.0015 152.276 95.0015H150.231V93.9343H152.162C152.572 93.9343 152.905 93.8637 153.16 93.7225C153.415 93.5785 153.603 93.383 153.722 93.1359C153.842 92.8888 153.902 92.6077 153.902 92.2927C153.902 91.9777 153.842 91.698 153.722 91.4536C153.603 91.2092 153.414 91.0178 153.156 90.8793C152.901 90.7408 152.564 90.6715 152.146 90.6715H150.565V97.9343H149.307ZM156.464 97.9343H155.128L158.13 89.5921H159.584L162.586 97.9343H161.25L158.891 91.1074H158.826L156.464 97.9343ZM156.688 94.6675H161.022V95.7266H156.688V94.6675ZM163.791 97.9343V89.5921H166.764C167.411 89.5921 167.947 89.7034 168.373 89.9261C168.802 90.1488 169.123 90.457 169.334 90.8507C169.546 91.2418 169.652 91.6939 169.652 92.2072C169.652 92.7177 169.545 93.1671 169.33 93.5555C169.119 93.9411 168.798 94.2411 168.369 94.4557C167.943 94.6702 167.406 94.7775 166.76 94.7775H164.508V93.694H166.646C167.053 93.694 167.385 93.6356 167.64 93.5188C167.898 93.402 168.087 93.2323 168.206 93.0096C168.326 92.787 168.385 92.5195 168.385 92.2072C168.385 91.8922 168.324 91.6193 168.202 91.3884C168.083 91.1576 167.894 90.9811 167.636 90.8589C167.381 90.734 167.045 90.6715 166.63 90.6715H165.049V97.9343H163.791ZM167.909 94.1705L169.97 97.9343H168.536L166.516 94.1705H167.909ZM171.184 97.9343V89.5921H172.442V93.5758H172.544L176.043 89.5921H177.628L174.263 93.3477L177.64 97.9343H176.125L173.428 94.2072L172.442 95.3396V97.9343H171.184ZM180.06 89.5921V97.9343H178.801V89.5921H180.06ZM188.626 89.5921V97.9343H187.469L183.229 91.8161H183.151V97.9343H181.893V89.5921H183.058L187.302 95.7184H187.379V89.5921H188.626ZM196.108 92.2275C196.029 91.9804 195.923 91.7591 195.79 91.5636C195.66 91.3653 195.503 91.197 195.322 91.0585C195.14 90.9173 194.932 90.81 194.698 90.7367C194.467 90.6634 194.214 90.6267 193.937 90.6267C193.467 90.6267 193.043 90.7476 192.666 90.9892C192.288 91.2309 191.99 91.5853 191.77 92.0524C191.552 92.5168 191.444 93.0857 191.444 93.7591C191.444 94.4353 191.554 95.0069 191.774 95.474C191.994 95.9411 192.295 96.2955 192.678 96.5372C193.061 96.7788 193.497 96.8997 193.985 96.8997C194.439 96.8997 194.834 96.8074 195.171 96.6227C195.51 96.438 195.772 96.1773 195.957 95.8406C196.144 95.5012 196.238 95.102 196.238 94.643L196.564 94.7041H194.177V93.6654H197.456V94.6145C197.456 95.3152 197.307 95.9234 197.008 96.4394C196.712 96.9526 196.302 97.3491 195.778 97.6288C195.256 97.9085 194.659 98.0484 193.985 98.0484C193.231 98.0484 192.568 97.8746 191.998 97.527C191.43 97.1794 190.987 96.6865 190.67 96.0484C190.352 95.4075 190.193 94.6471 190.193 93.7673C190.193 93.102 190.285 92.5045 190.47 91.975C190.655 91.4455 190.914 90.996 191.248 90.6267C191.585 90.2547 191.98 89.9709 192.434 89.7754C192.89 89.5771 193.388 89.478 193.928 89.478C194.379 89.478 194.799 89.5446 195.187 89.6776C195.578 89.8107 195.926 89.9994 196.23 90.2438C196.537 90.4882 196.791 90.7788 196.992 91.1155C197.193 91.4495 197.328 91.8202 197.399 92.2275H196.108ZM206.639 91.7835C206.596 91.3979 206.417 91.0992 206.102 90.8874C205.787 90.6729 205.39 90.5656 204.912 90.5656C204.57 90.5656 204.274 90.6199 204.024 90.7285C203.774 90.8345 203.58 90.9811 203.442 91.1685C203.306 91.3531 203.238 91.5636 203.238 91.7998C203.238 91.9981 203.284 92.1692 203.377 92.3131C203.472 92.457 203.595 92.5779 203.747 92.6756C203.902 92.7707 204.068 92.8508 204.244 92.9159C204.421 92.9784 204.59 93.03 204.753 93.0707L205.568 93.2825C205.834 93.3477 206.107 93.436 206.387 93.5473C206.667 93.6587 206.926 93.8053 207.165 93.9872C207.404 94.1692 207.597 94.3946 207.743 94.6634C207.893 94.9323 207.967 95.2541 207.967 95.6288C207.967 96.1013 207.845 96.5209 207.601 96.8875C207.359 97.2541 207.007 97.5433 206.546 97.7551C206.087 97.9669 205.531 98.0728 204.88 98.0728C204.255 98.0728 203.715 97.9737 203.258 97.7755C202.802 97.5772 202.445 97.2962 202.187 96.9323C201.929 96.5657 201.787 96.1312 201.759 95.6288H203.022C203.047 95.9302 203.144 96.1814 203.316 96.3824C203.489 96.5806 203.711 96.7286 203.979 96.8264C204.251 96.9214 204.548 96.9689 204.872 96.9689C205.227 96.9689 205.544 96.9133 205.821 96.8019C206.1 96.6879 206.32 96.5304 206.481 96.3294C206.641 96.1258 206.721 95.8881 206.721 95.6166C206.721 95.3695 206.65 95.1672 206.509 95.0097C206.371 94.8521 206.182 94.7218 205.943 94.6186C205.707 94.5154 205.439 94.4244 205.14 94.3457L204.155 94.0769C203.487 93.8949 202.957 93.6274 202.566 93.2744C202.178 92.9214 201.984 92.4543 201.984 91.8732C201.984 91.3925 202.114 90.9729 202.375 90.6145C202.635 90.256 202.988 89.9777 203.434 89.7795C203.879 89.5785 204.381 89.478 204.941 89.478C205.506 89.478 206.004 89.5771 206.436 89.7754C206.87 89.9736 207.212 90.2465 207.462 90.5941C207.712 90.939 207.842 91.3355 207.853 91.7835H206.639ZM209.471 97.9343V89.5921H214.702V90.6756H210.73V93.2174H214.429V94.2968H210.73V96.8508H214.75V97.9343H209.471ZM216.383 97.9343V89.5921H219.356C220.003 89.5921 220.539 89.7034 220.965 89.9261C221.394 90.1488 221.715 90.457 221.927 90.8507C222.139 91.2418 222.244 91.6939 222.244 92.2072C222.244 92.7177 222.137 93.1671 221.923 93.5555C221.711 93.9411 221.39 94.2411 220.961 94.4557C220.535 94.6702 219.999 94.7775 219.352 94.7775H217.1V93.694H219.238C219.646 93.694 219.977 93.6356 220.232 93.5188C220.49 93.402 220.679 93.2323 220.798 93.0096C220.918 92.787 220.978 92.5195 220.978 92.2072C220.978 91.8922 220.916 91.6193 220.794 91.3884C220.675 91.1576 220.486 90.9811 220.228 90.8589C219.973 90.734 219.637 90.6715 219.222 90.6715H217.642V97.9343H216.383ZM220.501 94.1705L222.562 97.9343H221.128L219.108 94.1705H220.501ZM224.304 89.5921L226.625 96.3864H226.719L229.041 89.5921H230.401L227.399 97.9343H225.945L222.943 89.5921H224.304ZM232.865 89.5921V97.9343H231.606V89.5921H232.865ZM241.627 92.3049H240.356C240.307 92.0334 240.216 91.7944 240.083 91.588C239.95 91.3816 239.787 91.2065 239.594 91.0626C239.401 90.9186 239.185 90.81 238.946 90.7367C238.71 90.6634 238.459 90.6267 238.193 90.6267C237.712 90.6267 237.282 90.7476 236.901 90.9892C236.524 91.2309 236.225 91.5853 236.005 92.0524C235.788 92.5195 235.679 93.0897 235.679 93.7632C235.679 94.4421 235.788 95.0151 236.005 95.4822C236.225 95.9492 236.525 96.3023 236.905 96.5412C237.286 96.7802 237.713 96.8997 238.189 96.8997C238.452 96.8997 238.702 96.8644 238.938 96.7938C239.177 96.7205 239.393 96.6132 239.586 96.472C239.779 96.3308 239.941 96.1583 240.075 95.9547C240.21 95.7483 240.304 95.512 240.356 95.2459L241.627 95.25C241.559 95.66 241.427 96.0375 241.231 96.3824C241.039 96.7245 240.79 97.0205 240.486 97.2704C240.185 97.5175 239.84 97.7089 239.451 97.8447C239.063 97.9805 238.639 98.0484 238.18 98.0484C237.458 98.0484 236.815 97.8773 236.25 97.5351C235.685 97.1903 235.239 96.6974 234.914 96.0565C234.59 95.4156 234.429 94.6512 234.429 93.7632C234.429 92.8725 234.592 92.1081 234.918 91.4699C235.244 90.829 235.689 90.3375 236.254 89.9953C236.819 89.6505 237.461 89.478 238.18 89.478C238.623 89.478 239.036 89.5418 239.419 89.6695C239.804 89.7944 240.151 89.979 240.457 90.2235C240.764 90.4651 241.018 90.7611 241.219 91.1114C241.42 91.459 241.556 91.8569 241.627 92.3049ZM243.133 97.9343V89.5921H248.363V90.6756H244.391V93.2174H248.09V94.2968H244.391V96.8508H248.412V97.9343H243.133ZM254.594 91.7835C254.551 91.3979 254.371 91.0992 254.056 90.8874C253.741 90.6729 253.345 90.5656 252.867 90.5656C252.525 90.5656 252.229 90.6199 251.979 90.7285C251.729 90.8345 251.535 90.9811 251.396 91.1685C251.261 91.3531 251.193 91.5636 251.193 91.7998C251.193 91.9981 251.239 92.1692 251.331 92.3131C251.426 92.457 251.55 92.5779 251.702 92.6756C251.857 92.7707 252.022 92.8508 252.199 92.9159C252.375 92.9784 252.545 93.03 252.708 93.0707L253.523 93.2825C253.789 93.3477 254.062 93.436 254.341 93.5473C254.621 93.6587 254.881 93.8053 255.12 93.9872C255.358 94.1692 255.551 94.3946 255.698 94.6634C255.847 94.9323 255.922 95.2541 255.922 95.6288C255.922 96.1013 255.8 96.5209 255.555 96.8875C255.314 97.2541 254.962 97.5433 254.5 97.7551C254.041 97.9669 253.486 98.0728 252.834 98.0728C252.21 98.0728 251.669 97.9737 251.213 97.7755C250.757 97.5772 250.4 97.2962 250.142 96.9323C249.884 96.5657 249.741 96.1312 249.714 95.6288H250.977C251.001 95.9302 251.099 96.1814 251.27 96.3824C251.444 96.5806 251.665 96.7286 251.934 96.8264C252.206 96.9214 252.503 96.9689 252.826 96.9689C253.182 96.9689 253.498 96.9133 253.775 96.8019C254.055 96.6879 254.275 96.5304 254.435 96.3294C254.595 96.1258 254.676 95.8881 254.676 95.6166C254.676 95.3695 254.605 95.1672 254.464 95.0097C254.325 94.8521 254.136 94.7218 253.898 94.6186C253.661 94.5154 253.394 94.4244 253.095 94.3457L252.109 94.0769C251.441 93.8949 250.912 93.6274 250.521 93.2744C250.132 92.9214 249.938 92.4543 249.938 91.8732C249.938 91.3925 250.069 90.9729 250.329 90.6145C250.59 90.256 250.943 89.9777 251.388 89.7795C251.834 89.5785 252.336 89.478 252.895 89.478C253.46 89.478 253.959 89.5771 254.39 89.7754C254.825 89.9736 255.167 90.2465 255.417 90.5941C255.667 90.939 255.797 91.3355 255.808 91.7835H254.594ZM260.462 97.9343V89.5921H263.435C264.084 89.5921 264.622 89.7102 265.048 89.9465C265.475 90.1827 265.794 90.5059 266.006 90.9159C266.217 91.3233 266.323 91.7822 266.323 92.2927C266.323 92.806 266.216 93.2676 266.001 93.6777C265.79 94.085 265.469 94.4082 265.04 94.6471C264.614 94.8834 264.078 95.0015 263.431 95.0015H261.386V93.9343H263.317C263.727 93.9343 264.06 93.8637 264.315 93.7225C264.57 93.5785 264.758 93.383 264.877 93.1359C264.997 92.8888 265.056 92.6077 265.056 92.2927C265.056 91.9777 264.997 91.698 264.877 91.4536C264.758 91.2092 264.569 91.0178 264.311 90.8793C264.056 90.7408 263.719 90.6715 263.301 90.6715H261.72V97.9343H260.462ZM268.528 89.5921L270.85 96.3864H270.943L273.265 89.5921H274.626L271.624 97.9343H270.17L267.167 89.5921H268.528ZM275.419 90.6756V89.5921H281.875V90.6756H279.273V97.9343H278.018V90.6756H275.419ZM283.615 98.0117C283.392 98.0117 283.201 97.933 283.04 97.7755C282.88 97.6152 282.8 97.4224 282.8 97.197C282.8 96.9744 282.88 96.7843 283.04 96.6268C283.201 96.4666 283.392 96.3864 283.615 96.3864C283.837 96.3864 284.029 96.4666 284.189 96.6268C284.349 96.7843 284.429 96.9744 284.429 97.197C284.429 97.3464 284.391 97.4835 284.315 97.6085C284.242 97.7307 284.144 97.8284 284.022 97.9017C283.9 97.9751 283.764 98.0117 283.615 98.0117ZM289.06 97.9343V89.5921H290.318V96.8508H294.099V97.9343H289.06ZM294.036 90.6756V89.5921H300.493V90.6756H297.89V97.9343H296.635V90.6756H294.036ZM304.62 97.9343H301.919V89.5921H304.706C305.523 89.5921 306.225 89.7591 306.811 90.0931C307.398 90.4244 307.847 90.901 308.16 91.5229C308.475 92.142 308.632 92.8847 308.632 93.751C308.632 94.62 308.473 95.3668 308.156 95.9913C307.841 96.6159 307.384 97.0966 306.787 97.4333C306.19 97.7673 305.467 97.9343 304.62 97.9343ZM303.178 96.8345H304.551C305.186 96.8345 305.714 96.715 306.135 96.4761C306.556 96.2344 306.871 95.8854 307.08 95.4292C307.289 94.9703 307.394 94.4109 307.394 93.751C307.394 93.0965 307.289 92.5412 307.08 92.085C306.874 91.6288 306.566 91.2825 306.156 91.0463C305.746 90.81 305.236 90.6919 304.628 90.6919H303.178V96.8345ZM310.376 98.0117C310.153 98.0117 309.962 97.933 309.801 97.7755C309.641 97.6152 309.561 97.4224 309.561 97.197C309.561 96.9744 309.641 96.7843 309.801 96.6268C309.962 96.4666 310.153 96.3864 310.376 96.3864C310.598 96.3864 310.79 96.4666 310.95 96.6268C311.11 96.7843 311.19 96.9744 311.19 97.197C311.19 97.3464 311.152 97.4835 311.076 97.6085C311.003 97.7307 310.905 97.8284 310.783 97.9017C310.661 97.9751 310.525 98.0117 310.376 98.0117Z" fill="black"/>
<path d="M183.397 78.9356C177.089 72.0226 173.227 65.6448 170.598 56.9472C167.968 48.2497 168.153 39.0565 171.127 30.6292C174.101 22.202 179.718 14.9536 187.209 9.87866C194.699 4.80377 203.695 2.15108 212.961 2.28462C222.228 2.41816 231.312 5.33138 238.967 10.6245C246.621 15.9176 252.471 23.3313 255.713 31.8482C258.956 40.365 259.432 49.5677 257.076 58.1934C254.721 66.8191 251.088 71.4549 244.265 78.9356L232.411 79.0147C238.147 74.5009 246.874 62.8132 248.78 55.8355C250.685 48.8578 250.3 41.4133 247.677 34.5237C245.054 27.634 240.322 21.6368 234.13 17.3549C227.938 13.0731 220.59 10.7165 213.093 10.6084C205.597 10.5004 198.32 12.6463 192.261 16.7516C186.202 20.8569 181.657 26.7204 179.251 33.5376C176.845 40.3548 176.696 47.7916 178.823 54.8274C180.951 61.8632 188.412 74.2544 194.295 78.9356L183.397 78.9356Z" fill="#F1333C"/>
</svg>
