<svg width="366" height="53" viewBox="0 0 366 53" fill="none" xmlns="http://www.w3.org/2000/svg">
<g clip-path="url(#clip0_1945_59399)">
<path d="M336.437 0H338.773C344.701 0.226066 350.554 2.26066 355.175 5.95308C359.747 9.57014 363.138 14.6692 364.494 20.3209C364.921 22.0289 365.122 23.7621 365.223 25.4953V27.6554C364.946 33.4076 362.761 39.0592 358.968 43.4047C354.824 48.2275 348.946 51.5431 342.666 52.5981C341.385 52.8242 340.079 52.9246 338.798 53H336.437C330.886 52.7237 325.41 50.89 320.939 47.5493C316.267 44.1081 312.725 39.1095 311.168 33.4829C309.334 26.9521 310.188 19.6929 313.529 13.79C316.593 8.31422 321.692 4.06919 327.545 1.83365C330.383 0.728436 333.398 0.175829 336.437 0ZM335.834 11.1526C331.564 11.6299 327.52 13.991 325.108 17.5578C322.672 21.0995 321.868 25.6711 322.747 29.8659C323.4 33.0308 325.083 35.9948 327.52 38.155C329.906 40.29 332.996 41.5962 336.186 41.8725C339.753 42.1991 343.495 41.4455 346.434 39.3607C349.398 37.2507 351.634 34.0858 352.488 30.5692C353.291 27.2284 353.141 23.6365 351.835 20.4213C350.679 17.6081 348.645 15.1213 346.108 13.4133C343.118 11.4289 339.376 10.7507 335.834 11.1526Z" fill="white"/>
<path d="M98.3139 1.43186C106.327 1.40674 114.34 1.40674 122.327 1.40674C123.759 1.43186 125.166 1.3565 126.597 1.58257C129.938 2.05982 133.103 3.74276 135.389 6.22949C137.373 8.36456 138.704 11.0774 139.157 13.966C139.634 17.0304 139.106 20.2707 137.649 23.0338C136.193 25.847 133.806 28.1328 130.968 29.5394C134.133 36.9745 137.298 44.4347 140.463 51.8698C140.613 52.2465 140.814 52.5982 140.89 53.0001H127.276C124.337 45.6906 121.498 38.356 118.585 31.0465C116.148 31.0214 113.712 31.0465 111.275 31.0465C111.25 36.0702 111.275 41.0939 111.275 46.1176C111.225 48.4034 111.325 50.7143 111.225 53.0001C110.798 53.0503 110.999 52.548 110.748 52.3721C106.754 45.9418 102.76 39.4864 98.7661 33.056C98.5902 32.8048 98.4395 32.5285 98.2888 32.2522C98.3391 21.9788 98.3139 11.7053 98.3139 1.43186ZM110.095 11.63C110.078 15.1298 110.078 18.6296 110.095 22.1295C114.214 22.1295 118.358 22.1295 122.503 22.1295C124.739 22.0541 126.748 20.2707 127.075 18.0603C127.2 16.7039 127.2 15.247 126.472 14.0665C125.643 12.6096 124.01 11.63 122.327 11.63C118.241 11.63 114.164 11.63 110.095 11.63Z" fill="white"/>
<path d="M176.181 1.45679C181.331 1.48191 186.48 1.45679 191.629 1.48191C198.662 18.6629 205.721 35.8189 212.779 52.9999H198.738C193.882 40.3737 189.025 27.7558 184.169 15.1464C184.069 14.9705 184.094 14.6691 183.868 14.6691C181.507 20.5971 179.095 26.4748 176.709 32.3776C176.583 32.7544 176.382 33.1061 176.307 33.4829C178.869 33.4829 181.431 33.4829 183.993 33.4829C185.199 36.5975 186.38 39.7374 187.585 42.852C182.788 42.852 177.965 42.852 173.167 42.852C171.844 46.2347 170.521 49.6173 169.198 52.9999H155.157C162.19 35.8189 169.173 18.6378 176.181 1.45679Z" fill="white"/>
<path d="M216.12 1.48204C229.868 1.4653 243.608 1.4653 257.339 1.48204C257.339 4.97351 257.339 8.4901 257.339 12.0067C247.518 12.0067 237.697 12.0067 227.85 12.0067C227.85 15.3056 227.85 18.6128 227.85 21.9285C236.993 21.9285 246.136 21.9285 255.28 21.9285C255.28 25.2776 255.28 28.6184 255.28 31.9508C246.136 31.9508 236.993 31.9508 227.85 31.9508C227.85 35.4506 227.85 38.9588 227.85 42.4754C237.847 42.4754 247.87 42.4503 257.867 42.4754C257.867 45.9669 257.867 49.4835 257.867 53H216.12C216.12 35.819 216.12 18.638 216.12 1.48204Z" fill="white"/>
<path d="M261.207 1.50702C266.03 1.43167 270.828 1.48191 275.65 1.45679C279.418 1.50702 283.186 1.40655 286.979 1.53214C290.998 1.70797 295.117 2.21034 298.835 3.89328C301.422 5.07385 303.708 7.00797 305.039 9.54494C306.772 12.7601 307.099 16.5279 306.998 20.1449C306.873 23.5611 306.094 27.1028 303.934 29.8407C302.05 32.3023 299.186 33.8596 296.273 34.7388C300.359 40.8342 304.461 46.9212 308.581 52.9999H294.992C289.39 44.4094 283.764 35.8189 278.137 27.2283C280.373 27.2283 282.608 27.2283 284.844 27.2283C286.853 27.2032 288.888 27.0776 290.797 26.3743C292.028 25.9222 293.158 25.1435 293.836 23.9881C294.69 22.5814 294.866 20.8734 294.841 19.2658C294.791 17.7084 294.489 16.0757 293.51 14.8449C292.656 13.7146 291.349 13.0364 290.043 12.6847C287.783 12.0317 285.421 12.0819 283.085 12.0819C279.745 12.0819 276.379 12.0819 273.013 12.0819C272.862 13.2122 272.988 14.3928 272.963 15.5231C272.963 28.0321 272.963 40.516 272.963 52.9999H261.232C261.232 35.844 261.232 18.6629 261.207 1.50702Z" fill="white"/>
<path d="M14.7953 4.87297C18.5882 3.26538 22.6825 2.41136 26.7768 2.08482C33.3327 1.55733 39.964 2.28576 46.2687 4.09429C46.2939 4.16965 46.2939 4.32036 46.2939 4.39572C45.9422 7.88719 45.6157 11.3787 45.264 14.8701C39.7379 12.1071 33.3076 11.1275 27.2541 12.2578C23.637 12.936 20.0953 14.4933 17.5332 17.1308C15.4735 19.2407 14.1673 22.0289 13.7152 24.9175C13.0621 29.1374 14.1673 33.5834 16.7043 37.0246C18.4626 39.4611 20.9744 41.2948 23.7877 42.3497C27.7313 43.8569 32.2777 44.0829 36.2214 42.4502C34.0863 45.9668 31.8759 49.4332 29.7408 52.9497C30.5948 53 31.4488 52.9246 32.3029 53H24.0138C23.7123 52.8744 23.3607 52.8744 23.0341 52.8242C20.0199 52.4976 17.0559 51.7692 14.2929 50.5635C9.99765 48.7298 6.22988 45.6152 3.76827 41.6464C0.779172 36.8488 -0.275805 31.0213 0.201446 25.4199C0.678697 20.0948 2.63794 14.8199 6.22988 10.8009C8.54078 8.16349 11.5801 6.22937 14.7953 4.87297Z" fill="white"/>
<path d="M27.6307 23.511C34.4127 23.4942 41.1947 23.4858 47.9766 23.4858C46.0676 26.6005 44.1586 29.6901 42.2496 32.7797C37.3766 32.7546 32.4785 32.8048 27.6307 32.7546C27.6307 29.665 27.6307 26.5754 27.6307 23.511Z" fill="white"/>
<path d="M47.9762 23.4859C51.9198 17.156 55.8383 10.801 59.807 4.44604C63.3739 10.1479 66.8904 15.875 70.4321 21.5769C68.071 25.42 65.6848 29.2882 63.2734 33.1314C62.1179 31.2223 60.9625 29.3217 59.807 27.4295C54.6075 35.9446 49.4833 44.4849 44.2838 53.0001H32.3023C31.4483 52.9247 30.5942 53.0001 29.7402 52.9498C31.8753 49.4333 34.0857 45.9669 36.2208 42.4503C38.2303 39.2351 40.2146 35.9949 42.2492 32.7797C44.1582 29.6901 46.0672 26.6005 47.9762 23.4859Z" fill="#ED1C24"/>
<path d="M77.5911 33.1313C80.4546 37.7531 83.3265 42.375 86.2067 46.9968C87.4124 49.0062 88.7186 50.9655 89.874 53.0001H75.3304C73.6475 50.3375 72.0901 47.6247 70.4323 44.9622C72.7934 41.0186 75.1797 37.0498 77.5911 33.1313Z" fill="#ED1C24"/>
<path d="M70.4322 21.5769C73.9739 15.875 77.4905 10.1479 81.0573 4.44604C86.8346 13.6896 92.5616 22.9835 98.2886 32.2522C98.4393 32.5285 98.59 32.8048 98.7658 33.056C102.76 39.4863 106.754 45.9418 110.747 52.3721C110.999 52.5479 110.798 53.0503 111.225 53.0001H111.25H98.3388C97.736 52.8996 97.0829 53.0754 96.5052 52.9247C91.3559 44.4347 86.2317 35.9195 81.0573 27.4295C79.8767 29.3133 78.7464 31.2223 77.5909 33.1314C75.1796 37.0498 72.7933 41.0186 70.4322 44.9622C68.7995 47.6498 67.1919 50.3375 65.5341 53.0001H51.0156C51.1161 52.6735 51.317 52.3972 51.4928 52.0958C55.4113 45.766 59.3549 39.4612 63.2734 33.1314C65.6848 29.2882 68.071 25.42 70.4322 21.5769Z" fill="#F7931E"/>
</g>
<defs>
<clipPath id="clip0_1945_59399">
<rect width="365.223" height="53" fill="white"/>
</clipPath>
</defs>
</svg>
