<svg width="77" height="57" viewBox="0 0 77 57" fill="none" xmlns="http://www.w3.org/2000/svg">
<path d="M52.3448 19V16.625C52.3448 12.2158 50.6014 7.98714 47.498 4.86935C44.3946 1.75156 40.1855 0 35.7966 0C31.4077 0 27.1986 1.75156 24.0952 4.86935C20.9918 7.98714 19.2484 12.2158 19.2484 16.625V19H12.1562V49.875C12.1563 51.7647 12.9035 53.5769 14.2335 54.9131C15.5635 56.2493 17.3674 57 19.2484 57H52.3448C54.2258 57 56.0297 56.2493 57.3597 54.9131C58.6898 53.5769 59.437 51.7647 59.437 49.875V19H52.3448ZM38.1606 42.75H33.4326V33.25H38.1606V42.75ZM47.6168 19H23.9764V16.625C23.9764 13.4756 25.2218 10.4551 27.4385 8.22811C29.6552 6.00111 32.6617 4.75 35.7966 4.75C38.9315 4.75 41.938 6.00111 44.1547 8.22811C46.3714 10.4551 47.6168 13.4756 47.6168 16.625V19Z" fill="#356DFF"/>
</svg>
